G04 #@! TF.GenerationSoftware,KiCad,Pcbnew,(5.1.6)-1*
G04 #@! TF.CreationDate,2020-12-05T12:47:16+01:00*
G04 #@! TF.ProjectId,Test Stand PCB,54657374-2053-4746-916e-64205043422e,rev?*
G04 #@! TF.SameCoordinates,Original*
G04 #@! TF.FileFunction,Legend,Bot*
G04 #@! TF.FilePolarity,Positive*
%FSLAX46Y46*%
G04 Gerber Fmt 4.6, Leading zero omitted, Abs format (unit mm)*
G04 Created by KiCad (PCBNEW (5.1.6)-1) date 2020-12-05 12:47:16*
%MOMM*%
%LPD*%
G01*
G04 APERTURE LIST*
%ADD10C,0.250000*%
%ADD11C,0.010000*%
G04 APERTURE END LIST*
D10*
X161202380Y-52257738D02*
X161202380Y-52829166D01*
X162202380Y-52543452D02*
X161202380Y-52543452D01*
X162202380Y-53162500D02*
X161202380Y-53162500D01*
X161678571Y-53162500D02*
X161678571Y-53733928D01*
X162202380Y-53733928D02*
X161202380Y-53733928D01*
X162202380Y-54781547D02*
X161726190Y-54448214D01*
X162202380Y-54210119D02*
X161202380Y-54210119D01*
X161202380Y-54591071D01*
X161250000Y-54686309D01*
X161297619Y-54733928D01*
X161392857Y-54781547D01*
X161535714Y-54781547D01*
X161630952Y-54733928D01*
X161678571Y-54686309D01*
X161726190Y-54591071D01*
X161726190Y-54210119D01*
X161202380Y-55210119D02*
X162011904Y-55210119D01*
X162107142Y-55257738D01*
X162154761Y-55305357D01*
X162202380Y-55400595D01*
X162202380Y-55591071D01*
X162154761Y-55686309D01*
X162107142Y-55733928D01*
X162011904Y-55781547D01*
X161202380Y-55781547D01*
X162154761Y-56210119D02*
X162202380Y-56352976D01*
X162202380Y-56591071D01*
X162154761Y-56686309D01*
X162107142Y-56733928D01*
X162011904Y-56781547D01*
X161916666Y-56781547D01*
X161821428Y-56733928D01*
X161773809Y-56686309D01*
X161726190Y-56591071D01*
X161678571Y-56400595D01*
X161630952Y-56305357D01*
X161583333Y-56257738D01*
X161488095Y-56210119D01*
X161392857Y-56210119D01*
X161297619Y-56257738D01*
X161250000Y-56305357D01*
X161202380Y-56400595D01*
X161202380Y-56638690D01*
X161250000Y-56781547D01*
X161202380Y-57067261D02*
X161202380Y-57638690D01*
X162202380Y-57352976D02*
X161202380Y-57352976D01*
X161202380Y-58591071D02*
X161202380Y-59162500D01*
X162202380Y-58876785D02*
X161202380Y-58876785D01*
X161678571Y-59495833D02*
X161678571Y-59829166D01*
X162202380Y-59972023D02*
X162202380Y-59495833D01*
X161202380Y-59495833D01*
X161202380Y-59972023D01*
X161916666Y-60352976D02*
X161916666Y-60829166D01*
X162202380Y-60257738D02*
X161202380Y-60591071D01*
X162202380Y-60924404D01*
X162202380Y-61257738D02*
X161202380Y-61257738D01*
X161916666Y-61591071D01*
X161202380Y-61924404D01*
X162202380Y-61924404D01*
X163952380Y-52400595D02*
X162952380Y-52400595D01*
X162952380Y-52638690D01*
X163000000Y-52781547D01*
X163095238Y-52876785D01*
X163190476Y-52924404D01*
X163380952Y-52972023D01*
X163523809Y-52972023D01*
X163714285Y-52924404D01*
X163809523Y-52876785D01*
X163904761Y-52781547D01*
X163952380Y-52638690D01*
X163952380Y-52400595D01*
X163904761Y-53781547D02*
X163952380Y-53686309D01*
X163952380Y-53495833D01*
X163904761Y-53400595D01*
X163809523Y-53352976D01*
X163428571Y-53352976D01*
X163333333Y-53400595D01*
X163285714Y-53495833D01*
X163285714Y-53686309D01*
X163333333Y-53781547D01*
X163428571Y-53829166D01*
X163523809Y-53829166D01*
X163619047Y-53352976D01*
X163904761Y-54686309D02*
X163952380Y-54591071D01*
X163952380Y-54400595D01*
X163904761Y-54305357D01*
X163857142Y-54257738D01*
X163761904Y-54210119D01*
X163476190Y-54210119D01*
X163380952Y-54257738D01*
X163333333Y-54305357D01*
X163285714Y-54400595D01*
X163285714Y-54591071D01*
X163333333Y-54686309D01*
X163904761Y-55495833D02*
X163952380Y-55400595D01*
X163952380Y-55210119D01*
X163904761Y-55114880D01*
X163809523Y-55067261D01*
X163428571Y-55067261D01*
X163333333Y-55114880D01*
X163285714Y-55210119D01*
X163285714Y-55400595D01*
X163333333Y-55495833D01*
X163428571Y-55543452D01*
X163523809Y-55543452D01*
X163619047Y-55067261D01*
X163952380Y-55972023D02*
X163285714Y-55972023D01*
X163380952Y-55972023D02*
X163333333Y-56019642D01*
X163285714Y-56114880D01*
X163285714Y-56257738D01*
X163333333Y-56352976D01*
X163428571Y-56400595D01*
X163952380Y-56400595D01*
X163428571Y-56400595D02*
X163333333Y-56448214D01*
X163285714Y-56543452D01*
X163285714Y-56686309D01*
X163333333Y-56781547D01*
X163428571Y-56829166D01*
X163952380Y-56829166D01*
X163952380Y-57305357D02*
X162952380Y-57305357D01*
X163333333Y-57305357D02*
X163285714Y-57400595D01*
X163285714Y-57591071D01*
X163333333Y-57686309D01*
X163380952Y-57733928D01*
X163476190Y-57781547D01*
X163761904Y-57781547D01*
X163857142Y-57733928D01*
X163904761Y-57686309D01*
X163952380Y-57591071D01*
X163952380Y-57400595D01*
X163904761Y-57305357D01*
X163904761Y-58591071D02*
X163952380Y-58495833D01*
X163952380Y-58305357D01*
X163904761Y-58210119D01*
X163809523Y-58162500D01*
X163428571Y-58162500D01*
X163333333Y-58210119D01*
X163285714Y-58305357D01*
X163285714Y-58495833D01*
X163333333Y-58591071D01*
X163428571Y-58638690D01*
X163523809Y-58638690D01*
X163619047Y-58162500D01*
X163952380Y-59067261D02*
X163285714Y-59067261D01*
X163476190Y-59067261D02*
X163380952Y-59114880D01*
X163333333Y-59162500D01*
X163285714Y-59257738D01*
X163285714Y-59352976D01*
X163047619Y-60400595D02*
X163000000Y-60448214D01*
X162952380Y-60543452D01*
X162952380Y-60781547D01*
X163000000Y-60876785D01*
X163047619Y-60924404D01*
X163142857Y-60972023D01*
X163238095Y-60972023D01*
X163380952Y-60924404D01*
X163952380Y-60352976D01*
X163952380Y-60972023D01*
X162952380Y-61591071D02*
X162952380Y-61686309D01*
X163000000Y-61781547D01*
X163047619Y-61829166D01*
X163142857Y-61876785D01*
X163333333Y-61924404D01*
X163571428Y-61924404D01*
X163761904Y-61876785D01*
X163857142Y-61829166D01*
X163904761Y-61781547D01*
X163952380Y-61686309D01*
X163952380Y-61591071D01*
X163904761Y-61495833D01*
X163857142Y-61448214D01*
X163761904Y-61400595D01*
X163571428Y-61352976D01*
X163333333Y-61352976D01*
X163142857Y-61400595D01*
X163047619Y-61448214D01*
X163000000Y-61495833D01*
X162952380Y-61591071D01*
X163047619Y-62305357D02*
X163000000Y-62352976D01*
X162952380Y-62448214D01*
X162952380Y-62686309D01*
X163000000Y-62781547D01*
X163047619Y-62829166D01*
X163142857Y-62876785D01*
X163238095Y-62876785D01*
X163380952Y-62829166D01*
X163952380Y-62257738D01*
X163952380Y-62876785D01*
X162952380Y-63495833D02*
X162952380Y-63591071D01*
X163000000Y-63686309D01*
X163047619Y-63733928D01*
X163142857Y-63781547D01*
X163333333Y-63829166D01*
X163571428Y-63829166D01*
X163761904Y-63781547D01*
X163857142Y-63733928D01*
X163904761Y-63686309D01*
X163952380Y-63591071D01*
X163952380Y-63495833D01*
X163904761Y-63400595D01*
X163857142Y-63352976D01*
X163761904Y-63305357D01*
X163571428Y-63257738D01*
X163333333Y-63257738D01*
X163142857Y-63305357D01*
X163047619Y-63352976D01*
X163000000Y-63400595D01*
X162952380Y-63495833D01*
X165702380Y-52972023D02*
X165226190Y-52638690D01*
X165702380Y-52400595D02*
X164702380Y-52400595D01*
X164702380Y-52781547D01*
X164750000Y-52876785D01*
X164797619Y-52924404D01*
X164892857Y-52972023D01*
X165035714Y-52972023D01*
X165130952Y-52924404D01*
X165178571Y-52876785D01*
X165226190Y-52781547D01*
X165226190Y-52400595D01*
X165654761Y-53781547D02*
X165702380Y-53686309D01*
X165702380Y-53495833D01*
X165654761Y-53400595D01*
X165559523Y-53352976D01*
X165178571Y-53352976D01*
X165083333Y-53400595D01*
X165035714Y-53495833D01*
X165035714Y-53686309D01*
X165083333Y-53781547D01*
X165178571Y-53829166D01*
X165273809Y-53829166D01*
X165369047Y-53352976D01*
X165035714Y-54162500D02*
X165702380Y-54400595D01*
X165035714Y-54638690D01*
X165702380Y-56305357D02*
X165702380Y-55733928D01*
X165702380Y-56019642D02*
X164702380Y-56019642D01*
X164845238Y-55924404D01*
X164940476Y-55829166D01*
X164988095Y-55733928D01*
X165607142Y-56733928D02*
X165654761Y-56781547D01*
X165702380Y-56733928D01*
X165654761Y-56686309D01*
X165607142Y-56733928D01*
X165702380Y-56733928D01*
X164702380Y-57400595D02*
X164702380Y-57495833D01*
X164750000Y-57591071D01*
X164797619Y-57638690D01*
X164892857Y-57686309D01*
X165083333Y-57733928D01*
X165321428Y-57733928D01*
X165511904Y-57686309D01*
X165607142Y-57638690D01*
X165654761Y-57591071D01*
X165702380Y-57495833D01*
X165702380Y-57400595D01*
X165654761Y-57305357D01*
X165607142Y-57257738D01*
X165511904Y-57210119D01*
X165321428Y-57162500D01*
X165083333Y-57162500D01*
X164892857Y-57210119D01*
X164797619Y-57257738D01*
X164750000Y-57305357D01*
X164702380Y-57400595D01*
X42827380Y-64374032D02*
X42827380Y-64993080D01*
X43208333Y-64612127D01*
X43208333Y-64754985D01*
X43255952Y-64844270D01*
X43303571Y-64885937D01*
X43398809Y-64921651D01*
X43636904Y-64891889D01*
X43732142Y-64832366D01*
X43779761Y-64778794D01*
X43827380Y-64677604D01*
X43827380Y-64391889D01*
X43779761Y-64302604D01*
X43732142Y-64260937D01*
X43732142Y-66641889D02*
X43779761Y-66588318D01*
X43827380Y-66439508D01*
X43827380Y-66344270D01*
X43779761Y-66207366D01*
X43684523Y-66124032D01*
X43589285Y-66088318D01*
X43398809Y-66064508D01*
X43255952Y-66082366D01*
X43065476Y-66153794D01*
X42970238Y-66213318D01*
X42875000Y-66320461D01*
X42827380Y-66469270D01*
X42827380Y-66564508D01*
X42875000Y-66701413D01*
X42922619Y-66743080D01*
X43827380Y-67058556D02*
X42827380Y-67183556D01*
X43827380Y-67487127D02*
X43303571Y-67552604D01*
X43208333Y-67516889D01*
X43160714Y-67427604D01*
X43160714Y-67284747D01*
X43208333Y-67183556D01*
X43255952Y-67129985D01*
X43827380Y-68391889D02*
X43303571Y-68457366D01*
X43208333Y-68421651D01*
X43160714Y-68332366D01*
X43160714Y-68141889D01*
X43208333Y-68040699D01*
X43779761Y-68397842D02*
X43827380Y-68296651D01*
X43827380Y-68058556D01*
X43779761Y-67969270D01*
X43684523Y-67933556D01*
X43589285Y-67945461D01*
X43494047Y-68004985D01*
X43446428Y-68106175D01*
X43446428Y-68344270D01*
X43398809Y-68445461D01*
X43160714Y-68951413D02*
X43827380Y-68868080D01*
X43255952Y-68939508D02*
X43208333Y-68993080D01*
X43160714Y-69094270D01*
X43160714Y-69237127D01*
X43208333Y-69326413D01*
X43303571Y-69362127D01*
X43827380Y-69296651D01*
X43160714Y-69856175D02*
X43827380Y-69772842D01*
X43255952Y-69844270D02*
X43208333Y-69897842D01*
X43160714Y-69999032D01*
X43160714Y-70141889D01*
X43208333Y-70231175D01*
X43303571Y-70266889D01*
X43827380Y-70201413D01*
X43779761Y-71064508D02*
X43827380Y-70963318D01*
X43827380Y-70772842D01*
X43779761Y-70683556D01*
X43684523Y-70647842D01*
X43303571Y-70695461D01*
X43208333Y-70754985D01*
X43160714Y-70856175D01*
X43160714Y-71046651D01*
X43208333Y-71135937D01*
X43303571Y-71171651D01*
X43398809Y-71159747D01*
X43494047Y-70671651D01*
X43827380Y-71677604D02*
X43779761Y-71588318D01*
X43684523Y-71552604D01*
X42827380Y-71659747D01*
X43160714Y-73332366D02*
X43827380Y-73249032D01*
X42779761Y-73141889D02*
X43494047Y-72814508D01*
X43494047Y-73433556D01*
X43446428Y-73820461D02*
X43446428Y-74582366D01*
X42922619Y-75076413D02*
X42875000Y-75129985D01*
X42827380Y-75231175D01*
X42827380Y-75469270D01*
X42875000Y-75558556D01*
X42922619Y-75600223D01*
X43017857Y-75635937D01*
X43113095Y-75624032D01*
X43255952Y-75558556D01*
X43827380Y-74915699D01*
X43827380Y-75534747D01*
X42827380Y-76278794D02*
X42827380Y-76374032D01*
X42875000Y-76463318D01*
X42922619Y-76504985D01*
X43017857Y-76540699D01*
X43208333Y-76564508D01*
X43446428Y-76534747D01*
X43636904Y-76463318D01*
X43732142Y-76403794D01*
X43779761Y-76350223D01*
X43827380Y-76249032D01*
X43827380Y-76153794D01*
X43779761Y-76064508D01*
X43732142Y-76022842D01*
X43636904Y-75987127D01*
X43446428Y-75963318D01*
X43208333Y-75993080D01*
X43017857Y-76064508D01*
X42922619Y-76124032D01*
X42875000Y-76177604D01*
X42827380Y-76278794D01*
X43827380Y-76915699D02*
X43160714Y-76999032D01*
X43255952Y-76987127D02*
X43208333Y-77040699D01*
X43160714Y-77141889D01*
X43160714Y-77284747D01*
X43208333Y-77374032D01*
X43303571Y-77409747D01*
X43827380Y-77344270D01*
X43303571Y-77409747D02*
X43208333Y-77469270D01*
X43160714Y-77570461D01*
X43160714Y-77713318D01*
X43208333Y-77802604D01*
X43303571Y-77838318D01*
X43827380Y-77772842D01*
X43541666Y-78237127D02*
X43541666Y-78713318D01*
X43827380Y-78106175D02*
X42827380Y-78564508D01*
X43827380Y-78772842D01*
X43779761Y-79826413D02*
X43827380Y-79963318D01*
X43827380Y-80201413D01*
X43779761Y-80302604D01*
X43732142Y-80356175D01*
X43636904Y-80415699D01*
X43541666Y-80427604D01*
X43446428Y-80391889D01*
X43398809Y-80350223D01*
X43351190Y-80260937D01*
X43303571Y-80076413D01*
X43255952Y-79987127D01*
X43208333Y-79945461D01*
X43113095Y-79909747D01*
X43017857Y-79921651D01*
X42922619Y-79981175D01*
X42875000Y-80034747D01*
X42827380Y-80135937D01*
X42827380Y-80374032D01*
X42875000Y-80510937D01*
X43779761Y-81207366D02*
X43827380Y-81106175D01*
X43827380Y-80915699D01*
X43779761Y-80826413D01*
X43684523Y-80790699D01*
X43303571Y-80838318D01*
X43208333Y-80897842D01*
X43160714Y-80999032D01*
X43160714Y-81189508D01*
X43208333Y-81278794D01*
X43303571Y-81314508D01*
X43398809Y-81302604D01*
X43494047Y-80814508D01*
X43160714Y-81760937D02*
X43827380Y-81677604D01*
X43255952Y-81749032D02*
X43208333Y-81802604D01*
X43160714Y-81903794D01*
X43160714Y-82046651D01*
X43208333Y-82135937D01*
X43303571Y-82171651D01*
X43827380Y-82106175D01*
X43779761Y-82540699D02*
X43827380Y-82629985D01*
X43827380Y-82820461D01*
X43779761Y-82921651D01*
X43684523Y-82981175D01*
X43636904Y-82987127D01*
X43541666Y-82951413D01*
X43494047Y-82862127D01*
X43494047Y-82719270D01*
X43446428Y-82629985D01*
X43351190Y-82594270D01*
X43303571Y-82600223D01*
X43208333Y-82659747D01*
X43160714Y-82760937D01*
X43160714Y-82903794D01*
X43208333Y-82993080D01*
X43827380Y-83534747D02*
X43779761Y-83445461D01*
X43732142Y-83403794D01*
X43636904Y-83368080D01*
X43351190Y-83403794D01*
X43255952Y-83463318D01*
X43208333Y-83516889D01*
X43160714Y-83618080D01*
X43160714Y-83760937D01*
X43208333Y-83850223D01*
X43255952Y-83891889D01*
X43351190Y-83927604D01*
X43636904Y-83891889D01*
X43732142Y-83832366D01*
X43779761Y-83778794D01*
X43827380Y-83677604D01*
X43827380Y-83534747D01*
X43827380Y-84296651D02*
X43160714Y-84379985D01*
X43351190Y-84356175D02*
X43255952Y-84415699D01*
X43208333Y-84469270D01*
X43160714Y-84570461D01*
X43160714Y-84665699D01*
X44910714Y-62046651D02*
X45577380Y-61963318D01*
X44529761Y-61856175D02*
X45244047Y-61528794D01*
X45244047Y-62147842D01*
X45482142Y-63832366D02*
X45529761Y-63778794D01*
X45577380Y-63629985D01*
X45577380Y-63534747D01*
X45529761Y-63397842D01*
X45434523Y-63314508D01*
X45339285Y-63278794D01*
X45148809Y-63254985D01*
X45005952Y-63272842D01*
X44815476Y-63344270D01*
X44720238Y-63403794D01*
X44625000Y-63510937D01*
X44577380Y-63659747D01*
X44577380Y-63754985D01*
X44625000Y-63891889D01*
X44672619Y-63933556D01*
X45577380Y-64249032D02*
X44577380Y-64374032D01*
X45577380Y-64677604D02*
X45053571Y-64743080D01*
X44958333Y-64707366D01*
X44910714Y-64618080D01*
X44910714Y-64475223D01*
X44958333Y-64374032D01*
X45005952Y-64320461D01*
X45577380Y-65582366D02*
X45053571Y-65647842D01*
X44958333Y-65612127D01*
X44910714Y-65522842D01*
X44910714Y-65332366D01*
X44958333Y-65231175D01*
X45529761Y-65588318D02*
X45577380Y-65487127D01*
X45577380Y-65249032D01*
X45529761Y-65159747D01*
X45434523Y-65124032D01*
X45339285Y-65135937D01*
X45244047Y-65195461D01*
X45196428Y-65296651D01*
X45196428Y-65534747D01*
X45148809Y-65635937D01*
X44910714Y-66141889D02*
X45577380Y-66058556D01*
X45005952Y-66129985D02*
X44958333Y-66183556D01*
X44910714Y-66284747D01*
X44910714Y-66427604D01*
X44958333Y-66516889D01*
X45053571Y-66552604D01*
X45577380Y-66487127D01*
X44910714Y-67046651D02*
X45577380Y-66963318D01*
X45005952Y-67034747D02*
X44958333Y-67088318D01*
X44910714Y-67189508D01*
X44910714Y-67332366D01*
X44958333Y-67421651D01*
X45053571Y-67457366D01*
X45577380Y-67391889D01*
X45529761Y-68254985D02*
X45577380Y-68153794D01*
X45577380Y-67963318D01*
X45529761Y-67874032D01*
X45434523Y-67838318D01*
X45053571Y-67885937D01*
X44958333Y-67945461D01*
X44910714Y-68046651D01*
X44910714Y-68237127D01*
X44958333Y-68326413D01*
X45053571Y-68362127D01*
X45148809Y-68350223D01*
X45244047Y-67862127D01*
X45577380Y-68868080D02*
X45529761Y-68778794D01*
X45434523Y-68743080D01*
X44577380Y-68850223D01*
X44577380Y-69993080D02*
X44577380Y-70564508D01*
X45577380Y-70153794D02*
X44577380Y-70278794D01*
X45577380Y-70772842D02*
X44577380Y-70897842D01*
X45577380Y-71201413D02*
X45053571Y-71266889D01*
X44958333Y-71231175D01*
X44910714Y-71141889D01*
X44910714Y-70999032D01*
X44958333Y-70897842D01*
X45005952Y-70844270D01*
X45529761Y-72064508D02*
X45577380Y-71963318D01*
X45577380Y-71772842D01*
X45529761Y-71683556D01*
X45434523Y-71647842D01*
X45053571Y-71695461D01*
X44958333Y-71754985D01*
X44910714Y-71856175D01*
X44910714Y-72046651D01*
X44958333Y-72135937D01*
X45053571Y-72171651D01*
X45148809Y-72159747D01*
X45244047Y-71671651D01*
X45577380Y-72534747D02*
X44910714Y-72618080D01*
X45101190Y-72594270D02*
X45005952Y-72653794D01*
X44958333Y-72707366D01*
X44910714Y-72808556D01*
X44910714Y-72903794D01*
X45577380Y-73153794D02*
X44910714Y-73237127D01*
X45005952Y-73225223D02*
X44958333Y-73278794D01*
X44910714Y-73379985D01*
X44910714Y-73522842D01*
X44958333Y-73612127D01*
X45053571Y-73647842D01*
X45577380Y-73582366D01*
X45053571Y-73647842D02*
X44958333Y-73707366D01*
X44910714Y-73808556D01*
X44910714Y-73951413D01*
X44958333Y-74040699D01*
X45053571Y-74076413D01*
X45577380Y-74010937D01*
X45577380Y-74629985D02*
X45529761Y-74540699D01*
X45482142Y-74499032D01*
X45386904Y-74463318D01*
X45101190Y-74499032D01*
X45005952Y-74558556D01*
X44958333Y-74612127D01*
X44910714Y-74713318D01*
X44910714Y-74856175D01*
X44958333Y-74945461D01*
X45005952Y-74987127D01*
X45101190Y-75022842D01*
X45386904Y-74987127D01*
X45482142Y-74927604D01*
X45529761Y-74874032D01*
X45577380Y-74772842D01*
X45577380Y-74629985D01*
X45529761Y-75826413D02*
X45577380Y-75725223D01*
X45577380Y-75534747D01*
X45529761Y-75445461D01*
X45482142Y-75403794D01*
X45386904Y-75368080D01*
X45101190Y-75403794D01*
X45005952Y-75463318D01*
X44958333Y-75516889D01*
X44910714Y-75618080D01*
X44910714Y-75808556D01*
X44958333Y-75897842D01*
X45577380Y-76391889D02*
X45529761Y-76302604D01*
X45482142Y-76260937D01*
X45386904Y-76225223D01*
X45101190Y-76260937D01*
X45005952Y-76320461D01*
X44958333Y-76374032D01*
X44910714Y-76475223D01*
X44910714Y-76618080D01*
X44958333Y-76707366D01*
X45005952Y-76749032D01*
X45101190Y-76784747D01*
X45386904Y-76749032D01*
X45482142Y-76689508D01*
X45529761Y-76635937D01*
X45577380Y-76534747D01*
X45577380Y-76391889D01*
X44910714Y-77665699D02*
X45577380Y-77582366D01*
X44910714Y-77237127D02*
X45434523Y-77171651D01*
X45529761Y-77207366D01*
X45577380Y-77296651D01*
X45577380Y-77439508D01*
X45529761Y-77540699D01*
X45482142Y-77594270D01*
X44910714Y-78141889D02*
X45910714Y-78016889D01*
X44958333Y-78135937D02*
X44910714Y-78237127D01*
X44910714Y-78427604D01*
X44958333Y-78516889D01*
X45005952Y-78558556D01*
X45101190Y-78594270D01*
X45386904Y-78558556D01*
X45482142Y-78499032D01*
X45529761Y-78445461D01*
X45577380Y-78344270D01*
X45577380Y-78153794D01*
X45529761Y-78064508D01*
X45577380Y-79106175D02*
X45529761Y-79016889D01*
X45434523Y-78981175D01*
X44577380Y-79088318D01*
X45529761Y-79874032D02*
X45577380Y-79772842D01*
X45577380Y-79582366D01*
X45529761Y-79493080D01*
X45434523Y-79457366D01*
X45053571Y-79504985D01*
X44958333Y-79564508D01*
X44910714Y-79665699D01*
X44910714Y-79856175D01*
X44958333Y-79945461D01*
X45053571Y-79981175D01*
X45148809Y-79969270D01*
X45244047Y-79481175D01*
X45291666Y-81094270D02*
X45291666Y-81570461D01*
X45577380Y-80963318D02*
X44577380Y-81421651D01*
X45577380Y-81629985D01*
X45577380Y-81963318D02*
X44910714Y-82046651D01*
X45005952Y-82034747D02*
X44958333Y-82088318D01*
X44910714Y-82189508D01*
X44910714Y-82332366D01*
X44958333Y-82421651D01*
X45053571Y-82457366D01*
X45577380Y-82391889D01*
X45053571Y-82457366D02*
X44958333Y-82516889D01*
X44910714Y-82618080D01*
X44910714Y-82760937D01*
X44958333Y-82850223D01*
X45053571Y-82885937D01*
X45577380Y-82820461D01*
X44910714Y-83379985D02*
X45910714Y-83254985D01*
X44958333Y-83374032D02*
X44910714Y-83475223D01*
X44910714Y-83665699D01*
X44958333Y-83754985D01*
X45005952Y-83796651D01*
X45101190Y-83832366D01*
X45386904Y-83796651D01*
X45482142Y-83737127D01*
X45529761Y-83683556D01*
X45577380Y-83582366D01*
X45577380Y-83391889D01*
X45529761Y-83302604D01*
X45577380Y-84344270D02*
X45529761Y-84254985D01*
X45434523Y-84219270D01*
X44577380Y-84326413D01*
X45577380Y-84725223D02*
X44910714Y-84808556D01*
X44577380Y-84850223D02*
X44625000Y-84796651D01*
X44672619Y-84838318D01*
X44625000Y-84891889D01*
X44577380Y-84850223D01*
X44672619Y-84838318D01*
X44910714Y-85141889D02*
X44910714Y-85522842D01*
X45577380Y-85201413D02*
X44720238Y-85308556D01*
X44625000Y-85368080D01*
X44577380Y-85469270D01*
X44577380Y-85564508D01*
X45577380Y-85772842D02*
X44910714Y-85856175D01*
X44577380Y-85897842D02*
X44625000Y-85844270D01*
X44672619Y-85885937D01*
X44625000Y-85939508D01*
X44577380Y-85897842D01*
X44672619Y-85885937D01*
X45529761Y-86635937D02*
X45577380Y-86534747D01*
X45577380Y-86344270D01*
X45529761Y-86254985D01*
X45434523Y-86219270D01*
X45053571Y-86266889D01*
X44958333Y-86326413D01*
X44910714Y-86427604D01*
X44910714Y-86618080D01*
X44958333Y-86707366D01*
X45053571Y-86743080D01*
X45148809Y-86731175D01*
X45244047Y-86243080D01*
X45577380Y-87106175D02*
X44910714Y-87189508D01*
X45101190Y-87165699D02*
X45005952Y-87225223D01*
X44958333Y-87278794D01*
X44910714Y-87379985D01*
X44910714Y-87475223D01*
X47327380Y-67320461D02*
X47327380Y-66749032D01*
X47327380Y-67034747D02*
X46327380Y-67159747D01*
X46470238Y-67046651D01*
X46565476Y-66939508D01*
X46613095Y-66838318D01*
X47232142Y-69094270D02*
X47279761Y-69040699D01*
X47327380Y-68891889D01*
X47327380Y-68796651D01*
X47279761Y-68659747D01*
X47184523Y-68576413D01*
X47089285Y-68540699D01*
X46898809Y-68516889D01*
X46755952Y-68534747D01*
X46565476Y-68606175D01*
X46470238Y-68665699D01*
X46375000Y-68772842D01*
X46327380Y-68921651D01*
X46327380Y-69016889D01*
X46375000Y-69153794D01*
X46422619Y-69195461D01*
X47327380Y-69510937D02*
X46327380Y-69635937D01*
X47327380Y-69939508D02*
X46803571Y-70004985D01*
X46708333Y-69969270D01*
X46660714Y-69879985D01*
X46660714Y-69737127D01*
X46708333Y-69635937D01*
X46755952Y-69582366D01*
X47327380Y-70844270D02*
X46803571Y-70909747D01*
X46708333Y-70874032D01*
X46660714Y-70784747D01*
X46660714Y-70594270D01*
X46708333Y-70493080D01*
X47279761Y-70850223D02*
X47327380Y-70749032D01*
X47327380Y-70510937D01*
X47279761Y-70421651D01*
X47184523Y-70385937D01*
X47089285Y-70397842D01*
X46994047Y-70457366D01*
X46946428Y-70558556D01*
X46946428Y-70796651D01*
X46898809Y-70897842D01*
X46660714Y-71403794D02*
X47327380Y-71320461D01*
X46755952Y-71391889D02*
X46708333Y-71445461D01*
X46660714Y-71546651D01*
X46660714Y-71689508D01*
X46708333Y-71778794D01*
X46803571Y-71814508D01*
X47327380Y-71749032D01*
X46660714Y-72308556D02*
X47327380Y-72225223D01*
X46755952Y-72296651D02*
X46708333Y-72350223D01*
X46660714Y-72451413D01*
X46660714Y-72594270D01*
X46708333Y-72683556D01*
X46803571Y-72719270D01*
X47327380Y-72653794D01*
X47279761Y-73516889D02*
X47327380Y-73415699D01*
X47327380Y-73225223D01*
X47279761Y-73135937D01*
X47184523Y-73100223D01*
X46803571Y-73147842D01*
X46708333Y-73207366D01*
X46660714Y-73308556D01*
X46660714Y-73499032D01*
X46708333Y-73588318D01*
X46803571Y-73624032D01*
X46898809Y-73612127D01*
X46994047Y-73124032D01*
X47327380Y-74129985D02*
X47279761Y-74040699D01*
X47184523Y-74004985D01*
X46327380Y-74112127D01*
X47327380Y-75749032D02*
X47327380Y-75272842D01*
X46327380Y-75397842D01*
X47327380Y-76225223D02*
X47279761Y-76135937D01*
X47232142Y-76094270D01*
X47136904Y-76058556D01*
X46851190Y-76094270D01*
X46755952Y-76153794D01*
X46708333Y-76207366D01*
X46660714Y-76308556D01*
X46660714Y-76451413D01*
X46708333Y-76540699D01*
X46755952Y-76582366D01*
X46851190Y-76618080D01*
X47136904Y-76582366D01*
X47232142Y-76522842D01*
X47279761Y-76469270D01*
X47327380Y-76368080D01*
X47327380Y-76225223D01*
X47327380Y-77415699D02*
X46803571Y-77481175D01*
X46708333Y-77445461D01*
X46660714Y-77356175D01*
X46660714Y-77165699D01*
X46708333Y-77064508D01*
X47279761Y-77421651D02*
X47327380Y-77320461D01*
X47327380Y-77082366D01*
X47279761Y-76993080D01*
X47184523Y-76957366D01*
X47089285Y-76969270D01*
X46994047Y-77028794D01*
X46946428Y-77129985D01*
X46946428Y-77368080D01*
X46898809Y-77469270D01*
X47327380Y-78320461D02*
X46327380Y-78445461D01*
X47279761Y-78326413D02*
X47327380Y-78225223D01*
X47327380Y-78034747D01*
X47279761Y-77945461D01*
X47232142Y-77903794D01*
X47136904Y-77868080D01*
X46851190Y-77903794D01*
X46755952Y-77963318D01*
X46708333Y-78016889D01*
X46660714Y-78118080D01*
X46660714Y-78308556D01*
X46708333Y-78397842D01*
X47232142Y-80141889D02*
X47279761Y-80088318D01*
X47327380Y-79939508D01*
X47327380Y-79844270D01*
X47279761Y-79707366D01*
X47184523Y-79624032D01*
X47089285Y-79588318D01*
X46898809Y-79564508D01*
X46755952Y-79582366D01*
X46565476Y-79653794D01*
X46470238Y-79713318D01*
X46375000Y-79820461D01*
X46327380Y-79969270D01*
X46327380Y-80064508D01*
X46375000Y-80201413D01*
X46422619Y-80243080D01*
X47279761Y-80945461D02*
X47327380Y-80844270D01*
X47327380Y-80653794D01*
X47279761Y-80564508D01*
X47184523Y-80528794D01*
X46803571Y-80576413D01*
X46708333Y-80635937D01*
X46660714Y-80737127D01*
X46660714Y-80927604D01*
X46708333Y-81016889D01*
X46803571Y-81052604D01*
X46898809Y-81040699D01*
X46994047Y-80552604D01*
X47327380Y-81558556D02*
X47279761Y-81469270D01*
X47184523Y-81433556D01*
X46327380Y-81540699D01*
X47327380Y-82082366D02*
X47279761Y-81993080D01*
X47184523Y-81957366D01*
X46327380Y-82064508D01*
X49077380Y-61129985D02*
X49077380Y-60558556D01*
X49077380Y-60844270D02*
X48077380Y-60969270D01*
X48220238Y-60856175D01*
X48315476Y-60749032D01*
X48363095Y-60647842D01*
X48982142Y-62903794D02*
X49029761Y-62850223D01*
X49077380Y-62701413D01*
X49077380Y-62606175D01*
X49029761Y-62469270D01*
X48934523Y-62385937D01*
X48839285Y-62350223D01*
X48648809Y-62326413D01*
X48505952Y-62344270D01*
X48315476Y-62415699D01*
X48220238Y-62475223D01*
X48125000Y-62582366D01*
X48077380Y-62731175D01*
X48077380Y-62826413D01*
X48125000Y-62963318D01*
X48172619Y-63004985D01*
X49077380Y-63320461D02*
X48077380Y-63445461D01*
X49077380Y-63749032D02*
X48553571Y-63814508D01*
X48458333Y-63778794D01*
X48410714Y-63689508D01*
X48410714Y-63546651D01*
X48458333Y-63445461D01*
X48505952Y-63391889D01*
X49077380Y-64653794D02*
X48553571Y-64719270D01*
X48458333Y-64683556D01*
X48410714Y-64594270D01*
X48410714Y-64403794D01*
X48458333Y-64302604D01*
X49029761Y-64659747D02*
X49077380Y-64558556D01*
X49077380Y-64320461D01*
X49029761Y-64231175D01*
X48934523Y-64195461D01*
X48839285Y-64207366D01*
X48744047Y-64266889D01*
X48696428Y-64368080D01*
X48696428Y-64606175D01*
X48648809Y-64707366D01*
X48410714Y-65213318D02*
X49077380Y-65129985D01*
X48505952Y-65201413D02*
X48458333Y-65254985D01*
X48410714Y-65356175D01*
X48410714Y-65499032D01*
X48458333Y-65588318D01*
X48553571Y-65624032D01*
X49077380Y-65558556D01*
X48410714Y-66118080D02*
X49077380Y-66034747D01*
X48505952Y-66106175D02*
X48458333Y-66159747D01*
X48410714Y-66260937D01*
X48410714Y-66403794D01*
X48458333Y-66493080D01*
X48553571Y-66528794D01*
X49077380Y-66463318D01*
X49029761Y-67326413D02*
X49077380Y-67225223D01*
X49077380Y-67034747D01*
X49029761Y-66945461D01*
X48934523Y-66909747D01*
X48553571Y-66957366D01*
X48458333Y-67016889D01*
X48410714Y-67118080D01*
X48410714Y-67308556D01*
X48458333Y-67397842D01*
X48553571Y-67433556D01*
X48648809Y-67421651D01*
X48744047Y-66933556D01*
X49077380Y-67939508D02*
X49029761Y-67850223D01*
X48934523Y-67814508D01*
X48077380Y-67921651D01*
X48553571Y-69147842D02*
X48553571Y-69481175D01*
X49077380Y-69558556D02*
X49077380Y-69082366D01*
X48077380Y-69207366D01*
X48077380Y-69683556D01*
X49077380Y-70129985D02*
X49029761Y-70040699D01*
X48934523Y-70004985D01*
X48077380Y-70112127D01*
X49029761Y-70897842D02*
X49077380Y-70796651D01*
X49077380Y-70606175D01*
X49029761Y-70516889D01*
X48934523Y-70481175D01*
X48553571Y-70528794D01*
X48458333Y-70588318D01*
X48410714Y-70689508D01*
X48410714Y-70879985D01*
X48458333Y-70969270D01*
X48553571Y-71004985D01*
X48648809Y-70993080D01*
X48744047Y-70504985D01*
X49029761Y-71802604D02*
X49077380Y-71701413D01*
X49077380Y-71510937D01*
X49029761Y-71421651D01*
X48982142Y-71379985D01*
X48886904Y-71344270D01*
X48601190Y-71379985D01*
X48505952Y-71439508D01*
X48458333Y-71493080D01*
X48410714Y-71594270D01*
X48410714Y-71784747D01*
X48458333Y-71874032D01*
X48410714Y-72165699D02*
X48410714Y-72546651D01*
X48077380Y-72350223D02*
X48934523Y-72243080D01*
X49029761Y-72278794D01*
X49077380Y-72368080D01*
X49077380Y-72463318D01*
X49077380Y-72796651D02*
X48410714Y-72879985D01*
X48601190Y-72856175D02*
X48505952Y-72915699D01*
X48458333Y-72969270D01*
X48410714Y-73070461D01*
X48410714Y-73165699D01*
X49077380Y-73415699D02*
X48410714Y-73499032D01*
X48077380Y-73540699D02*
X48125000Y-73487127D01*
X48172619Y-73528794D01*
X48125000Y-73582366D01*
X48077380Y-73540699D01*
X48172619Y-73528794D01*
X49029761Y-74326413D02*
X49077380Y-74225223D01*
X49077380Y-74034747D01*
X49029761Y-73945461D01*
X48982142Y-73903794D01*
X48886904Y-73868080D01*
X48601190Y-73903794D01*
X48505952Y-73963318D01*
X48458333Y-74016889D01*
X48410714Y-74118080D01*
X48410714Y-74308556D01*
X48458333Y-74397842D01*
X48791666Y-75499032D02*
X48791666Y-75975223D01*
X49077380Y-75368080D02*
X48077380Y-75826413D01*
X49077380Y-76034747D01*
X49029761Y-76802604D02*
X49077380Y-76701413D01*
X49077380Y-76510937D01*
X49029761Y-76421651D01*
X48982142Y-76379985D01*
X48886904Y-76344270D01*
X48601190Y-76379985D01*
X48505952Y-76439508D01*
X48458333Y-76493080D01*
X48410714Y-76594270D01*
X48410714Y-76784747D01*
X48458333Y-76874032D01*
X48410714Y-77165699D02*
X48410714Y-77546651D01*
X48077380Y-77350223D02*
X48934523Y-77243080D01*
X49029761Y-77278794D01*
X49077380Y-77368080D01*
X49077380Y-77463318D01*
X48410714Y-78308556D02*
X49077380Y-78225223D01*
X48410714Y-77879985D02*
X48934523Y-77814508D01*
X49029761Y-77850223D01*
X49077380Y-77939508D01*
X49077380Y-78082366D01*
X49029761Y-78183556D01*
X48982142Y-78237127D01*
X49077380Y-79129985D02*
X48553571Y-79195461D01*
X48458333Y-79159747D01*
X48410714Y-79070461D01*
X48410714Y-78879985D01*
X48458333Y-78778794D01*
X49029761Y-79135937D02*
X49077380Y-79034747D01*
X49077380Y-78796651D01*
X49029761Y-78707366D01*
X48934523Y-78671651D01*
X48839285Y-78683556D01*
X48744047Y-78743080D01*
X48696428Y-78844270D01*
X48696428Y-79082366D01*
X48648809Y-79183556D01*
X48410714Y-79546651D02*
X48410714Y-79927604D01*
X48077380Y-79731175D02*
X48934523Y-79624032D01*
X49029761Y-79659747D01*
X49077380Y-79749032D01*
X49077380Y-79844270D01*
X49077380Y-80320461D02*
X49029761Y-80231175D01*
X48982142Y-80189508D01*
X48886904Y-80153794D01*
X48601190Y-80189508D01*
X48505952Y-80249032D01*
X48458333Y-80302604D01*
X48410714Y-80403794D01*
X48410714Y-80546651D01*
X48458333Y-80635937D01*
X48505952Y-80677604D01*
X48601190Y-80713318D01*
X48886904Y-80677604D01*
X48982142Y-80618080D01*
X49029761Y-80564508D01*
X49077380Y-80463318D01*
X49077380Y-80320461D01*
X49077380Y-81082366D02*
X48410714Y-81165699D01*
X48601190Y-81141889D02*
X48505952Y-81201413D01*
X48458333Y-81254985D01*
X48410714Y-81356175D01*
X48410714Y-81451413D01*
X49458333Y-82701413D02*
X49410714Y-82659747D01*
X49267857Y-82582366D01*
X49172619Y-82546651D01*
X49029761Y-82516889D01*
X48791666Y-82499032D01*
X48601190Y-82522842D01*
X48363095Y-82600223D01*
X48220238Y-82665699D01*
X48125000Y-82725223D01*
X47982142Y-82838318D01*
X47934523Y-82891889D01*
X49077380Y-83129985D02*
X48077380Y-83254985D01*
X48791666Y-83499032D01*
X48077380Y-83921651D01*
X49077380Y-83796651D01*
X49077380Y-84415699D02*
X49029761Y-84326413D01*
X48982142Y-84284747D01*
X48886904Y-84249032D01*
X48601190Y-84284747D01*
X48505952Y-84344270D01*
X48458333Y-84397842D01*
X48410714Y-84499032D01*
X48410714Y-84641889D01*
X48458333Y-84731175D01*
X48505952Y-84772842D01*
X48601190Y-84808556D01*
X48886904Y-84772842D01*
X48982142Y-84713318D01*
X49029761Y-84659747D01*
X49077380Y-84558556D01*
X49077380Y-84415699D01*
X49029761Y-85135937D02*
X49077380Y-85225223D01*
X49077380Y-85415699D01*
X49029761Y-85516889D01*
X48934523Y-85576413D01*
X48886904Y-85582366D01*
X48791666Y-85546651D01*
X48744047Y-85457366D01*
X48744047Y-85314508D01*
X48696428Y-85225223D01*
X48601190Y-85189508D01*
X48553571Y-85195461D01*
X48458333Y-85254985D01*
X48410714Y-85356175D01*
X48410714Y-85499032D01*
X48458333Y-85588318D01*
X48410714Y-85927604D02*
X48410714Y-86308556D01*
X49077380Y-85987127D02*
X48220238Y-86094270D01*
X48125000Y-86153794D01*
X48077380Y-86254985D01*
X48077380Y-86350223D01*
X49029761Y-86945461D02*
X49077380Y-86844270D01*
X49077380Y-86653794D01*
X49029761Y-86564508D01*
X48934523Y-86528794D01*
X48553571Y-86576413D01*
X48458333Y-86635937D01*
X48410714Y-86737127D01*
X48410714Y-86927604D01*
X48458333Y-87016889D01*
X48553571Y-87052604D01*
X48648809Y-87040699D01*
X48744047Y-86552604D01*
X48410714Y-87356175D02*
X48410714Y-87737127D01*
X48077380Y-87540699D02*
X48934523Y-87433556D01*
X49029761Y-87469270D01*
X49077380Y-87558556D01*
X49077380Y-87653794D01*
X49458333Y-87844270D02*
X49410714Y-87897842D01*
X49267857Y-88010937D01*
X49172619Y-88070461D01*
X49029761Y-88135937D01*
X48791666Y-88213318D01*
X48601190Y-88237127D01*
X48363095Y-88219270D01*
X48220238Y-88189508D01*
X48125000Y-88153794D01*
X47982142Y-88076413D01*
X47934523Y-88034747D01*
D11*
G36*
X118067700Y-97525818D02*
G01*
X118613800Y-97511400D01*
X118628017Y-96863700D01*
X118642235Y-96216000D01*
X122042800Y-96216000D01*
X122042800Y-94946000D01*
X118642235Y-94946000D01*
X118628017Y-94298300D01*
X118613800Y-93650600D01*
X117521600Y-93621762D01*
X117521600Y-97540237D01*
X118067700Y-97525818D01*
G37*
X118067700Y-97525818D02*
X118613800Y-97511400D01*
X118628017Y-96863700D01*
X118642235Y-96216000D01*
X122042800Y-96216000D01*
X122042800Y-94946000D01*
X118642235Y-94946000D01*
X118628017Y-94298300D01*
X118613800Y-93650600D01*
X117521600Y-93621762D01*
X117521600Y-97540237D01*
X118067700Y-97525818D01*
G36*
X117551885Y-91709826D02*
G01*
X117623618Y-92160491D01*
X117754489Y-92589842D01*
X117805787Y-92712357D01*
X117877412Y-92866680D01*
X117932617Y-92975883D01*
X117958778Y-93015600D01*
X118006796Y-92991438D01*
X118122695Y-92926311D01*
X118287072Y-92831253D01*
X118413728Y-92756866D01*
X118624949Y-92626788D01*
X118755892Y-92531657D01*
X118817720Y-92462133D01*
X118823576Y-92413966D01*
X118793140Y-92326394D01*
X118739427Y-92174692D01*
X118673583Y-91990322D01*
X118667800Y-91974200D01*
X118591292Y-91708314D01*
X118546280Y-91438929D01*
X118533504Y-91189065D01*
X118553704Y-90981745D01*
X118607621Y-90839989D01*
X118630500Y-90813673D01*
X118752457Y-90748898D01*
X118861692Y-90729600D01*
X118937856Y-90742273D01*
X119002290Y-90788875D01*
X119060956Y-90882277D01*
X119119818Y-91035349D01*
X119184841Y-91260963D01*
X119261987Y-91571990D01*
X119272444Y-91616091D01*
X119401383Y-92084049D01*
X119547918Y-92458066D01*
X119718290Y-92745165D01*
X119918741Y-92952368D01*
X120155515Y-93086699D01*
X120434854Y-93155179D01*
X120651693Y-93167716D01*
X120849193Y-93155684D01*
X121042594Y-93125938D01*
X121093895Y-93113536D01*
X121296900Y-93018729D01*
X121506159Y-92858227D01*
X121689413Y-92660351D01*
X121792695Y-92499964D01*
X121912299Y-92186899D01*
X121993519Y-91807968D01*
X122033798Y-91392375D01*
X122030584Y-90969327D01*
X121981323Y-90568027D01*
X121967510Y-90501000D01*
X121916653Y-90300698D01*
X121850319Y-90080549D01*
X121777800Y-89867209D01*
X121708389Y-89687333D01*
X121651376Y-89567579D01*
X121632911Y-89541124D01*
X121576527Y-89547221D01*
X121457350Y-89594609D01*
X121298718Y-89670691D01*
X121123972Y-89762871D01*
X120956451Y-89858555D01*
X120819494Y-89945146D01*
X120736441Y-90010049D01*
X120722165Y-90032630D01*
X120740497Y-90096688D01*
X120788571Y-90225341D01*
X120851580Y-90380131D01*
X120962511Y-90696916D01*
X121032646Y-91012028D01*
X121062009Y-91308716D01*
X121050621Y-91570231D01*
X120998504Y-91779824D01*
X120905681Y-91920745D01*
X120849500Y-91957815D01*
X120726923Y-91989648D01*
X120621917Y-91958557D01*
X120529213Y-91856618D01*
X120443546Y-91675903D01*
X120359649Y-91408488D01*
X120286624Y-91110775D01*
X120193015Y-90727131D01*
X120102632Y-90427689D01*
X120008256Y-90195585D01*
X119902669Y-90013959D01*
X119778654Y-89865948D01*
X119736242Y-89825087D01*
X119467992Y-89642123D01*
X119166256Y-89544097D01*
X118848881Y-89528270D01*
X118533714Y-89591903D01*
X118238603Y-89732257D01*
X117981397Y-89946592D01*
X117849291Y-90114678D01*
X117687993Y-90440274D01*
X117584425Y-90828685D01*
X117538938Y-91258880D01*
X117551885Y-91709826D01*
G37*
X117551885Y-91709826D02*
X117623618Y-92160491D01*
X117754489Y-92589842D01*
X117805787Y-92712357D01*
X117877412Y-92866680D01*
X117932617Y-92975883D01*
X117958778Y-93015600D01*
X118006796Y-92991438D01*
X118122695Y-92926311D01*
X118287072Y-92831253D01*
X118413728Y-92756866D01*
X118624949Y-92626788D01*
X118755892Y-92531657D01*
X118817720Y-92462133D01*
X118823576Y-92413966D01*
X118793140Y-92326394D01*
X118739427Y-92174692D01*
X118673583Y-91990322D01*
X118667800Y-91974200D01*
X118591292Y-91708314D01*
X118546280Y-91438929D01*
X118533504Y-91189065D01*
X118553704Y-90981745D01*
X118607621Y-90839989D01*
X118630500Y-90813673D01*
X118752457Y-90748898D01*
X118861692Y-90729600D01*
X118937856Y-90742273D01*
X119002290Y-90788875D01*
X119060956Y-90882277D01*
X119119818Y-91035349D01*
X119184841Y-91260963D01*
X119261987Y-91571990D01*
X119272444Y-91616091D01*
X119401383Y-92084049D01*
X119547918Y-92458066D01*
X119718290Y-92745165D01*
X119918741Y-92952368D01*
X120155515Y-93086699D01*
X120434854Y-93155179D01*
X120651693Y-93167716D01*
X120849193Y-93155684D01*
X121042594Y-93125938D01*
X121093895Y-93113536D01*
X121296900Y-93018729D01*
X121506159Y-92858227D01*
X121689413Y-92660351D01*
X121792695Y-92499964D01*
X121912299Y-92186899D01*
X121993519Y-91807968D01*
X122033798Y-91392375D01*
X122030584Y-90969327D01*
X121981323Y-90568027D01*
X121967510Y-90501000D01*
X121916653Y-90300698D01*
X121850319Y-90080549D01*
X121777800Y-89867209D01*
X121708389Y-89687333D01*
X121651376Y-89567579D01*
X121632911Y-89541124D01*
X121576527Y-89547221D01*
X121457350Y-89594609D01*
X121298718Y-89670691D01*
X121123972Y-89762871D01*
X120956451Y-89858555D01*
X120819494Y-89945146D01*
X120736441Y-90010049D01*
X120722165Y-90032630D01*
X120740497Y-90096688D01*
X120788571Y-90225341D01*
X120851580Y-90380131D01*
X120962511Y-90696916D01*
X121032646Y-91012028D01*
X121062009Y-91308716D01*
X121050621Y-91570231D01*
X120998504Y-91779824D01*
X120905681Y-91920745D01*
X120849500Y-91957815D01*
X120726923Y-91989648D01*
X120621917Y-91958557D01*
X120529213Y-91856618D01*
X120443546Y-91675903D01*
X120359649Y-91408488D01*
X120286624Y-91110775D01*
X120193015Y-90727131D01*
X120102632Y-90427689D01*
X120008256Y-90195585D01*
X119902669Y-90013959D01*
X119778654Y-89865948D01*
X119736242Y-89825087D01*
X119467992Y-89642123D01*
X119166256Y-89544097D01*
X118848881Y-89528270D01*
X118533714Y-89591903D01*
X118238603Y-89732257D01*
X117981397Y-89946592D01*
X117849291Y-90114678D01*
X117687993Y-90440274D01*
X117584425Y-90828685D01*
X117538938Y-91258880D01*
X117551885Y-91709826D01*
G36*
X118945787Y-86259200D02*
G01*
X119393739Y-86259794D01*
X119751427Y-86263037D01*
X120030187Y-86271112D01*
X120241354Y-86286206D01*
X120396265Y-86310504D01*
X120506253Y-86346193D01*
X120582655Y-86395459D01*
X120636806Y-86460487D01*
X120680042Y-86543462D01*
X120703530Y-86598152D01*
X120767418Y-86849028D01*
X120735447Y-87077436D01*
X120656740Y-87229587D01*
X120595276Y-87311711D01*
X120525639Y-87377022D01*
X120436050Y-87427459D01*
X120314726Y-87464963D01*
X120149887Y-87491475D01*
X119929753Y-87508934D01*
X119642543Y-87519282D01*
X119276476Y-87524459D01*
X118855100Y-87526332D01*
X117521600Y-87529200D01*
X117521600Y-88752448D01*
X119134500Y-88737724D01*
X119582543Y-88733416D01*
X119941019Y-88728986D01*
X120221957Y-88723564D01*
X120437386Y-88716280D01*
X120599335Y-88706266D01*
X120719834Y-88692652D01*
X120810912Y-88674570D01*
X120884599Y-88651150D01*
X120952924Y-88621522D01*
X120989710Y-88603679D01*
X121328122Y-88382851D01*
X121608202Y-88091486D01*
X121823321Y-87746508D01*
X121966852Y-87364839D01*
X122032167Y-86963403D01*
X122012637Y-86559122D01*
X121922703Y-86221474D01*
X121850066Y-86043619D01*
X121780695Y-85894851D01*
X121734648Y-85815074D01*
X121527012Y-85573354D01*
X121291098Y-85352877D01*
X121060130Y-85183778D01*
X121001400Y-85150023D01*
X120747400Y-85014600D01*
X119134500Y-84999259D01*
X117521600Y-84983919D01*
X117521600Y-86259200D01*
X118945787Y-86259200D01*
G37*
X118945787Y-86259200D02*
X119393739Y-86259794D01*
X119751427Y-86263037D01*
X120030187Y-86271112D01*
X120241354Y-86286206D01*
X120396265Y-86310504D01*
X120506253Y-86346193D01*
X120582655Y-86395459D01*
X120636806Y-86460487D01*
X120680042Y-86543462D01*
X120703530Y-86598152D01*
X120767418Y-86849028D01*
X120735447Y-87077436D01*
X120656740Y-87229587D01*
X120595276Y-87311711D01*
X120525639Y-87377022D01*
X120436050Y-87427459D01*
X120314726Y-87464963D01*
X120149887Y-87491475D01*
X119929753Y-87508934D01*
X119642543Y-87519282D01*
X119276476Y-87524459D01*
X118855100Y-87526332D01*
X117521600Y-87529200D01*
X117521600Y-88752448D01*
X119134500Y-88737724D01*
X119582543Y-88733416D01*
X119941019Y-88728986D01*
X120221957Y-88723564D01*
X120437386Y-88716280D01*
X120599335Y-88706266D01*
X120719834Y-88692652D01*
X120810912Y-88674570D01*
X120884599Y-88651150D01*
X120952924Y-88621522D01*
X120989710Y-88603679D01*
X121328122Y-88382851D01*
X121608202Y-88091486D01*
X121823321Y-87746508D01*
X121966852Y-87364839D01*
X122032167Y-86963403D01*
X122012637Y-86559122D01*
X121922703Y-86221474D01*
X121850066Y-86043619D01*
X121780695Y-85894851D01*
X121734648Y-85815074D01*
X121527012Y-85573354D01*
X121291098Y-85352877D01*
X121060130Y-85183778D01*
X121001400Y-85150023D01*
X120747400Y-85014600D01*
X119134500Y-84999259D01*
X117521600Y-84983919D01*
X117521600Y-86259200D01*
X118945787Y-86259200D01*
G36*
X117531856Y-81852300D02*
G01*
X117537615Y-82281306D01*
X117546026Y-82623070D01*
X117560698Y-82891946D01*
X117585239Y-83102287D01*
X117623257Y-83268447D01*
X117678362Y-83404780D01*
X117754161Y-83525638D01*
X117854264Y-83645376D01*
X117982278Y-83778348D01*
X118027507Y-83823810D01*
X118202246Y-83986542D01*
X118354325Y-84091750D01*
X118521922Y-84163280D01*
X118617132Y-84192110D01*
X118852958Y-84250659D01*
X119036450Y-84272584D01*
X119209927Y-84258182D01*
X119415708Y-84207752D01*
X119449051Y-84197969D01*
X119752926Y-84055809D01*
X119954935Y-83896821D01*
X120191328Y-83675703D01*
X120901164Y-84081963D01*
X121161697Y-84231203D01*
X121408663Y-84372906D01*
X121620742Y-84494822D01*
X121776616Y-84584703D01*
X121826900Y-84613853D01*
X122042800Y-84739482D01*
X122042800Y-83370630D01*
X121357000Y-82983524D01*
X120671200Y-82596417D01*
X120671200Y-81839600D01*
X122042800Y-81839600D01*
X122042800Y-80569600D01*
X118537600Y-80569600D01*
X118537600Y-81788800D01*
X119502800Y-81788800D01*
X119502800Y-82197722D01*
X119491207Y-82467627D01*
X119458193Y-82669127D01*
X119428995Y-82749367D01*
X119301082Y-82898274D01*
X119125818Y-82977925D01*
X118932534Y-82985714D01*
X118750561Y-82919037D01*
X118639819Y-82819448D01*
X118588446Y-82736834D01*
X118557338Y-82631925D01*
X118541917Y-82478735D01*
X118537606Y-82251275D01*
X118537600Y-82239149D01*
X118537600Y-81788800D01*
X118537600Y-80569600D01*
X117516712Y-80569600D01*
X117531856Y-81852300D01*
G37*
X117531856Y-81852300D02*
X117537615Y-82281306D01*
X117546026Y-82623070D01*
X117560698Y-82891946D01*
X117585239Y-83102287D01*
X117623257Y-83268447D01*
X117678362Y-83404780D01*
X117754161Y-83525638D01*
X117854264Y-83645376D01*
X117982278Y-83778348D01*
X118027507Y-83823810D01*
X118202246Y-83986542D01*
X118354325Y-84091750D01*
X118521922Y-84163280D01*
X118617132Y-84192110D01*
X118852958Y-84250659D01*
X119036450Y-84272584D01*
X119209927Y-84258182D01*
X119415708Y-84207752D01*
X119449051Y-84197969D01*
X119752926Y-84055809D01*
X119954935Y-83896821D01*
X120191328Y-83675703D01*
X120901164Y-84081963D01*
X121161697Y-84231203D01*
X121408663Y-84372906D01*
X121620742Y-84494822D01*
X121776616Y-84584703D01*
X121826900Y-84613853D01*
X122042800Y-84739482D01*
X122042800Y-83370630D01*
X121357000Y-82983524D01*
X120671200Y-82596417D01*
X120671200Y-81839600D01*
X122042800Y-81839600D01*
X122042800Y-80569600D01*
X118537600Y-80569600D01*
X118537600Y-81788800D01*
X119502800Y-81788800D01*
X119502800Y-82197722D01*
X119491207Y-82467627D01*
X119458193Y-82669127D01*
X119428995Y-82749367D01*
X119301082Y-82898274D01*
X119125818Y-82977925D01*
X118932534Y-82985714D01*
X118750561Y-82919037D01*
X118639819Y-82819448D01*
X118588446Y-82736834D01*
X118557338Y-82631925D01*
X118541917Y-82478735D01*
X118537606Y-82251275D01*
X118537600Y-82239149D01*
X118537600Y-81788800D01*
X118537600Y-80569600D01*
X117516712Y-80569600D01*
X117531856Y-81852300D01*
G36*
X119248800Y-76861200D02*
G01*
X119248800Y-78436000D01*
X117521600Y-78436000D01*
X117521600Y-79706000D01*
X122042800Y-79706000D01*
X122042800Y-78436000D01*
X120315600Y-78436000D01*
X120315600Y-76861200D01*
X122042800Y-76861200D01*
X122042800Y-75591200D01*
X117521600Y-75591200D01*
X117521600Y-76861200D01*
X119248800Y-76861200D01*
G37*
X119248800Y-76861200D02*
X119248800Y-78436000D01*
X117521600Y-78436000D01*
X117521600Y-79706000D01*
X122042800Y-79706000D01*
X122042800Y-78436000D01*
X120315600Y-78436000D01*
X120315600Y-76861200D01*
X122042800Y-76861200D01*
X122042800Y-75591200D01*
X117521600Y-75591200D01*
X117521600Y-76861200D01*
X119248800Y-76861200D01*
G36*
X118019440Y-75134000D02*
G01*
X118290484Y-75127305D01*
X118478253Y-75107839D01*
X118574269Y-75076526D01*
X118578240Y-75073040D01*
X118609105Y-74987543D01*
X118629154Y-74803075D01*
X118638462Y-74518761D01*
X118639200Y-74387240D01*
X118639200Y-73762400D01*
X122042800Y-73762400D01*
X122042800Y-72543200D01*
X118642235Y-72543200D01*
X118628017Y-71895500D01*
X118613800Y-71247800D01*
X117521600Y-71218962D01*
X117521600Y-75134000D01*
X118019440Y-75134000D01*
G37*
X118019440Y-75134000D02*
X118290484Y-75127305D01*
X118478253Y-75107839D01*
X118574269Y-75076526D01*
X118578240Y-75073040D01*
X118609105Y-74987543D01*
X118629154Y-74803075D01*
X118638462Y-74518761D01*
X118639200Y-74387240D01*
X118639200Y-73762400D01*
X122042800Y-73762400D01*
X122042800Y-72543200D01*
X118642235Y-72543200D01*
X118628017Y-71895500D01*
X118613800Y-71247800D01*
X117521600Y-71218962D01*
X117521600Y-75134000D01*
X118019440Y-75134000D01*
G36*
X124167951Y-93103056D02*
G01*
X124227200Y-93117200D01*
X124309942Y-93085436D01*
X124328800Y-93041000D01*
X124286448Y-92978943D01*
X124227200Y-92964800D01*
X124144457Y-92996563D01*
X124125600Y-93041000D01*
X124167951Y-93103056D01*
G37*
X124167951Y-93103056D02*
X124227200Y-93117200D01*
X124309942Y-93085436D01*
X124328800Y-93041000D01*
X124286448Y-92978943D01*
X124227200Y-92964800D01*
X124144457Y-92996563D01*
X124125600Y-93041000D01*
X124167951Y-93103056D01*
G36*
X124168147Y-83252474D02*
G01*
X124227200Y-83262000D01*
X124309748Y-83240726D01*
X124328800Y-83211200D01*
X124286252Y-83169925D01*
X124227200Y-83160400D01*
X124144651Y-83181673D01*
X124125600Y-83211200D01*
X124168147Y-83252474D01*
G37*
X124168147Y-83252474D02*
X124227200Y-83262000D01*
X124309748Y-83240726D01*
X124328800Y-83211200D01*
X124286252Y-83169925D01*
X124227200Y-83160400D01*
X124144651Y-83181673D01*
X124125600Y-83211200D01*
X124168147Y-83252474D01*
G36*
X124192578Y-81023995D02*
G01*
X124222966Y-81026800D01*
X124310295Y-80994528D01*
X124328800Y-80946875D01*
X124290712Y-80885839D01*
X124244109Y-80883375D01*
X124159431Y-80925797D01*
X124140511Y-80984494D01*
X124192578Y-81023995D01*
G37*
X124192578Y-81023995D02*
X124222966Y-81026800D01*
X124310295Y-80994528D01*
X124328800Y-80946875D01*
X124290712Y-80885839D01*
X124244109Y-80883375D01*
X124159431Y-80925797D01*
X124140511Y-80984494D01*
X124192578Y-81023995D01*
G36*
X124167951Y-78320256D02*
G01*
X124227200Y-78334400D01*
X124309942Y-78302636D01*
X124328800Y-78258200D01*
X124286448Y-78196143D01*
X124227200Y-78182000D01*
X124144457Y-78213763D01*
X124125600Y-78258200D01*
X124167951Y-78320256D01*
G37*
X124167951Y-78320256D02*
X124227200Y-78334400D01*
X124309942Y-78302636D01*
X124328800Y-78258200D01*
X124286448Y-78196143D01*
X124227200Y-78182000D01*
X124144457Y-78213763D01*
X124125600Y-78258200D01*
X124167951Y-78320256D01*
G36*
X124130888Y-99181290D02*
G01*
X124219775Y-99200034D01*
X124401033Y-99215744D01*
X124589481Y-99223993D01*
X125053362Y-99238600D01*
X124818081Y-99500064D01*
X124690299Y-99652699D01*
X124612833Y-99765861D01*
X124587659Y-99830113D01*
X124616754Y-99836016D01*
X124702095Y-99774134D01*
X124774790Y-99706745D01*
X124966780Y-99519272D01*
X125308190Y-99748306D01*
X125492021Y-99864627D01*
X125603601Y-99917682D01*
X125648235Y-99909836D01*
X125649600Y-99900588D01*
X125609925Y-99834946D01*
X125506225Y-99738417D01*
X125370200Y-99638326D01*
X125228047Y-99538938D01*
X125127435Y-99459040D01*
X125090800Y-99417081D01*
X125135663Y-99335976D01*
X125247459Y-99263794D01*
X125391993Y-99219258D01*
X125463100Y-99213200D01*
X125584031Y-99200995D01*
X125647027Y-99170808D01*
X125649600Y-99162400D01*
X125600294Y-99141697D01*
X125458168Y-99125953D01*
X125231906Y-99115745D01*
X124930194Y-99111652D01*
X124887600Y-99111600D01*
X124593669Y-99115712D01*
X124365763Y-99126723D01*
X124209152Y-99142648D01*
X124129104Y-99161499D01*
X124130888Y-99181290D01*
G37*
X124130888Y-99181290D02*
X124219775Y-99200034D01*
X124401033Y-99215744D01*
X124589481Y-99223993D01*
X125053362Y-99238600D01*
X124818081Y-99500064D01*
X124690299Y-99652699D01*
X124612833Y-99765861D01*
X124587659Y-99830113D01*
X124616754Y-99836016D01*
X124702095Y-99774134D01*
X124774790Y-99706745D01*
X124966780Y-99519272D01*
X125308190Y-99748306D01*
X125492021Y-99864627D01*
X125603601Y-99917682D01*
X125648235Y-99909836D01*
X125649600Y-99900588D01*
X125609925Y-99834946D01*
X125506225Y-99738417D01*
X125370200Y-99638326D01*
X125228047Y-99538938D01*
X125127435Y-99459040D01*
X125090800Y-99417081D01*
X125135663Y-99335976D01*
X125247459Y-99263794D01*
X125391993Y-99219258D01*
X125463100Y-99213200D01*
X125584031Y-99200995D01*
X125647027Y-99170808D01*
X125649600Y-99162400D01*
X125600294Y-99141697D01*
X125458168Y-99125953D01*
X125231906Y-99115745D01*
X124930194Y-99111652D01*
X124887600Y-99111600D01*
X124593669Y-99115712D01*
X124365763Y-99126723D01*
X124209152Y-99142648D01*
X124129104Y-99161499D01*
X124130888Y-99181290D01*
G36*
X124133088Y-95788599D02*
G01*
X124144260Y-96003406D01*
X124161525Y-96143123D01*
X124192685Y-96234248D01*
X124245539Y-96303276D01*
X124298988Y-96352091D01*
X124470824Y-96443139D01*
X124648645Y-96441590D01*
X124807491Y-96349633D01*
X124848370Y-96303898D01*
X124910146Y-96241857D01*
X124937234Y-96249588D01*
X124937270Y-96250676D01*
X124962359Y-96300471D01*
X125045757Y-96342108D01*
X125202800Y-96381093D01*
X125393327Y-96414315D01*
X125545199Y-96434088D01*
X125622007Y-96428043D01*
X125647999Y-96391791D01*
X125649600Y-96367920D01*
X125626501Y-96313346D01*
X125543573Y-96277952D01*
X125380365Y-96253237D01*
X125371506Y-96252312D01*
X125207312Y-96230765D01*
X125083411Y-96206157D01*
X125041306Y-96191407D01*
X125015295Y-96127941D01*
X124996618Y-95991960D01*
X124989207Y-95812493D01*
X124989200Y-95806601D01*
X124989200Y-95454000D01*
X125319400Y-95454000D01*
X125491949Y-95446822D01*
X125610085Y-95427808D01*
X125649600Y-95403200D01*
X125600281Y-95382546D01*
X125458063Y-95366825D01*
X125231553Y-95356608D01*
X124929357Y-95352463D01*
X124882387Y-95352400D01*
X124278000Y-95352400D01*
X124278000Y-95454000D01*
X124836800Y-95454000D01*
X124836800Y-95784200D01*
X124829580Y-95983591D01*
X124803220Y-96112062D01*
X124750673Y-96199570D01*
X124735200Y-96216000D01*
X124596866Y-96305701D01*
X124459918Y-96294148D01*
X124370900Y-96233526D01*
X124317850Y-96160721D01*
X124288893Y-96046078D01*
X124278398Y-95863430D01*
X124278000Y-95801726D01*
X124278000Y-95454000D01*
X124278000Y-95352400D01*
X124115174Y-95352400D01*
X124133088Y-95788599D01*
G37*
X124133088Y-95788599D02*
X124144260Y-96003406D01*
X124161525Y-96143123D01*
X124192685Y-96234248D01*
X124245539Y-96303276D01*
X124298988Y-96352091D01*
X124470824Y-96443139D01*
X124648645Y-96441590D01*
X124807491Y-96349633D01*
X124848370Y-96303898D01*
X124910146Y-96241857D01*
X124937234Y-96249588D01*
X124937270Y-96250676D01*
X124962359Y-96300471D01*
X125045757Y-96342108D01*
X125202800Y-96381093D01*
X125393327Y-96414315D01*
X125545199Y-96434088D01*
X125622007Y-96428043D01*
X125647999Y-96391791D01*
X125649600Y-96367920D01*
X125626501Y-96313346D01*
X125543573Y-96277952D01*
X125380365Y-96253237D01*
X125371506Y-96252312D01*
X125207312Y-96230765D01*
X125083411Y-96206157D01*
X125041306Y-96191407D01*
X125015295Y-96127941D01*
X124996618Y-95991960D01*
X124989207Y-95812493D01*
X124989200Y-95806601D01*
X124989200Y-95454000D01*
X125319400Y-95454000D01*
X125491949Y-95446822D01*
X125610085Y-95427808D01*
X125649600Y-95403200D01*
X125600281Y-95382546D01*
X125458063Y-95366825D01*
X125231553Y-95356608D01*
X124929357Y-95352463D01*
X124882387Y-95352400D01*
X124278000Y-95352400D01*
X124278000Y-95454000D01*
X124836800Y-95454000D01*
X124836800Y-95784200D01*
X124829580Y-95983591D01*
X124803220Y-96112062D01*
X124750673Y-96199570D01*
X124735200Y-96216000D01*
X124596866Y-96305701D01*
X124459918Y-96294148D01*
X124370900Y-96233526D01*
X124317850Y-96160721D01*
X124288893Y-96046078D01*
X124278398Y-95863430D01*
X124278000Y-95801726D01*
X124278000Y-95454000D01*
X124278000Y-95352400D01*
X124115174Y-95352400D01*
X124133088Y-95788599D01*
G36*
X124599152Y-93075797D02*
G01*
X124659145Y-93098433D01*
X124779178Y-93111252D01*
X124975654Y-93116596D01*
X125116200Y-93117200D01*
X125359779Y-93114863D01*
X125518235Y-93106293D01*
X125607967Y-93089145D01*
X125645378Y-93061077D01*
X125649600Y-93041000D01*
X125633247Y-93006202D01*
X125573254Y-92983566D01*
X125453221Y-92970747D01*
X125256745Y-92965403D01*
X125116200Y-92964800D01*
X124872620Y-92967136D01*
X124714164Y-92975706D01*
X124624432Y-92992854D01*
X124587021Y-93020922D01*
X124582800Y-93041000D01*
X124599152Y-93075797D01*
G37*
X124599152Y-93075797D02*
X124659145Y-93098433D01*
X124779178Y-93111252D01*
X124975654Y-93116596D01*
X125116200Y-93117200D01*
X125359779Y-93114863D01*
X125518235Y-93106293D01*
X125607967Y-93089145D01*
X125645378Y-93061077D01*
X125649600Y-93041000D01*
X125633247Y-93006202D01*
X125573254Y-92983566D01*
X125453221Y-92970747D01*
X125256745Y-92965403D01*
X125116200Y-92964800D01*
X124872620Y-92967136D01*
X124714164Y-92975706D01*
X124624432Y-92992854D01*
X124587021Y-93020922D01*
X124582800Y-93041000D01*
X124599152Y-93075797D01*
G36*
X124545786Y-92735003D02*
G01*
X124608200Y-92761600D01*
X124671573Y-92719755D01*
X124684400Y-92667873D01*
X124716808Y-92546093D01*
X124820080Y-92464612D01*
X125003288Y-92419301D01*
X125259900Y-92406000D01*
X125463477Y-92402154D01*
X125583923Y-92388239D01*
X125639499Y-92360682D01*
X125649600Y-92329800D01*
X125633247Y-92295002D01*
X125573254Y-92272366D01*
X125453221Y-92259547D01*
X125256745Y-92254203D01*
X125116200Y-92253600D01*
X124872620Y-92255936D01*
X124714164Y-92264506D01*
X124624432Y-92281654D01*
X124587021Y-92309722D01*
X124582800Y-92329800D01*
X124611753Y-92397379D01*
X124636480Y-92406000D01*
X124651332Y-92440230D01*
X124611080Y-92518903D01*
X124542756Y-92649507D01*
X124545786Y-92735003D01*
G37*
X124545786Y-92735003D02*
X124608200Y-92761600D01*
X124671573Y-92719755D01*
X124684400Y-92667873D01*
X124716808Y-92546093D01*
X124820080Y-92464612D01*
X125003288Y-92419301D01*
X125259900Y-92406000D01*
X125463477Y-92402154D01*
X125583923Y-92388239D01*
X125639499Y-92360682D01*
X125649600Y-92329800D01*
X125633247Y-92295002D01*
X125573254Y-92272366D01*
X125453221Y-92259547D01*
X125256745Y-92254203D01*
X125116200Y-92253600D01*
X124872620Y-92255936D01*
X124714164Y-92264506D01*
X124624432Y-92281654D01*
X124587021Y-92309722D01*
X124582800Y-92329800D01*
X124611753Y-92397379D01*
X124636480Y-92406000D01*
X124651332Y-92440230D01*
X124611080Y-92518903D01*
X124542756Y-92649507D01*
X124545786Y-92735003D01*
G36*
X124139421Y-89514823D02*
G01*
X124190301Y-89535901D01*
X124292361Y-89549646D01*
X124459723Y-89557470D01*
X124706509Y-89560786D01*
X124887600Y-89561200D01*
X125185832Y-89559817D01*
X125396612Y-89554729D01*
X125534063Y-89544523D01*
X125612305Y-89527787D01*
X125645461Y-89503109D01*
X125649600Y-89485000D01*
X125629710Y-89444895D01*
X125557808Y-89421311D01*
X125415546Y-89410597D01*
X125266622Y-89408800D01*
X124883644Y-89408800D01*
X124913000Y-88519800D01*
X125281300Y-88504874D01*
X125460041Y-88491486D01*
X125590949Y-88469969D01*
X125648768Y-88444676D01*
X125649600Y-88441374D01*
X125600995Y-88422856D01*
X125463884Y-88408077D01*
X125251315Y-88397869D01*
X124976340Y-88393064D01*
X124887600Y-88392800D01*
X124577065Y-88396087D01*
X124340895Y-88405562D01*
X124187775Y-88420646D01*
X124126390Y-88440760D01*
X124125600Y-88443600D01*
X124172254Y-88470146D01*
X124295843Y-88488320D01*
X124455800Y-88494400D01*
X124786000Y-88494400D01*
X124786000Y-89408800D01*
X124455800Y-89408800D01*
X124270585Y-89413887D01*
X124167643Y-89432064D01*
X124128017Y-89467706D01*
X124125600Y-89485000D01*
X124139421Y-89514823D01*
G37*
X124139421Y-89514823D02*
X124190301Y-89535901D01*
X124292361Y-89549646D01*
X124459723Y-89557470D01*
X124706509Y-89560786D01*
X124887600Y-89561200D01*
X125185832Y-89559817D01*
X125396612Y-89554729D01*
X125534063Y-89544523D01*
X125612305Y-89527787D01*
X125645461Y-89503109D01*
X125649600Y-89485000D01*
X125629710Y-89444895D01*
X125557808Y-89421311D01*
X125415546Y-89410597D01*
X125266622Y-89408800D01*
X124883644Y-89408800D01*
X124913000Y-88519800D01*
X125281300Y-88504874D01*
X125460041Y-88491486D01*
X125590949Y-88469969D01*
X125648768Y-88444676D01*
X125649600Y-88441374D01*
X125600995Y-88422856D01*
X125463884Y-88408077D01*
X125251315Y-88397869D01*
X124976340Y-88393064D01*
X124887600Y-88392800D01*
X124577065Y-88396087D01*
X124340895Y-88405562D01*
X124187775Y-88420646D01*
X124126390Y-88440760D01*
X124125600Y-88443600D01*
X124172254Y-88470146D01*
X124295843Y-88488320D01*
X124455800Y-88494400D01*
X124786000Y-88494400D01*
X124786000Y-89408800D01*
X124455800Y-89408800D01*
X124270585Y-89413887D01*
X124167643Y-89432064D01*
X124128017Y-89467706D01*
X124125600Y-89485000D01*
X124139421Y-89514823D01*
G36*
X124545786Y-86435803D02*
G01*
X124608200Y-86462400D01*
X124670534Y-86420287D01*
X124684400Y-86363680D01*
X124728286Y-86241119D01*
X124861278Y-86158416D01*
X125085374Y-86114707D01*
X125279903Y-86106800D01*
X125477442Y-86102602D01*
X125592147Y-86087466D01*
X125642535Y-86057574D01*
X125649600Y-86030600D01*
X125633247Y-85995802D01*
X125573254Y-85973166D01*
X125453221Y-85960347D01*
X125256745Y-85955003D01*
X125116200Y-85954400D01*
X124872620Y-85956736D01*
X124714164Y-85965306D01*
X124624432Y-85982454D01*
X124587021Y-86010522D01*
X124582800Y-86030600D01*
X124611753Y-86098179D01*
X124636480Y-86106800D01*
X124651332Y-86141030D01*
X124611080Y-86219703D01*
X124542756Y-86350307D01*
X124545786Y-86435803D01*
G37*
X124545786Y-86435803D02*
X124608200Y-86462400D01*
X124670534Y-86420287D01*
X124684400Y-86363680D01*
X124728286Y-86241119D01*
X124861278Y-86158416D01*
X125085374Y-86114707D01*
X125279903Y-86106800D01*
X125477442Y-86102602D01*
X125592147Y-86087466D01*
X125642535Y-86057574D01*
X125649600Y-86030600D01*
X125633247Y-85995802D01*
X125573254Y-85973166D01*
X125453221Y-85960347D01*
X125256745Y-85955003D01*
X125116200Y-85954400D01*
X124872620Y-85956736D01*
X124714164Y-85965306D01*
X124624432Y-85982454D01*
X124587021Y-86010522D01*
X124582800Y-86030600D01*
X124611753Y-86098179D01*
X124636480Y-86106800D01*
X124651332Y-86141030D01*
X124611080Y-86219703D01*
X124542756Y-86350307D01*
X124545786Y-86435803D01*
G36*
X124562934Y-84218984D02*
G01*
X124656690Y-84356509D01*
X124727682Y-84417946D01*
X124807352Y-84455156D01*
X124922342Y-84474083D01*
X125099297Y-84480673D01*
X125215490Y-84481200D01*
X125432027Y-84477974D01*
X125564777Y-84466230D01*
X125631412Y-84442866D01*
X125649600Y-84405000D01*
X125631069Y-84366766D01*
X125563647Y-84343428D01*
X125429582Y-84331826D01*
X125221428Y-84328800D01*
X124985185Y-84323133D01*
X124830457Y-84304083D01*
X124737680Y-84268577D01*
X124713428Y-84248971D01*
X124640624Y-84116478D01*
X124665423Y-83969289D01*
X124758290Y-83843890D01*
X124835065Y-83778788D01*
X124922577Y-83741136D01*
X125050332Y-83723692D01*
X125247834Y-83719215D01*
X125266290Y-83719200D01*
X125459122Y-83712931D01*
X125593629Y-83695948D01*
X125649178Y-83670985D01*
X125649600Y-83668400D01*
X125601156Y-83645147D01*
X125465006Y-83628231D01*
X125254917Y-83618963D01*
X125116200Y-83617600D01*
X124872045Y-83622213D01*
X124694427Y-83635180D01*
X124597112Y-83655188D01*
X124582800Y-83668400D01*
X124622194Y-83716777D01*
X124639442Y-83719200D01*
X124658476Y-83753952D01*
X124614042Y-83844412D01*
X124539443Y-84035148D01*
X124562934Y-84218984D01*
G37*
X124562934Y-84218984D02*
X124656690Y-84356509D01*
X124727682Y-84417946D01*
X124807352Y-84455156D01*
X124922342Y-84474083D01*
X125099297Y-84480673D01*
X125215490Y-84481200D01*
X125432027Y-84477974D01*
X125564777Y-84466230D01*
X125631412Y-84442866D01*
X125649600Y-84405000D01*
X125631069Y-84366766D01*
X125563647Y-84343428D01*
X125429582Y-84331826D01*
X125221428Y-84328800D01*
X124985185Y-84323133D01*
X124830457Y-84304083D01*
X124737680Y-84268577D01*
X124713428Y-84248971D01*
X124640624Y-84116478D01*
X124665423Y-83969289D01*
X124758290Y-83843890D01*
X124835065Y-83778788D01*
X124922577Y-83741136D01*
X125050332Y-83723692D01*
X125247834Y-83719215D01*
X125266290Y-83719200D01*
X125459122Y-83712931D01*
X125593629Y-83695948D01*
X125649178Y-83670985D01*
X125649600Y-83668400D01*
X125601156Y-83645147D01*
X125465006Y-83628231D01*
X125254917Y-83618963D01*
X125116200Y-83617600D01*
X124872045Y-83622213D01*
X124694427Y-83635180D01*
X124597112Y-83655188D01*
X124582800Y-83668400D01*
X124622194Y-83716777D01*
X124639442Y-83719200D01*
X124658476Y-83753952D01*
X124614042Y-83844412D01*
X124539443Y-84035148D01*
X124562934Y-84218984D01*
G36*
X124631243Y-83234452D02*
G01*
X124767393Y-83251368D01*
X124977482Y-83260636D01*
X125116200Y-83262000D01*
X125360354Y-83257386D01*
X125537972Y-83244419D01*
X125635287Y-83224411D01*
X125649600Y-83211200D01*
X125601156Y-83187947D01*
X125465006Y-83171031D01*
X125254917Y-83161763D01*
X125116200Y-83160400D01*
X124872045Y-83165013D01*
X124694427Y-83177980D01*
X124597112Y-83197988D01*
X124582800Y-83211200D01*
X124631243Y-83234452D01*
G37*
X124631243Y-83234452D02*
X124767393Y-83251368D01*
X124977482Y-83260636D01*
X125116200Y-83262000D01*
X125360354Y-83257386D01*
X125537972Y-83244419D01*
X125635287Y-83224411D01*
X125649600Y-83211200D01*
X125601156Y-83187947D01*
X125465006Y-83171031D01*
X125254917Y-83161763D01*
X125116200Y-83160400D01*
X124872045Y-83165013D01*
X124694427Y-83177980D01*
X124597112Y-83197988D01*
X124582800Y-83211200D01*
X124631243Y-83234452D01*
G36*
X124139421Y-82758423D02*
G01*
X124190301Y-82779501D01*
X124292361Y-82793246D01*
X124459723Y-82801070D01*
X124706509Y-82804386D01*
X124887600Y-82804800D01*
X125185832Y-82803417D01*
X125396612Y-82798329D01*
X125534063Y-82788123D01*
X125612305Y-82771387D01*
X125645461Y-82746709D01*
X125649600Y-82728600D01*
X125635778Y-82698776D01*
X125584898Y-82677698D01*
X125482838Y-82663953D01*
X125315476Y-82656129D01*
X125068690Y-82652813D01*
X124887600Y-82652400D01*
X124589367Y-82653782D01*
X124378587Y-82658870D01*
X124241136Y-82669076D01*
X124162894Y-82685812D01*
X124129738Y-82710490D01*
X124125600Y-82728600D01*
X124139421Y-82758423D01*
G37*
X124139421Y-82758423D02*
X124190301Y-82779501D01*
X124292361Y-82793246D01*
X124459723Y-82801070D01*
X124706509Y-82804386D01*
X124887600Y-82804800D01*
X125185832Y-82803417D01*
X125396612Y-82798329D01*
X125534063Y-82788123D01*
X125612305Y-82771387D01*
X125645461Y-82746709D01*
X125649600Y-82728600D01*
X125635778Y-82698776D01*
X125584898Y-82677698D01*
X125482838Y-82663953D01*
X125315476Y-82656129D01*
X125068690Y-82652813D01*
X124887600Y-82652400D01*
X124589367Y-82653782D01*
X124378587Y-82658870D01*
X124241136Y-82669076D01*
X124162894Y-82685812D01*
X124129738Y-82710490D01*
X124125600Y-82728600D01*
X124139421Y-82758423D01*
G36*
X124631243Y-80999252D02*
G01*
X124767393Y-81016168D01*
X124977482Y-81025436D01*
X125116200Y-81026800D01*
X125360354Y-81022186D01*
X125537972Y-81009219D01*
X125635287Y-80989211D01*
X125649600Y-80976000D01*
X125601156Y-80952747D01*
X125465006Y-80935831D01*
X125254917Y-80926563D01*
X125116200Y-80925200D01*
X124872045Y-80929813D01*
X124694427Y-80942780D01*
X124597112Y-80962788D01*
X124582800Y-80976000D01*
X124631243Y-80999252D01*
G37*
X124631243Y-80999252D02*
X124767393Y-81016168D01*
X124977482Y-81025436D01*
X125116200Y-81026800D01*
X125360354Y-81022186D01*
X125537972Y-81009219D01*
X125635287Y-80989211D01*
X125649600Y-80976000D01*
X125601156Y-80952747D01*
X125465006Y-80935831D01*
X125254917Y-80926563D01*
X125116200Y-80925200D01*
X124872045Y-80929813D01*
X124694427Y-80942780D01*
X124597112Y-80962788D01*
X124582800Y-80976000D01*
X124631243Y-80999252D01*
G36*
X124599152Y-78292997D02*
G01*
X124659145Y-78315633D01*
X124779178Y-78328452D01*
X124975654Y-78333796D01*
X125116200Y-78334400D01*
X125359779Y-78332063D01*
X125518235Y-78323493D01*
X125607967Y-78306345D01*
X125645378Y-78278277D01*
X125649600Y-78258200D01*
X125633247Y-78223402D01*
X125573254Y-78200766D01*
X125453221Y-78187947D01*
X125256745Y-78182603D01*
X125116200Y-78182000D01*
X124872620Y-78184336D01*
X124714164Y-78192906D01*
X124624432Y-78210054D01*
X124587021Y-78238122D01*
X124582800Y-78258200D01*
X124599152Y-78292997D01*
G37*
X124599152Y-78292997D02*
X124659145Y-78315633D01*
X124779178Y-78328452D01*
X124975654Y-78333796D01*
X125116200Y-78334400D01*
X125359779Y-78332063D01*
X125518235Y-78323493D01*
X125607967Y-78306345D01*
X125645378Y-78278277D01*
X125649600Y-78258200D01*
X125633247Y-78223402D01*
X125573254Y-78200766D01*
X125453221Y-78187947D01*
X125256745Y-78182603D01*
X125116200Y-78182000D01*
X124872620Y-78184336D01*
X124714164Y-78192906D01*
X124624432Y-78210054D01*
X124587021Y-78238122D01*
X124582800Y-78258200D01*
X124599152Y-78292997D01*
G36*
X124555255Y-75219340D02*
G01*
X124608527Y-75364375D01*
X124683246Y-75438182D01*
X124775340Y-75462768D01*
X124927001Y-75479293D01*
X125111676Y-75487741D01*
X125302810Y-75488094D01*
X125473851Y-75480336D01*
X125598244Y-75464450D01*
X125649435Y-75440418D01*
X125649600Y-75438800D01*
X125602070Y-75413642D01*
X125472308Y-75395963D01*
X125279555Y-75388169D01*
X125243200Y-75388000D01*
X125027490Y-75383749D01*
X124887009Y-75367511D01*
X124795612Y-75334056D01*
X124735200Y-75286400D01*
X124659089Y-75175811D01*
X124633600Y-75083200D01*
X124668077Y-74972611D01*
X124735200Y-74880000D01*
X124805067Y-74827135D01*
X124901080Y-74796074D01*
X125049386Y-74781589D01*
X125243200Y-74778400D01*
X125451720Y-74774810D01*
X125576861Y-74761788D01*
X125636662Y-74735950D01*
X125649600Y-74702200D01*
X125633247Y-74667402D01*
X125573254Y-74644766D01*
X125453221Y-74631947D01*
X125256745Y-74626603D01*
X125116200Y-74626000D01*
X124872620Y-74628336D01*
X124714164Y-74636906D01*
X124624432Y-74654054D01*
X124587021Y-74682122D01*
X124582800Y-74702200D01*
X124610850Y-74769793D01*
X124634771Y-74778400D01*
X124647473Y-74813963D01*
X124606982Y-74900063D01*
X124603675Y-74905175D01*
X124551639Y-75052881D01*
X124555255Y-75219340D01*
G37*
X124555255Y-75219340D02*
X124608527Y-75364375D01*
X124683246Y-75438182D01*
X124775340Y-75462768D01*
X124927001Y-75479293D01*
X125111676Y-75487741D01*
X125302810Y-75488094D01*
X125473851Y-75480336D01*
X125598244Y-75464450D01*
X125649435Y-75440418D01*
X125649600Y-75438800D01*
X125602070Y-75413642D01*
X125472308Y-75395963D01*
X125279555Y-75388169D01*
X125243200Y-75388000D01*
X125027490Y-75383749D01*
X124887009Y-75367511D01*
X124795612Y-75334056D01*
X124735200Y-75286400D01*
X124659089Y-75175811D01*
X124633600Y-75083200D01*
X124668077Y-74972611D01*
X124735200Y-74880000D01*
X124805067Y-74827135D01*
X124901080Y-74796074D01*
X125049386Y-74781589D01*
X125243200Y-74778400D01*
X125451720Y-74774810D01*
X125576861Y-74761788D01*
X125636662Y-74735950D01*
X125649600Y-74702200D01*
X125633247Y-74667402D01*
X125573254Y-74644766D01*
X125453221Y-74631947D01*
X125256745Y-74626603D01*
X125116200Y-74626000D01*
X124872620Y-74628336D01*
X124714164Y-74636906D01*
X124624432Y-74654054D01*
X124587021Y-74682122D01*
X124582800Y-74702200D01*
X124610850Y-74769793D01*
X124634771Y-74778400D01*
X124647473Y-74813963D01*
X124606982Y-74900063D01*
X124603675Y-74905175D01*
X124551639Y-75052881D01*
X124555255Y-75219340D01*
G36*
X124585307Y-73251511D02*
G01*
X124608200Y-73254400D01*
X124671573Y-73212555D01*
X124684400Y-73160673D01*
X124716808Y-73038893D01*
X124820080Y-72957412D01*
X125003288Y-72912101D01*
X125259900Y-72898800D01*
X125463477Y-72894954D01*
X125583923Y-72881039D01*
X125639499Y-72853482D01*
X125649600Y-72822600D01*
X125633247Y-72787802D01*
X125573254Y-72765166D01*
X125453221Y-72752347D01*
X125256745Y-72747003D01*
X125116200Y-72746400D01*
X124872620Y-72748736D01*
X124714164Y-72757306D01*
X124624432Y-72774454D01*
X124587021Y-72802522D01*
X124582800Y-72822600D01*
X124614381Y-72890134D01*
X124641473Y-72898800D01*
X124659633Y-72928144D01*
X124616073Y-72991700D01*
X124548212Y-73101620D01*
X124537651Y-73198404D01*
X124585307Y-73251511D01*
G37*
X124585307Y-73251511D02*
X124608200Y-73254400D01*
X124671573Y-73212555D01*
X124684400Y-73160673D01*
X124716808Y-73038893D01*
X124820080Y-72957412D01*
X125003288Y-72912101D01*
X125259900Y-72898800D01*
X125463477Y-72894954D01*
X125583923Y-72881039D01*
X125639499Y-72853482D01*
X125649600Y-72822600D01*
X125633247Y-72787802D01*
X125573254Y-72765166D01*
X125453221Y-72752347D01*
X125256745Y-72747003D01*
X125116200Y-72746400D01*
X124872620Y-72748736D01*
X124714164Y-72757306D01*
X124624432Y-72774454D01*
X124587021Y-72802522D01*
X124582800Y-72822600D01*
X124614381Y-72890134D01*
X124641473Y-72898800D01*
X124659633Y-72928144D01*
X124616073Y-72991700D01*
X124548212Y-73101620D01*
X124537651Y-73198404D01*
X124585307Y-73251511D01*
G36*
X124127751Y-72434570D02*
G01*
X124135656Y-72600292D01*
X124151485Y-72696586D01*
X124177412Y-72739507D01*
X124201800Y-72746400D01*
X124252024Y-72716482D01*
X124274901Y-72614758D01*
X124278000Y-72517800D01*
X124278000Y-72289200D01*
X124963800Y-72289200D01*
X125244789Y-72287592D01*
X125439001Y-72281674D01*
X125561222Y-72269803D01*
X125626240Y-72250335D01*
X125648843Y-72221628D01*
X125649600Y-72213000D01*
X125635105Y-72181723D01*
X125581747Y-72160126D01*
X125474713Y-72146553D01*
X125299187Y-72139354D01*
X125040359Y-72136876D01*
X124966583Y-72136800D01*
X124283566Y-72136800D01*
X124268083Y-71899470D01*
X124246226Y-71752455D01*
X124208672Y-71657830D01*
X124189100Y-71641237D01*
X124159977Y-71656864D01*
X124140663Y-71734665D01*
X124129717Y-71886945D01*
X124125699Y-72126005D01*
X124125600Y-72183366D01*
X124127751Y-72434570D01*
G37*
X124127751Y-72434570D02*
X124135656Y-72600292D01*
X124151485Y-72696586D01*
X124177412Y-72739507D01*
X124201800Y-72746400D01*
X124252024Y-72716482D01*
X124274901Y-72614758D01*
X124278000Y-72517800D01*
X124278000Y-72289200D01*
X124963800Y-72289200D01*
X125244789Y-72287592D01*
X125439001Y-72281674D01*
X125561222Y-72269803D01*
X125626240Y-72250335D01*
X125648843Y-72221628D01*
X125649600Y-72213000D01*
X125635105Y-72181723D01*
X125581747Y-72160126D01*
X125474713Y-72146553D01*
X125299187Y-72139354D01*
X125040359Y-72136876D01*
X124966583Y-72136800D01*
X124283566Y-72136800D01*
X124268083Y-71899470D01*
X124246226Y-71752455D01*
X124208672Y-71657830D01*
X124189100Y-71641237D01*
X124159977Y-71656864D01*
X124140663Y-71734665D01*
X124129717Y-71886945D01*
X124125699Y-72126005D01*
X124125600Y-72183366D01*
X124127751Y-72434570D01*
G36*
X124321614Y-101486077D02*
G01*
X124409755Y-101499200D01*
X124527695Y-101533174D01*
X124568080Y-101600800D01*
X124608289Y-101683153D01*
X124639524Y-101702400D01*
X124676001Y-101659800D01*
X124684400Y-101600800D01*
X124692435Y-101551399D01*
X124729786Y-101521223D01*
X124816317Y-101505600D01*
X124971897Y-101499853D01*
X125116200Y-101499200D01*
X125334868Y-101502539D01*
X125469750Y-101517013D01*
X125538563Y-101549300D01*
X125559025Y-101606083D01*
X125554015Y-101664300D01*
X125589389Y-101697982D01*
X125624200Y-101702400D01*
X125683165Y-101661461D01*
X125693083Y-101558159D01*
X125666756Y-101461100D01*
X125612606Y-101427556D01*
X125477043Y-101406913D01*
X125251553Y-101398098D01*
X125162766Y-101397600D01*
X124933871Y-101394834D01*
X124789383Y-101384725D01*
X124712217Y-101364549D01*
X124685286Y-101331585D01*
X124684400Y-101321400D01*
X124659856Y-101253755D01*
X124639035Y-101245200D01*
X124583501Y-101285627D01*
X124564429Y-101321400D01*
X124496771Y-101379390D01*
X124406594Y-101397600D01*
X124310365Y-101414792D01*
X124278000Y-101448400D01*
X124321614Y-101486077D01*
G37*
X124321614Y-101486077D02*
X124409755Y-101499200D01*
X124527695Y-101533174D01*
X124568080Y-101600800D01*
X124608289Y-101683153D01*
X124639524Y-101702400D01*
X124676001Y-101659800D01*
X124684400Y-101600800D01*
X124692435Y-101551399D01*
X124729786Y-101521223D01*
X124816317Y-101505600D01*
X124971897Y-101499853D01*
X125116200Y-101499200D01*
X125334868Y-101502539D01*
X125469750Y-101517013D01*
X125538563Y-101549300D01*
X125559025Y-101606083D01*
X125554015Y-101664300D01*
X125589389Y-101697982D01*
X125624200Y-101702400D01*
X125683165Y-101661461D01*
X125693083Y-101558159D01*
X125666756Y-101461100D01*
X125612606Y-101427556D01*
X125477043Y-101406913D01*
X125251553Y-101398098D01*
X125162766Y-101397600D01*
X124933871Y-101394834D01*
X124789383Y-101384725D01*
X124712217Y-101364549D01*
X124685286Y-101331585D01*
X124684400Y-101321400D01*
X124659856Y-101253755D01*
X124639035Y-101245200D01*
X124583501Y-101285627D01*
X124564429Y-101321400D01*
X124496771Y-101379390D01*
X124406594Y-101397600D01*
X124310365Y-101414792D01*
X124278000Y-101448400D01*
X124321614Y-101486077D01*
G36*
X124553391Y-100708296D02*
G01*
X124629083Y-100887731D01*
X124782060Y-101009719D01*
X124979155Y-101073011D01*
X125141600Y-101105500D01*
X125141600Y-100667350D01*
X125146799Y-100468137D01*
X125160750Y-100317120D01*
X125180985Y-100236642D01*
X125190009Y-100229200D01*
X125329901Y-100267863D01*
X125459722Y-100361909D01*
X125534142Y-100478426D01*
X125534351Y-100479209D01*
X125555792Y-100649754D01*
X125504852Y-100788141D01*
X125433331Y-100876699D01*
X125362539Y-100976670D01*
X125371241Y-101025875D01*
X125453099Y-101012495D01*
X125495280Y-100992227D01*
X125621254Y-100871618D01*
X125684766Y-100695065D01*
X125678160Y-100492173D01*
X125649112Y-100397261D01*
X125536916Y-100248365D01*
X125351445Y-100152408D01*
X125116200Y-100119133D01*
X125012077Y-100134475D01*
X125012077Y-100229200D01*
X125025780Y-100275730D01*
X125035740Y-100398271D01*
X125039968Y-100571251D01*
X125040000Y-100588333D01*
X125037901Y-100775031D01*
X125027181Y-100880991D01*
X125001202Y-100927052D01*
X124953326Y-100934057D01*
X124930796Y-100931233D01*
X124795896Y-100865588D01*
X124695638Y-100736737D01*
X124654562Y-100582571D01*
X124661732Y-100515799D01*
X124726361Y-100406516D01*
X124841964Y-100302055D01*
X124966604Y-100236721D01*
X125012077Y-100229200D01*
X125012077Y-100134475D01*
X124866129Y-100155982D01*
X124681453Y-100260352D01*
X124571022Y-100422980D01*
X124543685Y-100634600D01*
X124553391Y-100708296D01*
G37*
X124553391Y-100708296D02*
X124629083Y-100887731D01*
X124782060Y-101009719D01*
X124979155Y-101073011D01*
X125141600Y-101105500D01*
X125141600Y-100667350D01*
X125146799Y-100468137D01*
X125160750Y-100317120D01*
X125180985Y-100236642D01*
X125190009Y-100229200D01*
X125329901Y-100267863D01*
X125459722Y-100361909D01*
X125534142Y-100478426D01*
X125534351Y-100479209D01*
X125555792Y-100649754D01*
X125504852Y-100788141D01*
X125433331Y-100876699D01*
X125362539Y-100976670D01*
X125371241Y-101025875D01*
X125453099Y-101012495D01*
X125495280Y-100992227D01*
X125621254Y-100871618D01*
X125684766Y-100695065D01*
X125678160Y-100492173D01*
X125649112Y-100397261D01*
X125536916Y-100248365D01*
X125351445Y-100152408D01*
X125116200Y-100119133D01*
X125012077Y-100134475D01*
X125012077Y-100229200D01*
X125025780Y-100275730D01*
X125035740Y-100398271D01*
X125039968Y-100571251D01*
X125040000Y-100588333D01*
X125037901Y-100775031D01*
X125027181Y-100880991D01*
X125001202Y-100927052D01*
X124953326Y-100934057D01*
X124930796Y-100931233D01*
X124795896Y-100865588D01*
X124695638Y-100736737D01*
X124654562Y-100582571D01*
X124661732Y-100515799D01*
X124726361Y-100406516D01*
X124841964Y-100302055D01*
X124966604Y-100236721D01*
X125012077Y-100229200D01*
X125012077Y-100134475D01*
X124866129Y-100155982D01*
X124681453Y-100260352D01*
X124571022Y-100422980D01*
X124543685Y-100634600D01*
X124553391Y-100708296D01*
G36*
X124620143Y-98640236D02*
G01*
X124656690Y-98682109D01*
X124777571Y-98781361D01*
X124857102Y-98800105D01*
X124887507Y-98736707D01*
X124887600Y-98730600D01*
X124860790Y-98662987D01*
X124837971Y-98654400D01*
X124759862Y-98610082D01*
X124694047Y-98502753D01*
X124658384Y-98370848D01*
X124662634Y-98277005D01*
X124742334Y-98138609D01*
X124882306Y-98047525D01*
X125055619Y-98004772D01*
X125235344Y-98011369D01*
X125394551Y-98068336D01*
X125506309Y-98176693D01*
X125534351Y-98244009D01*
X125556985Y-98411553D01*
X125508724Y-98537808D01*
X125407451Y-98639451D01*
X125319083Y-98733494D01*
X125315118Y-98789386D01*
X125392676Y-98795581D01*
X125443128Y-98782438D01*
X125570970Y-98693360D01*
X125655732Y-98540106D01*
X125686419Y-98354902D01*
X125652062Y-98170036D01*
X125539338Y-98014811D01*
X125366570Y-97914846D01*
X125160490Y-97872555D01*
X124947830Y-97890354D01*
X124755323Y-97970657D01*
X124636323Y-98078275D01*
X124546257Y-98263824D01*
X124541216Y-98461590D01*
X124620143Y-98640236D01*
G37*
X124620143Y-98640236D02*
X124656690Y-98682109D01*
X124777571Y-98781361D01*
X124857102Y-98800105D01*
X124887507Y-98736707D01*
X124887600Y-98730600D01*
X124860790Y-98662987D01*
X124837971Y-98654400D01*
X124759862Y-98610082D01*
X124694047Y-98502753D01*
X124658384Y-98370848D01*
X124662634Y-98277005D01*
X124742334Y-98138609D01*
X124882306Y-98047525D01*
X125055619Y-98004772D01*
X125235344Y-98011369D01*
X125394551Y-98068336D01*
X125506309Y-98176693D01*
X125534351Y-98244009D01*
X125556985Y-98411553D01*
X125508724Y-98537808D01*
X125407451Y-98639451D01*
X125319083Y-98733494D01*
X125315118Y-98789386D01*
X125392676Y-98795581D01*
X125443128Y-98782438D01*
X125570970Y-98693360D01*
X125655732Y-98540106D01*
X125686419Y-98354902D01*
X125652062Y-98170036D01*
X125539338Y-98014811D01*
X125366570Y-97914846D01*
X125160490Y-97872555D01*
X124947830Y-97890354D01*
X124755323Y-97970657D01*
X124636323Y-98078275D01*
X124546257Y-98263824D01*
X124541216Y-98461590D01*
X124620143Y-98640236D01*
G36*
X124567915Y-97327656D02*
G01*
X124662062Y-97480374D01*
X124833190Y-97611143D01*
X125045933Y-97670431D01*
X125269370Y-97657897D01*
X125472579Y-97573200D01*
X125569428Y-97490388D01*
X125651659Y-97336398D01*
X125680100Y-97145270D01*
X125649046Y-96967825D01*
X125632032Y-96932791D01*
X125485081Y-96775017D01*
X125272405Y-96689369D01*
X125126377Y-96675000D01*
X125106912Y-96677874D01*
X125106912Y-96817133D01*
X125268557Y-96830421D01*
X125395598Y-96863989D01*
X125429076Y-96883102D01*
X125534332Y-97025597D01*
X125565615Y-97194479D01*
X125522936Y-97356009D01*
X125428894Y-97462063D01*
X125258337Y-97528908D01*
X125056047Y-97535254D01*
X124865596Y-97484346D01*
X124758290Y-97412109D01*
X124654539Y-97263926D01*
X124649582Y-97116983D01*
X124743150Y-96957975D01*
X124748918Y-96951199D01*
X124844509Y-96864394D01*
X124960511Y-96825150D01*
X125106912Y-96817133D01*
X125106912Y-96677874D01*
X124887326Y-96710301D01*
X124702306Y-96809951D01*
X124580967Y-96957217D01*
X124532954Y-97135363D01*
X124567915Y-97327656D01*
G37*
X124567915Y-97327656D02*
X124662062Y-97480374D01*
X124833190Y-97611143D01*
X125045933Y-97670431D01*
X125269370Y-97657897D01*
X125472579Y-97573200D01*
X125569428Y-97490388D01*
X125651659Y-97336398D01*
X125680100Y-97145270D01*
X125649046Y-96967825D01*
X125632032Y-96932791D01*
X125485081Y-96775017D01*
X125272405Y-96689369D01*
X125126377Y-96675000D01*
X125106912Y-96677874D01*
X125106912Y-96817133D01*
X125268557Y-96830421D01*
X125395598Y-96863989D01*
X125429076Y-96883102D01*
X125534332Y-97025597D01*
X125565615Y-97194479D01*
X125522936Y-97356009D01*
X125428894Y-97462063D01*
X125258337Y-97528908D01*
X125056047Y-97535254D01*
X124865596Y-97484346D01*
X124758290Y-97412109D01*
X124654539Y-97263926D01*
X124649582Y-97116983D01*
X124743150Y-96957975D01*
X124748918Y-96951199D01*
X124844509Y-96864394D01*
X124960511Y-96825150D01*
X125106912Y-96817133D01*
X125106912Y-96677874D01*
X124887326Y-96710301D01*
X124702306Y-96809951D01*
X124580967Y-96957217D01*
X124532954Y-97135363D01*
X124567915Y-97327656D01*
G36*
X124174905Y-94357102D02*
G01*
X124317031Y-94372846D01*
X124543293Y-94383054D01*
X124845005Y-94387147D01*
X124887600Y-94387200D01*
X125198134Y-94383912D01*
X125434304Y-94374437D01*
X125587424Y-94359353D01*
X125648809Y-94339239D01*
X125649600Y-94336400D01*
X125607945Y-94292586D01*
X125565526Y-94285600D01*
X125509738Y-94278215D01*
X125525393Y-94238745D01*
X125564923Y-94193366D01*
X125649596Y-94037566D01*
X125679476Y-93847616D01*
X125651950Y-93694135D01*
X125535868Y-93538797D01*
X125344607Y-93448561D01*
X125159022Y-93428328D01*
X125159022Y-93531162D01*
X125340193Y-93576956D01*
X125387944Y-93605235D01*
X125524689Y-93749123D01*
X125566507Y-93911074D01*
X125512780Y-94073162D01*
X125407903Y-94185225D01*
X125238086Y-94270355D01*
X125059872Y-94283438D01*
X124893183Y-94236167D01*
X124757940Y-94140236D01*
X124674066Y-94007338D01*
X124661482Y-93849168D01*
X124688692Y-93763065D01*
X124799166Y-93631914D01*
X124967311Y-93552047D01*
X125159022Y-93531162D01*
X125159022Y-93428328D01*
X125100988Y-93422000D01*
X124926018Y-93430809D01*
X124808228Y-93467513D01*
X124703971Y-93547525D01*
X124680492Y-93570492D01*
X124561116Y-93741953D01*
X124538743Y-93927752D01*
X124609504Y-94135722D01*
X124687009Y-94285600D01*
X124406304Y-94285600D01*
X124252889Y-94293914D01*
X124150931Y-94315371D01*
X124125600Y-94336400D01*
X124174905Y-94357102D01*
G37*
X124174905Y-94357102D02*
X124317031Y-94372846D01*
X124543293Y-94383054D01*
X124845005Y-94387147D01*
X124887600Y-94387200D01*
X125198134Y-94383912D01*
X125434304Y-94374437D01*
X125587424Y-94359353D01*
X125648809Y-94339239D01*
X125649600Y-94336400D01*
X125607945Y-94292586D01*
X125565526Y-94285600D01*
X125509738Y-94278215D01*
X125525393Y-94238745D01*
X125564923Y-94193366D01*
X125649596Y-94037566D01*
X125679476Y-93847616D01*
X125651950Y-93694135D01*
X125535868Y-93538797D01*
X125344607Y-93448561D01*
X125159022Y-93428328D01*
X125159022Y-93531162D01*
X125340193Y-93576956D01*
X125387944Y-93605235D01*
X125524689Y-93749123D01*
X125566507Y-93911074D01*
X125512780Y-94073162D01*
X125407903Y-94185225D01*
X125238086Y-94270355D01*
X125059872Y-94283438D01*
X124893183Y-94236167D01*
X124757940Y-94140236D01*
X124674066Y-94007338D01*
X124661482Y-93849168D01*
X124688692Y-93763065D01*
X124799166Y-93631914D01*
X124967311Y-93552047D01*
X125159022Y-93531162D01*
X125159022Y-93428328D01*
X125100988Y-93422000D01*
X124926018Y-93430809D01*
X124808228Y-93467513D01*
X124703971Y-93547525D01*
X124680492Y-93570492D01*
X124561116Y-93741953D01*
X124538743Y-93927752D01*
X124609504Y-94135722D01*
X124687009Y-94285600D01*
X124406304Y-94285600D01*
X124252889Y-94293914D01*
X124150931Y-94315371D01*
X124125600Y-94336400D01*
X124174905Y-94357102D01*
G36*
X124171542Y-91062164D02*
G01*
X124290105Y-91080615D01*
X124406304Y-91085200D01*
X124687009Y-91085200D01*
X124609504Y-91235077D01*
X124538813Y-91450381D01*
X124564876Y-91642701D01*
X124635910Y-91762399D01*
X124793745Y-91889284D01*
X124999841Y-91956590D01*
X125221606Y-91962788D01*
X125426444Y-91906348D01*
X125564729Y-91805980D01*
X125640521Y-91671055D01*
X125679849Y-91501695D01*
X125670850Y-91352444D01*
X125666245Y-91339200D01*
X125609046Y-91239375D01*
X125558897Y-91174100D01*
X125508901Y-91107127D01*
X125532276Y-91086385D01*
X125565526Y-91085200D01*
X125638037Y-91060031D01*
X125649600Y-91034400D01*
X125600294Y-91013697D01*
X125458168Y-90997953D01*
X125231906Y-90987745D01*
X125056839Y-90985371D01*
X125056839Y-91107229D01*
X125247655Y-91118786D01*
X125416231Y-91197730D01*
X125528959Y-91332842D01*
X125559837Y-91496966D01*
X125509060Y-91657638D01*
X125390381Y-91776492D01*
X125365281Y-91789397D01*
X125166767Y-91842628D01*
X124980180Y-91829425D01*
X124821887Y-91762485D01*
X124708258Y-91654503D01*
X124655662Y-91518176D01*
X124680468Y-91366199D01*
X124724148Y-91292127D01*
X124872698Y-91164522D01*
X125056839Y-91107229D01*
X125056839Y-90985371D01*
X124930194Y-90983652D01*
X124887600Y-90983600D01*
X124577065Y-90986887D01*
X124340895Y-90996362D01*
X124187775Y-91011446D01*
X124126390Y-91031560D01*
X124125600Y-91034400D01*
X124171542Y-91062164D01*
G37*
X124171542Y-91062164D02*
X124290105Y-91080615D01*
X124406304Y-91085200D01*
X124687009Y-91085200D01*
X124609504Y-91235077D01*
X124538813Y-91450381D01*
X124564876Y-91642701D01*
X124635910Y-91762399D01*
X124793745Y-91889284D01*
X124999841Y-91956590D01*
X125221606Y-91962788D01*
X125426444Y-91906348D01*
X125564729Y-91805980D01*
X125640521Y-91671055D01*
X125679849Y-91501695D01*
X125670850Y-91352444D01*
X125666245Y-91339200D01*
X125609046Y-91239375D01*
X125558897Y-91174100D01*
X125508901Y-91107127D01*
X125532276Y-91086385D01*
X125565526Y-91085200D01*
X125638037Y-91060031D01*
X125649600Y-91034400D01*
X125600294Y-91013697D01*
X125458168Y-90997953D01*
X125231906Y-90987745D01*
X125056839Y-90985371D01*
X125056839Y-91107229D01*
X125247655Y-91118786D01*
X125416231Y-91197730D01*
X125528959Y-91332842D01*
X125559837Y-91496966D01*
X125509060Y-91657638D01*
X125390381Y-91776492D01*
X125365281Y-91789397D01*
X125166767Y-91842628D01*
X124980180Y-91829425D01*
X124821887Y-91762485D01*
X124708258Y-91654503D01*
X124655662Y-91518176D01*
X124680468Y-91366199D01*
X124724148Y-91292127D01*
X124872698Y-91164522D01*
X125056839Y-91107229D01*
X125056839Y-90985371D01*
X124930194Y-90983652D01*
X124887600Y-90983600D01*
X124577065Y-90986887D01*
X124340895Y-90996362D01*
X124187775Y-91011446D01*
X124126390Y-91031560D01*
X124125600Y-91034400D01*
X124171542Y-91062164D01*
G36*
X124554043Y-85390562D02*
G01*
X124629204Y-85509398D01*
X124771026Y-85585188D01*
X124993052Y-85627589D01*
X125119834Y-85638168D01*
X125312950Y-85655996D01*
X125464625Y-85680658D01*
X125548068Y-85707498D01*
X125555020Y-85713829D01*
X125618997Y-85738255D01*
X125646680Y-85727604D01*
X125677190Y-85674382D01*
X125635096Y-85581395D01*
X125591684Y-85483416D01*
X125606557Y-85378743D01*
X125630044Y-85319400D01*
X125687294Y-85150440D01*
X125685072Y-85015559D01*
X125634875Y-84888049D01*
X125531932Y-84766555D01*
X125403816Y-84726464D01*
X125354325Y-84738247D01*
X125354325Y-84869722D01*
X125450685Y-84881621D01*
X125522132Y-84955615D01*
X125559673Y-85072070D01*
X125554314Y-85211352D01*
X125497061Y-85353825D01*
X125456762Y-85408300D01*
X125369191Y-85468865D01*
X125260305Y-85497333D01*
X125162699Y-85492899D01*
X125108969Y-85454758D01*
X125110764Y-85416845D01*
X125133742Y-85307316D01*
X125141600Y-85188245D01*
X125175889Y-85042639D01*
X125242047Y-84939552D01*
X125354325Y-84869722D01*
X125354325Y-84738247D01*
X125270555Y-84758193D01*
X125152181Y-84852155D01*
X125068724Y-84998765D01*
X125040000Y-85172729D01*
X125012929Y-85348559D01*
X124941606Y-85457273D01*
X124840858Y-85487763D01*
X124725516Y-85428918D01*
X124713428Y-85417371D01*
X124641878Y-85281927D01*
X124655295Y-85125528D01*
X124750562Y-84977849D01*
X124760600Y-84968249D01*
X124861511Y-84862330D01*
X124879909Y-84804244D01*
X124818177Y-84786014D01*
X124815087Y-84786000D01*
X124719224Y-84830370D01*
X124625728Y-84941446D01*
X124556208Y-85086169D01*
X124532000Y-85219022D01*
X124554043Y-85390562D01*
G37*
X124554043Y-85390562D02*
X124629204Y-85509398D01*
X124771026Y-85585188D01*
X124993052Y-85627589D01*
X125119834Y-85638168D01*
X125312950Y-85655996D01*
X125464625Y-85680658D01*
X125548068Y-85707498D01*
X125555020Y-85713829D01*
X125618997Y-85738255D01*
X125646680Y-85727604D01*
X125677190Y-85674382D01*
X125635096Y-85581395D01*
X125591684Y-85483416D01*
X125606557Y-85378743D01*
X125630044Y-85319400D01*
X125687294Y-85150440D01*
X125685072Y-85015559D01*
X125634875Y-84888049D01*
X125531932Y-84766555D01*
X125403816Y-84726464D01*
X125354325Y-84738247D01*
X125354325Y-84869722D01*
X125450685Y-84881621D01*
X125522132Y-84955615D01*
X125559673Y-85072070D01*
X125554314Y-85211352D01*
X125497061Y-85353825D01*
X125456762Y-85408300D01*
X125369191Y-85468865D01*
X125260305Y-85497333D01*
X125162699Y-85492899D01*
X125108969Y-85454758D01*
X125110764Y-85416845D01*
X125133742Y-85307316D01*
X125141600Y-85188245D01*
X125175889Y-85042639D01*
X125242047Y-84939552D01*
X125354325Y-84869722D01*
X125354325Y-84738247D01*
X125270555Y-84758193D01*
X125152181Y-84852155D01*
X125068724Y-84998765D01*
X125040000Y-85172729D01*
X125012929Y-85348559D01*
X124941606Y-85457273D01*
X124840858Y-85487763D01*
X124725516Y-85428918D01*
X124713428Y-85417371D01*
X124641878Y-85281927D01*
X124655295Y-85125528D01*
X124750562Y-84977849D01*
X124760600Y-84968249D01*
X124861511Y-84862330D01*
X124879909Y-84804244D01*
X124818177Y-84786014D01*
X124815087Y-84786000D01*
X124719224Y-84830370D01*
X124625728Y-84941446D01*
X124556208Y-85086169D01*
X124532000Y-85219022D01*
X124554043Y-85390562D01*
G36*
X124566353Y-80337369D02*
G01*
X124664449Y-80493386D01*
X124766201Y-80562909D01*
X124862167Y-80588714D01*
X124887274Y-80554630D01*
X124841925Y-80473190D01*
X124760600Y-80387350D01*
X124654666Y-80242240D01*
X124650087Y-80095371D01*
X124746849Y-79944001D01*
X124758290Y-79932290D01*
X124911882Y-79841298D01*
X125110896Y-79804295D01*
X125311860Y-79826066D01*
X125401371Y-79861488D01*
X125511616Y-79966230D01*
X125563213Y-80109552D01*
X125556322Y-80259269D01*
X125491101Y-80383196D01*
X125398510Y-80441676D01*
X125314602Y-80497827D01*
X125294000Y-80547623D01*
X125321513Y-80613319D01*
X125403962Y-80593663D01*
X125521482Y-80506100D01*
X125634388Y-80349594D01*
X125681909Y-80156092D01*
X125656345Y-79966784D01*
X125632032Y-79914791D01*
X125496492Y-79768622D01*
X125310451Y-79682441D01*
X125100596Y-79655776D01*
X124893614Y-79688156D01*
X124716193Y-79779109D01*
X124595019Y-79928161D01*
X124592690Y-79933180D01*
X124540080Y-80142094D01*
X124566353Y-80337369D01*
G37*
X124566353Y-80337369D02*
X124664449Y-80493386D01*
X124766201Y-80562909D01*
X124862167Y-80588714D01*
X124887274Y-80554630D01*
X124841925Y-80473190D01*
X124760600Y-80387350D01*
X124654666Y-80242240D01*
X124650087Y-80095371D01*
X124746849Y-79944001D01*
X124758290Y-79932290D01*
X124911882Y-79841298D01*
X125110896Y-79804295D01*
X125311860Y-79826066D01*
X125401371Y-79861488D01*
X125511616Y-79966230D01*
X125563213Y-80109552D01*
X125556322Y-80259269D01*
X125491101Y-80383196D01*
X125398510Y-80441676D01*
X125314602Y-80497827D01*
X125294000Y-80547623D01*
X125321513Y-80613319D01*
X125403962Y-80593663D01*
X125521482Y-80506100D01*
X125634388Y-80349594D01*
X125681909Y-80156092D01*
X125656345Y-79966784D01*
X125632032Y-79914791D01*
X125496492Y-79768622D01*
X125310451Y-79682441D01*
X125100596Y-79655776D01*
X124893614Y-79688156D01*
X124716193Y-79779109D01*
X124595019Y-79928161D01*
X124592690Y-79933180D01*
X124540080Y-80142094D01*
X124566353Y-80337369D01*
G36*
X124561303Y-79160660D02*
G01*
X124639075Y-79306737D01*
X124736118Y-79376091D01*
X124841907Y-79394903D01*
X124863170Y-79358511D01*
X124799596Y-79268546D01*
X124763678Y-79231096D01*
X124654984Y-79077719D01*
X124645713Y-78929756D01*
X124700970Y-78820483D01*
X124795004Y-78748232D01*
X124891642Y-78768641D01*
X124978541Y-78873877D01*
X125038197Y-79034540D01*
X125121801Y-79268579D01*
X125231914Y-79406788D01*
X125370200Y-79452000D01*
X125502807Y-79406421D01*
X125607191Y-79287903D01*
X125671546Y-79123770D01*
X125684065Y-78941347D01*
X125650229Y-78803887D01*
X125580814Y-78710697D01*
X125476307Y-78634232D01*
X125372224Y-78594868D01*
X125308470Y-78607796D01*
X125318269Y-78660522D01*
X125389304Y-78742771D01*
X125404022Y-78755748D01*
X125535693Y-78902658D01*
X125574921Y-79049814D01*
X125547832Y-79173041D01*
X125469971Y-79276597D01*
X125372876Y-79299600D01*
X125294519Y-79286067D01*
X125239716Y-79229731D01*
X125190304Y-79106989D01*
X125167653Y-79032900D01*
X125103118Y-78830991D01*
X125045665Y-78708990D01*
X124980582Y-78647569D01*
X124893159Y-78627399D01*
X124858347Y-78626500D01*
X124707699Y-78672110D01*
X124589593Y-78788290D01*
X124533312Y-78944061D01*
X124532000Y-78971720D01*
X124561303Y-79160660D01*
G37*
X124561303Y-79160660D02*
X124639075Y-79306737D01*
X124736118Y-79376091D01*
X124841907Y-79394903D01*
X124863170Y-79358511D01*
X124799596Y-79268546D01*
X124763678Y-79231096D01*
X124654984Y-79077719D01*
X124645713Y-78929756D01*
X124700970Y-78820483D01*
X124795004Y-78748232D01*
X124891642Y-78768641D01*
X124978541Y-78873877D01*
X125038197Y-79034540D01*
X125121801Y-79268579D01*
X125231914Y-79406788D01*
X125370200Y-79452000D01*
X125502807Y-79406421D01*
X125607191Y-79287903D01*
X125671546Y-79123770D01*
X125684065Y-78941347D01*
X125650229Y-78803887D01*
X125580814Y-78710697D01*
X125476307Y-78634232D01*
X125372224Y-78594868D01*
X125308470Y-78607796D01*
X125318269Y-78660522D01*
X125389304Y-78742771D01*
X125404022Y-78755748D01*
X125535693Y-78902658D01*
X125574921Y-79049814D01*
X125547832Y-79173041D01*
X125469971Y-79276597D01*
X125372876Y-79299600D01*
X125294519Y-79286067D01*
X125239716Y-79229731D01*
X125190304Y-79106989D01*
X125167653Y-79032900D01*
X125103118Y-78830991D01*
X125045665Y-78708990D01*
X124980582Y-78647569D01*
X124893159Y-78627399D01*
X124858347Y-78626500D01*
X124707699Y-78672110D01*
X124589593Y-78788290D01*
X124533312Y-78944061D01*
X124532000Y-78971720D01*
X124561303Y-79160660D01*
G36*
X124174905Y-77796302D02*
G01*
X124317031Y-77812046D01*
X124543293Y-77822254D01*
X124845005Y-77826347D01*
X124887600Y-77826400D01*
X125198134Y-77823112D01*
X125434304Y-77813637D01*
X125587424Y-77798553D01*
X125648809Y-77778439D01*
X125649600Y-77775600D01*
X125607945Y-77731786D01*
X125565526Y-77724800D01*
X125509738Y-77717415D01*
X125525393Y-77677945D01*
X125564923Y-77632566D01*
X125649596Y-77476766D01*
X125679476Y-77286816D01*
X125651950Y-77133335D01*
X125535868Y-76977997D01*
X125344607Y-76887761D01*
X125159022Y-76867528D01*
X125159022Y-76970362D01*
X125340193Y-77016156D01*
X125387944Y-77044435D01*
X125524689Y-77188323D01*
X125566507Y-77350274D01*
X125512780Y-77512362D01*
X125407903Y-77624425D01*
X125238086Y-77709555D01*
X125059872Y-77722638D01*
X124893183Y-77675367D01*
X124757940Y-77579436D01*
X124674066Y-77446538D01*
X124661482Y-77288368D01*
X124688692Y-77202265D01*
X124799166Y-77071114D01*
X124967311Y-76991247D01*
X125159022Y-76970362D01*
X125159022Y-76867528D01*
X125100988Y-76861200D01*
X124926018Y-76870009D01*
X124808228Y-76906713D01*
X124703971Y-76986725D01*
X124680492Y-77009692D01*
X124561116Y-77181153D01*
X124538743Y-77366952D01*
X124609504Y-77574922D01*
X124687009Y-77724800D01*
X124406304Y-77724800D01*
X124252889Y-77733114D01*
X124150931Y-77754571D01*
X124125600Y-77775600D01*
X124174905Y-77796302D01*
G37*
X124174905Y-77796302D02*
X124317031Y-77812046D01*
X124543293Y-77822254D01*
X124845005Y-77826347D01*
X124887600Y-77826400D01*
X125198134Y-77823112D01*
X125434304Y-77813637D01*
X125587424Y-77798553D01*
X125648809Y-77778439D01*
X125649600Y-77775600D01*
X125607945Y-77731786D01*
X125565526Y-77724800D01*
X125509738Y-77717415D01*
X125525393Y-77677945D01*
X125564923Y-77632566D01*
X125649596Y-77476766D01*
X125679476Y-77286816D01*
X125651950Y-77133335D01*
X125535868Y-76977997D01*
X125344607Y-76887761D01*
X125159022Y-76867528D01*
X125159022Y-76970362D01*
X125340193Y-77016156D01*
X125387944Y-77044435D01*
X125524689Y-77188323D01*
X125566507Y-77350274D01*
X125512780Y-77512362D01*
X125407903Y-77624425D01*
X125238086Y-77709555D01*
X125059872Y-77722638D01*
X124893183Y-77675367D01*
X124757940Y-77579436D01*
X124674066Y-77446538D01*
X124661482Y-77288368D01*
X124688692Y-77202265D01*
X124799166Y-77071114D01*
X124967311Y-76991247D01*
X125159022Y-76970362D01*
X125159022Y-76867528D01*
X125100988Y-76861200D01*
X124926018Y-76870009D01*
X124808228Y-76906713D01*
X124703971Y-76986725D01*
X124680492Y-77009692D01*
X124561116Y-77181153D01*
X124538743Y-77366952D01*
X124609504Y-77574922D01*
X124687009Y-77724800D01*
X124406304Y-77724800D01*
X124252889Y-77733114D01*
X124150931Y-77754571D01*
X124125600Y-77775600D01*
X124174905Y-77796302D01*
G36*
X124581660Y-76388241D02*
G01*
X124664418Y-76506377D01*
X124780523Y-76556200D01*
X124788880Y-76556400D01*
X124869851Y-76534571D01*
X124887600Y-76505600D01*
X124849798Y-76456267D01*
X124837971Y-76454800D01*
X124777348Y-76416451D01*
X124705371Y-76328170D01*
X124652474Y-76184723D01*
X124663949Y-76044240D01*
X124734209Y-75943418D01*
X124766600Y-75926126D01*
X124879385Y-75929191D01*
X124973329Y-76031276D01*
X125044361Y-76219417D01*
X125130809Y-76441612D01*
X125245969Y-76571384D01*
X125365373Y-76606422D01*
X125508505Y-76577170D01*
X125604373Y-76478307D01*
X125646421Y-76386959D01*
X125693509Y-76195242D01*
X125667516Y-76027329D01*
X125640984Y-75965295D01*
X125568436Y-75874235D01*
X125465538Y-75802028D01*
X125368564Y-75769577D01*
X125323174Y-75782158D01*
X125336777Y-75830896D01*
X125411516Y-75909250D01*
X125428173Y-75922969D01*
X125529029Y-76051937D01*
X125567874Y-76206591D01*
X125541420Y-76351360D01*
X125475328Y-76433101D01*
X125368586Y-76477737D01*
X125280801Y-76434639D01*
X125205054Y-76298306D01*
X125168197Y-76188984D01*
X125113837Y-76028967D01*
X125059279Y-75903999D01*
X125034577Y-75864066D01*
X124924698Y-75801572D01*
X124783133Y-75802367D01*
X124653883Y-75861959D01*
X124611080Y-75907303D01*
X124547230Y-76060371D01*
X124540010Y-76230128D01*
X124581660Y-76388241D01*
G37*
X124581660Y-76388241D02*
X124664418Y-76506377D01*
X124780523Y-76556200D01*
X124788880Y-76556400D01*
X124869851Y-76534571D01*
X124887600Y-76505600D01*
X124849798Y-76456267D01*
X124837971Y-76454800D01*
X124777348Y-76416451D01*
X124705371Y-76328170D01*
X124652474Y-76184723D01*
X124663949Y-76044240D01*
X124734209Y-75943418D01*
X124766600Y-75926126D01*
X124879385Y-75929191D01*
X124973329Y-76031276D01*
X125044361Y-76219417D01*
X125130809Y-76441612D01*
X125245969Y-76571384D01*
X125365373Y-76606422D01*
X125508505Y-76577170D01*
X125604373Y-76478307D01*
X125646421Y-76386959D01*
X125693509Y-76195242D01*
X125667516Y-76027329D01*
X125640984Y-75965295D01*
X125568436Y-75874235D01*
X125465538Y-75802028D01*
X125368564Y-75769577D01*
X125323174Y-75782158D01*
X125336777Y-75830896D01*
X125411516Y-75909250D01*
X125428173Y-75922969D01*
X125529029Y-76051937D01*
X125567874Y-76206591D01*
X125541420Y-76351360D01*
X125475328Y-76433101D01*
X125368586Y-76477737D01*
X125280801Y-76434639D01*
X125205054Y-76298306D01*
X125168197Y-76188984D01*
X125113837Y-76028967D01*
X125059279Y-75903999D01*
X125034577Y-75864066D01*
X124924698Y-75801572D01*
X124783133Y-75802367D01*
X124653883Y-75861959D01*
X124611080Y-75907303D01*
X124547230Y-76060371D01*
X124540010Y-76230128D01*
X124581660Y-76388241D01*
G36*
X124557562Y-74038716D02*
G01*
X124611080Y-74157496D01*
X124661867Y-74214641D01*
X124731945Y-74248569D01*
X124846467Y-74265145D01*
X125030586Y-74270234D01*
X125095274Y-74270400D01*
X125311160Y-74275011D01*
X125444131Y-74290994D01*
X125512544Y-74321568D01*
X125529629Y-74346600D01*
X125579493Y-74413822D01*
X125604235Y-74422800D01*
X125641232Y-74383001D01*
X125646948Y-74297396D01*
X125621917Y-74216666D01*
X125601855Y-74196088D01*
X125586997Y-74132306D01*
X125620050Y-74009350D01*
X125627255Y-73991522D01*
X125684445Y-73832052D01*
X125692649Y-73715454D01*
X125652675Y-73596036D01*
X125634875Y-73559649D01*
X125531932Y-73438155D01*
X125411475Y-73400461D01*
X125411475Y-73521936D01*
X125509486Y-73601527D01*
X125555403Y-73737529D01*
X125546601Y-73897610D01*
X125480456Y-74049438D01*
X125456762Y-74079900D01*
X125369191Y-74140465D01*
X125260305Y-74168933D01*
X125162699Y-74164499D01*
X125108969Y-74126358D01*
X125110764Y-74088445D01*
X125133742Y-73978916D01*
X125141600Y-73859845D01*
X125171296Y-73731763D01*
X125244024Y-73612883D01*
X125335244Y-73533934D01*
X125411475Y-73521936D01*
X125411475Y-73400461D01*
X125403816Y-73398064D01*
X125270555Y-73429793D01*
X125152181Y-73523755D01*
X125068724Y-73670365D01*
X125040000Y-73844329D01*
X125012929Y-74020159D01*
X124941606Y-74128873D01*
X124840858Y-74159363D01*
X124725516Y-74100518D01*
X124713428Y-74088971D01*
X124641878Y-73953527D01*
X124655295Y-73797128D01*
X124750562Y-73649449D01*
X124760600Y-73639849D01*
X124861511Y-73533930D01*
X124879909Y-73475844D01*
X124818177Y-73457614D01*
X124815087Y-73457600D01*
X124719819Y-73501789D01*
X124626182Y-73612089D01*
X124556299Y-73755102D01*
X124532000Y-73884947D01*
X124557562Y-74038716D01*
G37*
X124557562Y-74038716D02*
X124611080Y-74157496D01*
X124661867Y-74214641D01*
X124731945Y-74248569D01*
X124846467Y-74265145D01*
X125030586Y-74270234D01*
X125095274Y-74270400D01*
X125311160Y-74275011D01*
X125444131Y-74290994D01*
X125512544Y-74321568D01*
X125529629Y-74346600D01*
X125579493Y-74413822D01*
X125604235Y-74422800D01*
X125641232Y-74383001D01*
X125646948Y-74297396D01*
X125621917Y-74216666D01*
X125601855Y-74196088D01*
X125586997Y-74132306D01*
X125620050Y-74009350D01*
X125627255Y-73991522D01*
X125684445Y-73832052D01*
X125692649Y-73715454D01*
X125652675Y-73596036D01*
X125634875Y-73559649D01*
X125531932Y-73438155D01*
X125411475Y-73400461D01*
X125411475Y-73521936D01*
X125509486Y-73601527D01*
X125555403Y-73737529D01*
X125546601Y-73897610D01*
X125480456Y-74049438D01*
X125456762Y-74079900D01*
X125369191Y-74140465D01*
X125260305Y-74168933D01*
X125162699Y-74164499D01*
X125108969Y-74126358D01*
X125110764Y-74088445D01*
X125133742Y-73978916D01*
X125141600Y-73859845D01*
X125171296Y-73731763D01*
X125244024Y-73612883D01*
X125335244Y-73533934D01*
X125411475Y-73521936D01*
X125411475Y-73400461D01*
X125403816Y-73398064D01*
X125270555Y-73429793D01*
X125152181Y-73523755D01*
X125068724Y-73670365D01*
X125040000Y-73844329D01*
X125012929Y-74020159D01*
X124941606Y-74128873D01*
X124840858Y-74159363D01*
X124725516Y-74100518D01*
X124713428Y-74088971D01*
X124641878Y-73953527D01*
X124655295Y-73797128D01*
X124750562Y-73649449D01*
X124760600Y-73639849D01*
X124861511Y-73533930D01*
X124879909Y-73475844D01*
X124818177Y-73457614D01*
X124815087Y-73457600D01*
X124719819Y-73501789D01*
X124626182Y-73612089D01*
X124556299Y-73755102D01*
X124532000Y-73884947D01*
X124557562Y-74038716D01*
G36*
X124647275Y-89934698D02*
G01*
X124787370Y-90003115D01*
X125016891Y-90089634D01*
X125039347Y-90097485D01*
X125223880Y-90165023D01*
X125364764Y-90222870D01*
X125439783Y-90261642D01*
X125446400Y-90269363D01*
X125401978Y-90298816D01*
X125283477Y-90351362D01*
X125113047Y-90417488D01*
X125039431Y-90444143D01*
X124802182Y-90534138D01*
X124655053Y-90604962D01*
X124589527Y-90661815D01*
X124597091Y-90709897D01*
X124599748Y-90712681D01*
X124657317Y-90708026D01*
X124787507Y-90670448D01*
X124969932Y-90607923D01*
X125184207Y-90528425D01*
X125409947Y-90439928D01*
X125626767Y-90350407D01*
X125814282Y-90267837D01*
X125952107Y-90200193D01*
X126017393Y-90158100D01*
X126095976Y-90038795D01*
X126094939Y-89931222D01*
X126072933Y-89899866D01*
X126000307Y-89867341D01*
X125958209Y-89924600D01*
X125954400Y-89966295D01*
X125910317Y-90063984D01*
X125814700Y-90137956D01*
X125746046Y-90166637D01*
X125673327Y-90174617D01*
X125575412Y-90157695D01*
X125431174Y-90111669D01*
X125219482Y-90032340D01*
X125151915Y-90006179D01*
X124939122Y-89926855D01*
X124762677Y-89867318D01*
X124642871Y-89834014D01*
X124600728Y-89831138D01*
X124587948Y-89879125D01*
X124647275Y-89934698D01*
G37*
X124647275Y-89934698D02*
X124787370Y-90003115D01*
X125016891Y-90089634D01*
X125039347Y-90097485D01*
X125223880Y-90165023D01*
X125364764Y-90222870D01*
X125439783Y-90261642D01*
X125446400Y-90269363D01*
X125401978Y-90298816D01*
X125283477Y-90351362D01*
X125113047Y-90417488D01*
X125039431Y-90444143D01*
X124802182Y-90534138D01*
X124655053Y-90604962D01*
X124589527Y-90661815D01*
X124597091Y-90709897D01*
X124599748Y-90712681D01*
X124657317Y-90708026D01*
X124787507Y-90670448D01*
X124969932Y-90607923D01*
X125184207Y-90528425D01*
X125409947Y-90439928D01*
X125626767Y-90350407D01*
X125814282Y-90267837D01*
X125952107Y-90200193D01*
X126017393Y-90158100D01*
X126095976Y-90038795D01*
X126094939Y-89931222D01*
X126072933Y-89899866D01*
X126000307Y-89867341D01*
X125958209Y-89924600D01*
X125954400Y-89966295D01*
X125910317Y-90063984D01*
X125814700Y-90137956D01*
X125746046Y-90166637D01*
X125673327Y-90174617D01*
X125575412Y-90157695D01*
X125431174Y-90111669D01*
X125219482Y-90032340D01*
X125151915Y-90006179D01*
X124939122Y-89926855D01*
X124762677Y-89867318D01*
X124642871Y-89834014D01*
X124600728Y-89831138D01*
X124587948Y-89879125D01*
X124647275Y-89934698D01*
G36*
X124582800Y-86680615D02*
G01*
X124627377Y-86726551D01*
X124746343Y-86792550D01*
X124917544Y-86867006D01*
X124993611Y-86895803D01*
X125181707Y-86966935D01*
X125329607Y-87028020D01*
X125413930Y-87069192D01*
X125424462Y-87077602D01*
X125389394Y-87108363D01*
X125278681Y-87163769D01*
X125112363Y-87234308D01*
X125013651Y-87272642D01*
X124818843Y-87353170D01*
X124671358Y-87427739D01*
X124591394Y-87485569D01*
X124582800Y-87502565D01*
X124618919Y-87520062D01*
X124731009Y-87498706D01*
X124924665Y-87437023D01*
X125162837Y-87349794D01*
X125481708Y-87226727D01*
X125717155Y-87130118D01*
X125881898Y-87053583D01*
X125988658Y-86990737D01*
X126050156Y-86935197D01*
X126075243Y-86891924D01*
X126104603Y-86773208D01*
X126069677Y-86721590D01*
X126030600Y-86716400D01*
X125967586Y-86758338D01*
X125954400Y-86811836D01*
X125909073Y-86903430D01*
X125814430Y-86965250D01*
X125740215Y-86986704D01*
X125653619Y-86985838D01*
X125533663Y-86958032D01*
X125359365Y-86898665D01*
X125150448Y-86819014D01*
X124910678Y-86725632D01*
X124750008Y-86664730D01*
X124652656Y-86632460D01*
X124602838Y-86624974D01*
X124584772Y-86638424D01*
X124582674Y-86668962D01*
X124582800Y-86680615D01*
G37*
X124582800Y-86680615D02*
X124627377Y-86726551D01*
X124746343Y-86792550D01*
X124917544Y-86867006D01*
X124993611Y-86895803D01*
X125181707Y-86966935D01*
X125329607Y-87028020D01*
X125413930Y-87069192D01*
X125424462Y-87077602D01*
X125389394Y-87108363D01*
X125278681Y-87163769D01*
X125112363Y-87234308D01*
X125013651Y-87272642D01*
X124818843Y-87353170D01*
X124671358Y-87427739D01*
X124591394Y-87485569D01*
X124582800Y-87502565D01*
X124618919Y-87520062D01*
X124731009Y-87498706D01*
X124924665Y-87437023D01*
X125162837Y-87349794D01*
X125481708Y-87226727D01*
X125717155Y-87130118D01*
X125881898Y-87053583D01*
X125988658Y-86990737D01*
X126050156Y-86935197D01*
X126075243Y-86891924D01*
X126104603Y-86773208D01*
X126069677Y-86721590D01*
X126030600Y-86716400D01*
X125967586Y-86758338D01*
X125954400Y-86811836D01*
X125909073Y-86903430D01*
X125814430Y-86965250D01*
X125740215Y-86986704D01*
X125653619Y-86985838D01*
X125533663Y-86958032D01*
X125359365Y-86898665D01*
X125150448Y-86819014D01*
X124910678Y-86725632D01*
X124750008Y-86664730D01*
X124652656Y-86632460D01*
X124602838Y-86624974D01*
X124584772Y-86638424D01*
X124582674Y-86668962D01*
X124582800Y-86680615D01*
G36*
X124549618Y-82002751D02*
G01*
X124634436Y-82185410D01*
X124730797Y-82280174D01*
X124911147Y-82357305D01*
X125130466Y-82372427D01*
X125350502Y-82329554D01*
X125533004Y-82232703D01*
X125576878Y-82191356D01*
X125653026Y-82041141D01*
X125671003Y-81853747D01*
X125630795Y-81675219D01*
X125577072Y-81589657D01*
X125481453Y-81484000D01*
X125794126Y-81484000D01*
X125959678Y-81476461D01*
X126072265Y-81456679D01*
X126106800Y-81433200D01*
X126057494Y-81412497D01*
X125915368Y-81396753D01*
X125689106Y-81386545D01*
X125387394Y-81382452D01*
X125344800Y-81382400D01*
X125175888Y-81384187D01*
X125175888Y-81498120D01*
X125326292Y-81542657D01*
X125476362Y-81658299D01*
X125551092Y-81808194D01*
X125549914Y-81966576D01*
X125472264Y-82107678D01*
X125340663Y-82196913D01*
X125178049Y-82231569D01*
X124993667Y-82225216D01*
X124831656Y-82182640D01*
X124754760Y-82133403D01*
X124665931Y-81986454D01*
X124661206Y-81834745D01*
X124725214Y-81694166D01*
X124842579Y-81580609D01*
X124997928Y-81509963D01*
X125175888Y-81498120D01*
X125175888Y-81384187D01*
X125034265Y-81385687D01*
X124798095Y-81395162D01*
X124644975Y-81410246D01*
X124583590Y-81430360D01*
X124582800Y-81433200D01*
X124624194Y-81477672D01*
X124662687Y-81484000D01*
X124706735Y-81497027D01*
X124687627Y-81549762D01*
X124637287Y-81617850D01*
X124549203Y-81803895D01*
X124549618Y-82002751D01*
G37*
X124549618Y-82002751D02*
X124634436Y-82185410D01*
X124730797Y-82280174D01*
X124911147Y-82357305D01*
X125130466Y-82372427D01*
X125350502Y-82329554D01*
X125533004Y-82232703D01*
X125576878Y-82191356D01*
X125653026Y-82041141D01*
X125671003Y-81853747D01*
X125630795Y-81675219D01*
X125577072Y-81589657D01*
X125481453Y-81484000D01*
X125794126Y-81484000D01*
X125959678Y-81476461D01*
X126072265Y-81456679D01*
X126106800Y-81433200D01*
X126057494Y-81412497D01*
X125915368Y-81396753D01*
X125689106Y-81386545D01*
X125387394Y-81382452D01*
X125344800Y-81382400D01*
X125175888Y-81384187D01*
X125175888Y-81498120D01*
X125326292Y-81542657D01*
X125476362Y-81658299D01*
X125551092Y-81808194D01*
X125549914Y-81966576D01*
X125472264Y-82107678D01*
X125340663Y-82196913D01*
X125178049Y-82231569D01*
X124993667Y-82225216D01*
X124831656Y-82182640D01*
X124754760Y-82133403D01*
X124665931Y-81986454D01*
X124661206Y-81834745D01*
X124725214Y-81694166D01*
X124842579Y-81580609D01*
X124997928Y-81509963D01*
X125175888Y-81498120D01*
X125175888Y-81384187D01*
X125034265Y-81385687D01*
X124798095Y-81395162D01*
X124644975Y-81410246D01*
X124583590Y-81430360D01*
X124582800Y-81433200D01*
X124624194Y-81477672D01*
X124662687Y-81484000D01*
X124706735Y-81497027D01*
X124687627Y-81549762D01*
X124637287Y-81617850D01*
X124549203Y-81803895D01*
X124549618Y-82002751D01*
G36*
X126758974Y-95648245D02*
G01*
X126818000Y-95657200D01*
X126904442Y-95630393D01*
X126911242Y-95570748D01*
X126868800Y-95530200D01*
X126784737Y-95523953D01*
X126722519Y-95579569D01*
X126716400Y-95609398D01*
X126758974Y-95648245D01*
G37*
X126758974Y-95648245D02*
X126818000Y-95657200D01*
X126904442Y-95630393D01*
X126911242Y-95570748D01*
X126868800Y-95530200D01*
X126784737Y-95523953D01*
X126722519Y-95579569D01*
X126716400Y-95609398D01*
X126758974Y-95648245D01*
G36*
X126758751Y-94017456D02*
G01*
X126818000Y-94031600D01*
X126900742Y-93999836D01*
X126919600Y-93955400D01*
X126877248Y-93893343D01*
X126818000Y-93879200D01*
X126735257Y-93910963D01*
X126716400Y-93955400D01*
X126758751Y-94017456D01*
G37*
X126758751Y-94017456D02*
X126818000Y-94031600D01*
X126900742Y-93999836D01*
X126919600Y-93955400D01*
X126877248Y-93893343D01*
X126818000Y-93879200D01*
X126735257Y-93910963D01*
X126716400Y-93955400D01*
X126758751Y-94017456D01*
G36*
X126758751Y-78980656D02*
G01*
X126818000Y-78994800D01*
X126900742Y-78963036D01*
X126919600Y-78918600D01*
X126877248Y-78856543D01*
X126818000Y-78842400D01*
X126735257Y-78874163D01*
X126716400Y-78918600D01*
X126758751Y-78980656D01*
G37*
X126758751Y-78980656D02*
X126818000Y-78994800D01*
X126900742Y-78963036D01*
X126919600Y-78918600D01*
X126877248Y-78856543D01*
X126818000Y-78842400D01*
X126735257Y-78874163D01*
X126716400Y-78918600D01*
X126758751Y-78980656D01*
G36*
X126758751Y-74510256D02*
G01*
X126818000Y-74524400D01*
X126900742Y-74492636D01*
X126919600Y-74448200D01*
X126877248Y-74386143D01*
X126818000Y-74372000D01*
X126735257Y-74403763D01*
X126716400Y-74448200D01*
X126758751Y-74510256D01*
G37*
X126758751Y-74510256D02*
X126818000Y-74524400D01*
X126900742Y-74492636D01*
X126919600Y-74448200D01*
X126877248Y-74386143D01*
X126818000Y-74372000D01*
X126735257Y-74403763D01*
X126716400Y-74448200D01*
X126758751Y-74510256D01*
G36*
X126762088Y-90047378D02*
G01*
X126878905Y-90065771D01*
X126970400Y-90069200D01*
X127115292Y-90060062D01*
X127207258Y-90036698D01*
X127224400Y-90018400D01*
X127178711Y-89989421D01*
X127061894Y-89971028D01*
X126970400Y-89967600D01*
X126825507Y-89976737D01*
X126733541Y-90000101D01*
X126716400Y-90018400D01*
X126762088Y-90047378D01*
G37*
X126762088Y-90047378D02*
X126878905Y-90065771D01*
X126970400Y-90069200D01*
X127115292Y-90060062D01*
X127207258Y-90036698D01*
X127224400Y-90018400D01*
X127178711Y-89989421D01*
X127061894Y-89971028D01*
X126970400Y-89967600D01*
X126825507Y-89976737D01*
X126733541Y-90000101D01*
X126716400Y-90018400D01*
X126762088Y-90047378D01*
G36*
X127149356Y-96603939D02*
G01*
X127219879Y-96731072D01*
X127276929Y-96789147D01*
X127350081Y-96826510D01*
X127463304Y-96849066D01*
X127640565Y-96862720D01*
X127778679Y-96868754D01*
X127999622Y-96874963D01*
X128137617Y-96871254D01*
X128211049Y-96855096D01*
X128238301Y-96823963D01*
X128240400Y-96805254D01*
X128225069Y-96764904D01*
X128166650Y-96740277D01*
X128046501Y-96727836D01*
X127845981Y-96724042D01*
X127812228Y-96724000D01*
X127575985Y-96718333D01*
X127421257Y-96699283D01*
X127328480Y-96663777D01*
X127304228Y-96644171D01*
X127231424Y-96511678D01*
X127256223Y-96364489D01*
X127349090Y-96239090D01*
X127425865Y-96173988D01*
X127513377Y-96136336D01*
X127641132Y-96118892D01*
X127838634Y-96114415D01*
X127857090Y-96114400D01*
X128049922Y-96108131D01*
X128184429Y-96091148D01*
X128239978Y-96066185D01*
X128240400Y-96063600D01*
X128191956Y-96040347D01*
X128055806Y-96023431D01*
X127845717Y-96014163D01*
X127707000Y-96012800D01*
X127462845Y-96017413D01*
X127285227Y-96030380D01*
X127187912Y-96050388D01*
X127173600Y-96063600D01*
X127212637Y-96112466D01*
X127227280Y-96114400D01*
X127242132Y-96148630D01*
X127201880Y-96227303D01*
X127130165Y-96410992D01*
X127149356Y-96603939D01*
G37*
X127149356Y-96603939D02*
X127219879Y-96731072D01*
X127276929Y-96789147D01*
X127350081Y-96826510D01*
X127463304Y-96849066D01*
X127640565Y-96862720D01*
X127778679Y-96868754D01*
X127999622Y-96874963D01*
X128137617Y-96871254D01*
X128211049Y-96855096D01*
X128238301Y-96823963D01*
X128240400Y-96805254D01*
X128225069Y-96764904D01*
X128166650Y-96740277D01*
X128046501Y-96727836D01*
X127845981Y-96724042D01*
X127812228Y-96724000D01*
X127575985Y-96718333D01*
X127421257Y-96699283D01*
X127328480Y-96663777D01*
X127304228Y-96644171D01*
X127231424Y-96511678D01*
X127256223Y-96364489D01*
X127349090Y-96239090D01*
X127425865Y-96173988D01*
X127513377Y-96136336D01*
X127641132Y-96118892D01*
X127838634Y-96114415D01*
X127857090Y-96114400D01*
X128049922Y-96108131D01*
X128184429Y-96091148D01*
X128239978Y-96066185D01*
X128240400Y-96063600D01*
X128191956Y-96040347D01*
X128055806Y-96023431D01*
X127845717Y-96014163D01*
X127707000Y-96012800D01*
X127462845Y-96017413D01*
X127285227Y-96030380D01*
X127187912Y-96050388D01*
X127173600Y-96063600D01*
X127212637Y-96112466D01*
X127227280Y-96114400D01*
X127242132Y-96148630D01*
X127201880Y-96227303D01*
X127130165Y-96410992D01*
X127149356Y-96603939D01*
G36*
X127222043Y-95629652D02*
G01*
X127358193Y-95646568D01*
X127568282Y-95655836D01*
X127707000Y-95657200D01*
X127951154Y-95652586D01*
X128128772Y-95639619D01*
X128226087Y-95619611D01*
X128240400Y-95606400D01*
X128191956Y-95583147D01*
X128055806Y-95566231D01*
X127845717Y-95556963D01*
X127707000Y-95555600D01*
X127462845Y-95560213D01*
X127285227Y-95573180D01*
X127187912Y-95593188D01*
X127173600Y-95606400D01*
X127222043Y-95629652D01*
G37*
X127222043Y-95629652D02*
X127358193Y-95646568D01*
X127568282Y-95655836D01*
X127707000Y-95657200D01*
X127951154Y-95652586D01*
X128128772Y-95639619D01*
X128226087Y-95619611D01*
X128240400Y-95606400D01*
X128191956Y-95583147D01*
X128055806Y-95566231D01*
X127845717Y-95556963D01*
X127707000Y-95555600D01*
X127462845Y-95560213D01*
X127285227Y-95573180D01*
X127187912Y-95593188D01*
X127173600Y-95606400D01*
X127222043Y-95629652D01*
G36*
X127140251Y-94951090D02*
G01*
X127224400Y-95098400D01*
X127288772Y-95148276D01*
X127376022Y-95178881D01*
X127510273Y-95194600D01*
X127715648Y-95199821D01*
X127783200Y-95200000D01*
X128002271Y-95194671D01*
X128158542Y-95179921D01*
X128235335Y-95157603D01*
X128240400Y-95149200D01*
X128193454Y-95123078D01*
X128067809Y-95105050D01*
X127888107Y-95098400D01*
X127610262Y-95086420D01*
X127418959Y-95047588D01*
X127301666Y-94977563D01*
X127246899Y-94876328D01*
X127247455Y-94709763D01*
X127339808Y-94581162D01*
X127520761Y-94492452D01*
X127787118Y-94445560D01*
X127973700Y-94438283D01*
X128122704Y-94429398D01*
X128219506Y-94406879D01*
X128240400Y-94387200D01*
X128191956Y-94363947D01*
X128055806Y-94347031D01*
X127845717Y-94337763D01*
X127707000Y-94336400D01*
X127488043Y-94340528D01*
X127312642Y-94351693D01*
X127201781Y-94368063D01*
X127173600Y-94382966D01*
X127213547Y-94440094D01*
X127233946Y-94449648D01*
X127260298Y-94492546D01*
X127211596Y-94587804D01*
X127208546Y-94592185D01*
X127133668Y-94770264D01*
X127140251Y-94951090D01*
G37*
X127140251Y-94951090D02*
X127224400Y-95098400D01*
X127288772Y-95148276D01*
X127376022Y-95178881D01*
X127510273Y-95194600D01*
X127715648Y-95199821D01*
X127783200Y-95200000D01*
X128002271Y-95194671D01*
X128158542Y-95179921D01*
X128235335Y-95157603D01*
X128240400Y-95149200D01*
X128193454Y-95123078D01*
X128067809Y-95105050D01*
X127888107Y-95098400D01*
X127610262Y-95086420D01*
X127418959Y-95047588D01*
X127301666Y-94977563D01*
X127246899Y-94876328D01*
X127247455Y-94709763D01*
X127339808Y-94581162D01*
X127520761Y-94492452D01*
X127787118Y-94445560D01*
X127973700Y-94438283D01*
X128122704Y-94429398D01*
X128219506Y-94406879D01*
X128240400Y-94387200D01*
X128191956Y-94363947D01*
X128055806Y-94347031D01*
X127845717Y-94337763D01*
X127707000Y-94336400D01*
X127488043Y-94340528D01*
X127312642Y-94351693D01*
X127201781Y-94368063D01*
X127173600Y-94382966D01*
X127213547Y-94440094D01*
X127233946Y-94449648D01*
X127260298Y-94492546D01*
X127211596Y-94587804D01*
X127208546Y-94592185D01*
X127133668Y-94770264D01*
X127140251Y-94951090D01*
G36*
X127189952Y-93990197D02*
G01*
X127249945Y-94012833D01*
X127369978Y-94025652D01*
X127566454Y-94030996D01*
X127707000Y-94031600D01*
X127950579Y-94029263D01*
X128109035Y-94020693D01*
X128198767Y-94003545D01*
X128236178Y-93975477D01*
X128240400Y-93955400D01*
X128224047Y-93920602D01*
X128164054Y-93897966D01*
X128044021Y-93885147D01*
X127847545Y-93879803D01*
X127707000Y-93879200D01*
X127463420Y-93881536D01*
X127304964Y-93890106D01*
X127215232Y-93907254D01*
X127177821Y-93935322D01*
X127173600Y-93955400D01*
X127189952Y-93990197D01*
G37*
X127189952Y-93990197D02*
X127249945Y-94012833D01*
X127369978Y-94025652D01*
X127566454Y-94030996D01*
X127707000Y-94031600D01*
X127950579Y-94029263D01*
X128109035Y-94020693D01*
X128198767Y-94003545D01*
X128236178Y-93975477D01*
X128240400Y-93955400D01*
X128224047Y-93920602D01*
X128164054Y-93897966D01*
X128044021Y-93885147D01*
X127847545Y-93879803D01*
X127707000Y-93879200D01*
X127463420Y-93881536D01*
X127304964Y-93890106D01*
X127215232Y-93907254D01*
X127177821Y-93935322D01*
X127173600Y-93955400D01*
X127189952Y-93990197D01*
G36*
X127170024Y-92453994D02*
G01*
X127193492Y-92456800D01*
X127257157Y-92413448D01*
X127296511Y-92328003D01*
X127356238Y-92219233D01*
X127478895Y-92148287D01*
X127676983Y-92110569D01*
X127913507Y-92101200D01*
X128084748Y-92093957D01*
X128201843Y-92074802D01*
X128240400Y-92050400D01*
X128191956Y-92027147D01*
X128055806Y-92010231D01*
X127845717Y-92000963D01*
X127707000Y-91999600D01*
X127462845Y-92004213D01*
X127285227Y-92017180D01*
X127187912Y-92037188D01*
X127173600Y-92050400D01*
X127214745Y-92095468D01*
X127249800Y-92101200D01*
X127289560Y-92116238D01*
X127254108Y-92171952D01*
X127224400Y-92202800D01*
X127145630Y-92311236D01*
X127126424Y-92403845D01*
X127170024Y-92453994D01*
G37*
X127170024Y-92453994D02*
X127193492Y-92456800D01*
X127257157Y-92413448D01*
X127296511Y-92328003D01*
X127356238Y-92219233D01*
X127478895Y-92148287D01*
X127676983Y-92110569D01*
X127913507Y-92101200D01*
X128084748Y-92093957D01*
X128201843Y-92074802D01*
X128240400Y-92050400D01*
X128191956Y-92027147D01*
X128055806Y-92010231D01*
X127845717Y-92000963D01*
X127707000Y-91999600D01*
X127462845Y-92004213D01*
X127285227Y-92017180D01*
X127187912Y-92037188D01*
X127173600Y-92050400D01*
X127214745Y-92095468D01*
X127249800Y-92101200D01*
X127289560Y-92116238D01*
X127254108Y-92171952D01*
X127224400Y-92202800D01*
X127145630Y-92311236D01*
X127126424Y-92403845D01*
X127170024Y-92453994D01*
G36*
X126719243Y-91702320D02*
G01*
X126728735Y-91870443D01*
X126746316Y-91961706D01*
X126773427Y-91988412D01*
X126779900Y-91987162D01*
X126821188Y-91927726D01*
X126851500Y-91800464D01*
X126858883Y-91728929D01*
X126874366Y-91491600D01*
X127557383Y-91491600D01*
X127837726Y-91489982D01*
X128031317Y-91484030D01*
X128152971Y-91472088D01*
X128217500Y-91452506D01*
X128239717Y-91423630D01*
X128240400Y-91415400D01*
X128225932Y-91384178D01*
X128172671Y-91362599D01*
X128065828Y-91349019D01*
X127890618Y-91341795D01*
X127632252Y-91339284D01*
X127554600Y-91339200D01*
X126868800Y-91339200D01*
X126868800Y-91110600D01*
X126858827Y-90959926D01*
X126824919Y-90891295D01*
X126792600Y-90882000D01*
X126758602Y-90897900D01*
X126736173Y-90956303D01*
X126723141Y-91073264D01*
X126717332Y-91264838D01*
X126716400Y-91445033D01*
X126719243Y-91702320D01*
G37*
X126719243Y-91702320D02*
X126728735Y-91870443D01*
X126746316Y-91961706D01*
X126773427Y-91988412D01*
X126779900Y-91987162D01*
X126821188Y-91927726D01*
X126851500Y-91800464D01*
X126858883Y-91728929D01*
X126874366Y-91491600D01*
X127557383Y-91491600D01*
X127837726Y-91489982D01*
X128031317Y-91484030D01*
X128152971Y-91472088D01*
X128217500Y-91452506D01*
X128239717Y-91423630D01*
X128240400Y-91415400D01*
X128225932Y-91384178D01*
X128172671Y-91362599D01*
X128065828Y-91349019D01*
X127890618Y-91341795D01*
X127632252Y-91339284D01*
X127554600Y-91339200D01*
X126868800Y-91339200D01*
X126868800Y-91110600D01*
X126858827Y-90959926D01*
X126824919Y-90891295D01*
X126792600Y-90882000D01*
X126758602Y-90897900D01*
X126736173Y-90956303D01*
X126723141Y-91073264D01*
X126717332Y-91264838D01*
X126716400Y-91445033D01*
X126719243Y-91702320D01*
G36*
X127149356Y-87713939D02*
G01*
X127219879Y-87841072D01*
X127276929Y-87899147D01*
X127350081Y-87936510D01*
X127463304Y-87959066D01*
X127640565Y-87972720D01*
X127778679Y-87978754D01*
X127999622Y-87984963D01*
X128137617Y-87981254D01*
X128211049Y-87965096D01*
X128238301Y-87933963D01*
X128240400Y-87915254D01*
X128225069Y-87874904D01*
X128166650Y-87850277D01*
X128046501Y-87837836D01*
X127845981Y-87834042D01*
X127812228Y-87834000D01*
X127575985Y-87828333D01*
X127421257Y-87809283D01*
X127328480Y-87773777D01*
X127304228Y-87754171D01*
X127231424Y-87621678D01*
X127256223Y-87474489D01*
X127349090Y-87349090D01*
X127425865Y-87283988D01*
X127513377Y-87246336D01*
X127641132Y-87228892D01*
X127838634Y-87224415D01*
X127857090Y-87224400D01*
X128049922Y-87218131D01*
X128184429Y-87201148D01*
X128239978Y-87176185D01*
X128240400Y-87173600D01*
X128191956Y-87150347D01*
X128055806Y-87133431D01*
X127845717Y-87124163D01*
X127707000Y-87122800D01*
X127462845Y-87127413D01*
X127285227Y-87140380D01*
X127187912Y-87160388D01*
X127173600Y-87173600D01*
X127212637Y-87222466D01*
X127227280Y-87224400D01*
X127242132Y-87258630D01*
X127201880Y-87337303D01*
X127130165Y-87520992D01*
X127149356Y-87713939D01*
G37*
X127149356Y-87713939D02*
X127219879Y-87841072D01*
X127276929Y-87899147D01*
X127350081Y-87936510D01*
X127463304Y-87959066D01*
X127640565Y-87972720D01*
X127778679Y-87978754D01*
X127999622Y-87984963D01*
X128137617Y-87981254D01*
X128211049Y-87965096D01*
X128238301Y-87933963D01*
X128240400Y-87915254D01*
X128225069Y-87874904D01*
X128166650Y-87850277D01*
X128046501Y-87837836D01*
X127845981Y-87834042D01*
X127812228Y-87834000D01*
X127575985Y-87828333D01*
X127421257Y-87809283D01*
X127328480Y-87773777D01*
X127304228Y-87754171D01*
X127231424Y-87621678D01*
X127256223Y-87474489D01*
X127349090Y-87349090D01*
X127425865Y-87283988D01*
X127513377Y-87246336D01*
X127641132Y-87228892D01*
X127838634Y-87224415D01*
X127857090Y-87224400D01*
X128049922Y-87218131D01*
X128184429Y-87201148D01*
X128239978Y-87176185D01*
X128240400Y-87173600D01*
X128191956Y-87150347D01*
X128055806Y-87133431D01*
X127845717Y-87124163D01*
X127707000Y-87122800D01*
X127462845Y-87127413D01*
X127285227Y-87140380D01*
X127187912Y-87160388D01*
X127173600Y-87173600D01*
X127212637Y-87222466D01*
X127227280Y-87224400D01*
X127242132Y-87258630D01*
X127201880Y-87337303D01*
X127130165Y-87520992D01*
X127149356Y-87713939D01*
G36*
X127189952Y-78953397D02*
G01*
X127249945Y-78976033D01*
X127369978Y-78988852D01*
X127566454Y-78994196D01*
X127707000Y-78994800D01*
X127950579Y-78992463D01*
X128109035Y-78983893D01*
X128198767Y-78966745D01*
X128236178Y-78938677D01*
X128240400Y-78918600D01*
X128224047Y-78883802D01*
X128164054Y-78861166D01*
X128044021Y-78848347D01*
X127847545Y-78843003D01*
X127707000Y-78842400D01*
X127463420Y-78844736D01*
X127304964Y-78853306D01*
X127215232Y-78870454D01*
X127177821Y-78898522D01*
X127173600Y-78918600D01*
X127189952Y-78953397D01*
G37*
X127189952Y-78953397D02*
X127249945Y-78976033D01*
X127369978Y-78988852D01*
X127566454Y-78994196D01*
X127707000Y-78994800D01*
X127950579Y-78992463D01*
X128109035Y-78983893D01*
X128198767Y-78966745D01*
X128236178Y-78938677D01*
X128240400Y-78918600D01*
X128224047Y-78883802D01*
X128164054Y-78861166D01*
X128044021Y-78848347D01*
X127847545Y-78843003D01*
X127707000Y-78842400D01*
X127463420Y-78844736D01*
X127304964Y-78853306D01*
X127215232Y-78870454D01*
X127177821Y-78898522D01*
X127173600Y-78918600D01*
X127189952Y-78953397D01*
G36*
X127136586Y-77545803D02*
G01*
X127199000Y-77572400D01*
X127261334Y-77530287D01*
X127275200Y-77473680D01*
X127319086Y-77351119D01*
X127452078Y-77268416D01*
X127676174Y-77224707D01*
X127870703Y-77216800D01*
X128068242Y-77212602D01*
X128182947Y-77197466D01*
X128233335Y-77167574D01*
X128240400Y-77140600D01*
X128224047Y-77105802D01*
X128164054Y-77083166D01*
X128044021Y-77070347D01*
X127847545Y-77065003D01*
X127707000Y-77064400D01*
X127463420Y-77066736D01*
X127304964Y-77075306D01*
X127215232Y-77092454D01*
X127177821Y-77120522D01*
X127173600Y-77140600D01*
X127202553Y-77208179D01*
X127227280Y-77216800D01*
X127242132Y-77251030D01*
X127201880Y-77329703D01*
X127133556Y-77460307D01*
X127136586Y-77545803D01*
G37*
X127136586Y-77545803D02*
X127199000Y-77572400D01*
X127261334Y-77530287D01*
X127275200Y-77473680D01*
X127319086Y-77351119D01*
X127452078Y-77268416D01*
X127676174Y-77224707D01*
X127870703Y-77216800D01*
X128068242Y-77212602D01*
X128182947Y-77197466D01*
X128233335Y-77167574D01*
X128240400Y-77140600D01*
X128224047Y-77105802D01*
X128164054Y-77083166D01*
X128044021Y-77070347D01*
X127847545Y-77065003D01*
X127707000Y-77064400D01*
X127463420Y-77066736D01*
X127304964Y-77075306D01*
X127215232Y-77092454D01*
X127177821Y-77120522D01*
X127173600Y-77140600D01*
X127202553Y-77208179D01*
X127227280Y-77216800D01*
X127242132Y-77251030D01*
X127201880Y-77329703D01*
X127133556Y-77460307D01*
X127136586Y-77545803D01*
G36*
X127190703Y-75647123D02*
G01*
X127249249Y-75646292D01*
X127360093Y-75617097D01*
X127534089Y-75556222D01*
X127782093Y-75460351D01*
X128024500Y-75362957D01*
X128177697Y-75280473D01*
X128233185Y-75199491D01*
X128189828Y-75124261D01*
X128100700Y-75077547D01*
X127977887Y-75030169D01*
X127803147Y-74962804D01*
X127656200Y-74906177D01*
X127482085Y-74838829D01*
X127336697Y-74782124D01*
X127262500Y-74752737D01*
X127188352Y-74747929D01*
X127173600Y-74791560D01*
X127221653Y-74849687D01*
X127359606Y-74924611D01*
X127567300Y-75007360D01*
X127755061Y-75077214D01*
X127905807Y-75138162D01*
X127993718Y-75179610D01*
X128003696Y-75186402D01*
X127978734Y-75219334D01*
X127876471Y-75276295D01*
X127715491Y-75347712D01*
X127609996Y-75389180D01*
X127406136Y-75473311D01*
X127256898Y-75549325D01*
X127180093Y-75607683D01*
X127173600Y-75622907D01*
X127190703Y-75647123D01*
G37*
X127190703Y-75647123D02*
X127249249Y-75646292D01*
X127360093Y-75617097D01*
X127534089Y-75556222D01*
X127782093Y-75460351D01*
X128024500Y-75362957D01*
X128177697Y-75280473D01*
X128233185Y-75199491D01*
X128189828Y-75124261D01*
X128100700Y-75077547D01*
X127977887Y-75030169D01*
X127803147Y-74962804D01*
X127656200Y-74906177D01*
X127482085Y-74838829D01*
X127336697Y-74782124D01*
X127262500Y-74752737D01*
X127188352Y-74747929D01*
X127173600Y-74791560D01*
X127221653Y-74849687D01*
X127359606Y-74924611D01*
X127567300Y-75007360D01*
X127755061Y-75077214D01*
X127905807Y-75138162D01*
X127993718Y-75179610D01*
X128003696Y-75186402D01*
X127978734Y-75219334D01*
X127876471Y-75276295D01*
X127715491Y-75347712D01*
X127609996Y-75389180D01*
X127406136Y-75473311D01*
X127256898Y-75549325D01*
X127180093Y-75607683D01*
X127173600Y-75622907D01*
X127190703Y-75647123D01*
G36*
X127189952Y-74482997D02*
G01*
X127249945Y-74505633D01*
X127369978Y-74518452D01*
X127566454Y-74523796D01*
X127707000Y-74524400D01*
X127950579Y-74522063D01*
X128109035Y-74513493D01*
X128198767Y-74496345D01*
X128236178Y-74468277D01*
X128240400Y-74448200D01*
X128224047Y-74413402D01*
X128164054Y-74390766D01*
X128044021Y-74377947D01*
X127847545Y-74372603D01*
X127707000Y-74372000D01*
X127463420Y-74374336D01*
X127304964Y-74382906D01*
X127215232Y-74400054D01*
X127177821Y-74428122D01*
X127173600Y-74448200D01*
X127189952Y-74482997D01*
G37*
X127189952Y-74482997D02*
X127249945Y-74505633D01*
X127369978Y-74518452D01*
X127566454Y-74523796D01*
X127707000Y-74524400D01*
X127950579Y-74522063D01*
X128109035Y-74513493D01*
X128198767Y-74496345D01*
X128236178Y-74468277D01*
X128240400Y-74448200D01*
X128224047Y-74413402D01*
X128164054Y-74390766D01*
X128044021Y-74377947D01*
X127847545Y-74372603D01*
X127707000Y-74372000D01*
X127463420Y-74374336D01*
X127304964Y-74382906D01*
X127215232Y-74400054D01*
X127177821Y-74428122D01*
X127173600Y-74448200D01*
X127189952Y-74482997D01*
G36*
X127149356Y-73794739D02*
G01*
X127219879Y-73921872D01*
X127276929Y-73979947D01*
X127350081Y-74017310D01*
X127463304Y-74039866D01*
X127640565Y-74053520D01*
X127778679Y-74059554D01*
X127999622Y-74065763D01*
X128137617Y-74062054D01*
X128211049Y-74045896D01*
X128238301Y-74014763D01*
X128240400Y-73996054D01*
X128225069Y-73955704D01*
X128166650Y-73931077D01*
X128046501Y-73918636D01*
X127845981Y-73914842D01*
X127812228Y-73914800D01*
X127575985Y-73909133D01*
X127421257Y-73890083D01*
X127328480Y-73854577D01*
X127304228Y-73834971D01*
X127231424Y-73702478D01*
X127256223Y-73555289D01*
X127349090Y-73429890D01*
X127425865Y-73364788D01*
X127513377Y-73327136D01*
X127641132Y-73309692D01*
X127838634Y-73305215D01*
X127857090Y-73305200D01*
X128049922Y-73298931D01*
X128184429Y-73281948D01*
X128239978Y-73256985D01*
X128240400Y-73254400D01*
X128191956Y-73231147D01*
X128055806Y-73214231D01*
X127845717Y-73204963D01*
X127707000Y-73203600D01*
X127462845Y-73208213D01*
X127285227Y-73221180D01*
X127187912Y-73241188D01*
X127173600Y-73254400D01*
X127212637Y-73303266D01*
X127227280Y-73305200D01*
X127242132Y-73339430D01*
X127201880Y-73418103D01*
X127130165Y-73601792D01*
X127149356Y-73794739D01*
G37*
X127149356Y-73794739D02*
X127219879Y-73921872D01*
X127276929Y-73979947D01*
X127350081Y-74017310D01*
X127463304Y-74039866D01*
X127640565Y-74053520D01*
X127778679Y-74059554D01*
X127999622Y-74065763D01*
X128137617Y-74062054D01*
X128211049Y-74045896D01*
X128238301Y-74014763D01*
X128240400Y-73996054D01*
X128225069Y-73955704D01*
X128166650Y-73931077D01*
X128046501Y-73918636D01*
X127845981Y-73914842D01*
X127812228Y-73914800D01*
X127575985Y-73909133D01*
X127421257Y-73890083D01*
X127328480Y-73854577D01*
X127304228Y-73834971D01*
X127231424Y-73702478D01*
X127256223Y-73555289D01*
X127349090Y-73429890D01*
X127425865Y-73364788D01*
X127513377Y-73327136D01*
X127641132Y-73309692D01*
X127838634Y-73305215D01*
X127857090Y-73305200D01*
X128049922Y-73298931D01*
X128184429Y-73281948D01*
X128239978Y-73256985D01*
X128240400Y-73254400D01*
X128191956Y-73231147D01*
X128055806Y-73214231D01*
X127845717Y-73204963D01*
X127707000Y-73203600D01*
X127462845Y-73208213D01*
X127285227Y-73221180D01*
X127187912Y-73241188D01*
X127173600Y-73254400D01*
X127212637Y-73303266D01*
X127227280Y-73305200D01*
X127242132Y-73339430D01*
X127201880Y-73418103D01*
X127130165Y-73601792D01*
X127149356Y-73794739D01*
G36*
X127154419Y-93312133D02*
G01*
X127224400Y-93422000D01*
X127294267Y-93474864D01*
X127390280Y-93505925D01*
X127538586Y-93520410D01*
X127732400Y-93523600D01*
X127940920Y-93527189D01*
X128066061Y-93540211D01*
X128125862Y-93566049D01*
X128138800Y-93599800D01*
X128166230Y-93667403D01*
X128189600Y-93676000D01*
X128228427Y-93635310D01*
X128239101Y-93545399D01*
X128222180Y-93454506D01*
X128186551Y-93412517D01*
X128167218Y-93358497D01*
X128211638Y-93243183D01*
X128282703Y-93040380D01*
X128261985Y-92869487D01*
X128166509Y-92733890D01*
X128061969Y-92648980D01*
X128023245Y-92631476D01*
X128023245Y-92771257D01*
X128085112Y-92785215D01*
X128123882Y-92859408D01*
X128137221Y-92990531D01*
X128125939Y-93137362D01*
X128090846Y-93258678D01*
X128075300Y-93284606D01*
X127982831Y-93353541D01*
X127847372Y-93402122D01*
X127843070Y-93402991D01*
X127674341Y-93436151D01*
X127706297Y-93238575D01*
X127742170Y-93031185D01*
X127773985Y-92902811D01*
X127811335Y-92831789D01*
X127863815Y-92796456D01*
X127908086Y-92782991D01*
X128023245Y-92771257D01*
X128023245Y-92631476D01*
X127974733Y-92609547D01*
X127968936Y-92609200D01*
X127834807Y-92657287D01*
X127723003Y-92792059D01*
X127644133Y-92999274D01*
X127630236Y-93063769D01*
X127591517Y-93223644D01*
X127546650Y-93340331D01*
X127518642Y-93377724D01*
X127419928Y-93387378D01*
X127319416Y-93323864D01*
X127249965Y-93209521D01*
X127244799Y-93191563D01*
X127247436Y-93072868D01*
X127293383Y-92944375D01*
X127363770Y-92844972D01*
X127428771Y-92812400D01*
X127473070Y-92771352D01*
X127478400Y-92737836D01*
X127453932Y-92688946D01*
X127366910Y-92704017D01*
X127364100Y-92705037D01*
X127235643Y-92800772D01*
X127153502Y-92956322D01*
X127124240Y-93138004D01*
X127154419Y-93312133D01*
G37*
X127154419Y-93312133D02*
X127224400Y-93422000D01*
X127294267Y-93474864D01*
X127390280Y-93505925D01*
X127538586Y-93520410D01*
X127732400Y-93523600D01*
X127940920Y-93527189D01*
X128066061Y-93540211D01*
X128125862Y-93566049D01*
X128138800Y-93599800D01*
X128166230Y-93667403D01*
X128189600Y-93676000D01*
X128228427Y-93635310D01*
X128239101Y-93545399D01*
X128222180Y-93454506D01*
X128186551Y-93412517D01*
X128167218Y-93358497D01*
X128211638Y-93243183D01*
X128282703Y-93040380D01*
X128261985Y-92869487D01*
X128166509Y-92733890D01*
X128061969Y-92648980D01*
X128023245Y-92631476D01*
X128023245Y-92771257D01*
X128085112Y-92785215D01*
X128123882Y-92859408D01*
X128137221Y-92990531D01*
X128125939Y-93137362D01*
X128090846Y-93258678D01*
X128075300Y-93284606D01*
X127982831Y-93353541D01*
X127847372Y-93402122D01*
X127843070Y-93402991D01*
X127674341Y-93436151D01*
X127706297Y-93238575D01*
X127742170Y-93031185D01*
X127773985Y-92902811D01*
X127811335Y-92831789D01*
X127863815Y-92796456D01*
X127908086Y-92782991D01*
X128023245Y-92771257D01*
X128023245Y-92631476D01*
X127974733Y-92609547D01*
X127968936Y-92609200D01*
X127834807Y-92657287D01*
X127723003Y-92792059D01*
X127644133Y-92999274D01*
X127630236Y-93063769D01*
X127591517Y-93223644D01*
X127546650Y-93340331D01*
X127518642Y-93377724D01*
X127419928Y-93387378D01*
X127319416Y-93323864D01*
X127249965Y-93209521D01*
X127244799Y-93191563D01*
X127247436Y-93072868D01*
X127293383Y-92944375D01*
X127363770Y-92844972D01*
X127428771Y-92812400D01*
X127473070Y-92771352D01*
X127478400Y-92737836D01*
X127453932Y-92688946D01*
X127366910Y-92704017D01*
X127364100Y-92705037D01*
X127235643Y-92800772D01*
X127153502Y-92956322D01*
X127124240Y-93138004D01*
X127154419Y-93312133D01*
G36*
X127177099Y-89464049D02*
G01*
X127277272Y-89580839D01*
X127375245Y-89626312D01*
X127457971Y-89621472D01*
X127477518Y-89571069D01*
X127432103Y-89510492D01*
X127382284Y-89486740D01*
X127291042Y-89409593D01*
X127234934Y-89266006D01*
X127225093Y-89171128D01*
X127257435Y-89089845D01*
X127304127Y-89031529D01*
X127405615Y-88980045D01*
X127503716Y-89026080D01*
X127593688Y-89165564D01*
X127653773Y-89331772D01*
X127713376Y-89503686D01*
X127775774Y-89598847D01*
X127856728Y-89641268D01*
X127856960Y-89641327D01*
X128039044Y-89648417D01*
X128171434Y-89567463D01*
X128236154Y-89449943D01*
X128282543Y-89265704D01*
X128269617Y-89116458D01*
X128231784Y-89020895D01*
X128156252Y-88922489D01*
X128056244Y-88856238D01*
X127960073Y-88831918D01*
X127896053Y-88859301D01*
X127884800Y-88901112D01*
X127925606Y-88944751D01*
X128011800Y-88993156D01*
X128097524Y-89052032D01*
X128133434Y-89147360D01*
X128138800Y-89252786D01*
X128108964Y-89423739D01*
X128034638Y-89517479D01*
X127938590Y-89532944D01*
X127843588Y-89469070D01*
X127772402Y-89324795D01*
X127759953Y-89270476D01*
X127692240Y-89039811D01*
X127588562Y-88901176D01*
X127445643Y-88850405D01*
X127429309Y-88850000D01*
X127284392Y-88891605D01*
X127184932Y-88999378D01*
X127132710Y-89147753D01*
X127129506Y-89311165D01*
X127177099Y-89464049D01*
G37*
X127177099Y-89464049D02*
X127277272Y-89580839D01*
X127375245Y-89626312D01*
X127457971Y-89621472D01*
X127477518Y-89571069D01*
X127432103Y-89510492D01*
X127382284Y-89486740D01*
X127291042Y-89409593D01*
X127234934Y-89266006D01*
X127225093Y-89171128D01*
X127257435Y-89089845D01*
X127304127Y-89031529D01*
X127405615Y-88980045D01*
X127503716Y-89026080D01*
X127593688Y-89165564D01*
X127653773Y-89331772D01*
X127713376Y-89503686D01*
X127775774Y-89598847D01*
X127856728Y-89641268D01*
X127856960Y-89641327D01*
X128039044Y-89648417D01*
X128171434Y-89567463D01*
X128236154Y-89449943D01*
X128282543Y-89265704D01*
X128269617Y-89116458D01*
X128231784Y-89020895D01*
X128156252Y-88922489D01*
X128056244Y-88856238D01*
X127960073Y-88831918D01*
X127896053Y-88859301D01*
X127884800Y-88901112D01*
X127925606Y-88944751D01*
X128011800Y-88993156D01*
X128097524Y-89052032D01*
X128133434Y-89147360D01*
X128138800Y-89252786D01*
X128108964Y-89423739D01*
X128034638Y-89517479D01*
X127938590Y-89532944D01*
X127843588Y-89469070D01*
X127772402Y-89324795D01*
X127759953Y-89270476D01*
X127692240Y-89039811D01*
X127588562Y-88901176D01*
X127445643Y-88850405D01*
X127429309Y-88850000D01*
X127284392Y-88891605D01*
X127184932Y-88999378D01*
X127132710Y-89147753D01*
X127129506Y-89311165D01*
X127177099Y-89464049D01*
G36*
X126912414Y-88430477D02*
G01*
X127000555Y-88443600D01*
X127118495Y-88477574D01*
X127158880Y-88545200D01*
X127199089Y-88627553D01*
X127230324Y-88646800D01*
X127266801Y-88604200D01*
X127275200Y-88545200D01*
X127283235Y-88495799D01*
X127320586Y-88465623D01*
X127407117Y-88450000D01*
X127562697Y-88444253D01*
X127707000Y-88443600D01*
X127916664Y-88445346D01*
X128044698Y-88453847D01*
X128111057Y-88473992D01*
X128135693Y-88510673D01*
X128138800Y-88549433D01*
X128163069Y-88626855D01*
X128202300Y-88634123D01*
X128266017Y-88566521D01*
X128272186Y-88451113D01*
X128258140Y-88405500D01*
X128203424Y-88371915D01*
X128067014Y-88351261D01*
X127840494Y-88342478D01*
X127753566Y-88342000D01*
X127524671Y-88339234D01*
X127380183Y-88329125D01*
X127303017Y-88308949D01*
X127276086Y-88275985D01*
X127275200Y-88265800D01*
X127250656Y-88198155D01*
X127229835Y-88189600D01*
X127174301Y-88230027D01*
X127155229Y-88265800D01*
X127087571Y-88323790D01*
X126997394Y-88342000D01*
X126901165Y-88359192D01*
X126868800Y-88392800D01*
X126912414Y-88430477D01*
G37*
X126912414Y-88430477D02*
X127000555Y-88443600D01*
X127118495Y-88477574D01*
X127158880Y-88545200D01*
X127199089Y-88627553D01*
X127230324Y-88646800D01*
X127266801Y-88604200D01*
X127275200Y-88545200D01*
X127283235Y-88495799D01*
X127320586Y-88465623D01*
X127407117Y-88450000D01*
X127562697Y-88444253D01*
X127707000Y-88443600D01*
X127916664Y-88445346D01*
X128044698Y-88453847D01*
X128111057Y-88473992D01*
X128135693Y-88510673D01*
X128138800Y-88549433D01*
X128163069Y-88626855D01*
X128202300Y-88634123D01*
X128266017Y-88566521D01*
X128272186Y-88451113D01*
X128258140Y-88405500D01*
X128203424Y-88371915D01*
X128067014Y-88351261D01*
X127840494Y-88342478D01*
X127753566Y-88342000D01*
X127524671Y-88339234D01*
X127380183Y-88329125D01*
X127303017Y-88308949D01*
X127276086Y-88275985D01*
X127275200Y-88265800D01*
X127250656Y-88198155D01*
X127229835Y-88189600D01*
X127174301Y-88230027D01*
X127155229Y-88265800D01*
X127087571Y-88323790D01*
X126997394Y-88342000D01*
X126901165Y-88359192D01*
X126868800Y-88392800D01*
X126912414Y-88430477D01*
G36*
X127208267Y-86597303D02*
G01*
X127271292Y-86669507D01*
X127382499Y-86763465D01*
X127476775Y-86814773D01*
X127495737Y-86818000D01*
X127611643Y-86835994D01*
X127652045Y-86848835D01*
X127691118Y-86851368D01*
X127715204Y-86810780D01*
X127727735Y-86709715D01*
X127732141Y-86530819D01*
X127732400Y-86442435D01*
X127734705Y-86229525D01*
X127744280Y-86098852D01*
X127765112Y-86031105D01*
X127801190Y-86006975D01*
X127822696Y-86005200D01*
X127931939Y-86033397D01*
X128025896Y-86084280D01*
X128110577Y-86195254D01*
X128144124Y-86347341D01*
X128125699Y-86500361D01*
X128054465Y-86614137D01*
X128037200Y-86626589D01*
X127964733Y-86696286D01*
X127933777Y-86770516D01*
X127956022Y-86814335D01*
X127973700Y-86816384D01*
X128063964Y-86774223D01*
X128166284Y-86676048D01*
X128232102Y-86580039D01*
X128285436Y-86388069D01*
X128243175Y-86183000D01*
X128130241Y-86011725D01*
X127955801Y-85911999D01*
X127709893Y-85878256D01*
X127697499Y-85878200D01*
X127552290Y-85883992D01*
X127552290Y-86005200D01*
X127594687Y-86024386D01*
X127618971Y-86094825D01*
X127629409Y-86235834D01*
X127630800Y-86360800D01*
X127626563Y-86552831D01*
X127611012Y-86662825D01*
X127579880Y-86710101D01*
X127552290Y-86716400D01*
X127448933Y-86675629D01*
X127338183Y-86576955D01*
X127252730Y-86455831D01*
X127224400Y-86360800D01*
X127261993Y-86248708D01*
X127352978Y-86128598D01*
X127464664Y-86035924D01*
X127552290Y-86005200D01*
X127552290Y-85883992D01*
X127526938Y-85885004D01*
X127416128Y-85916183D01*
X127323557Y-85987888D01*
X127271032Y-86044101D01*
X127148712Y-86234585D01*
X127127790Y-86418907D01*
X127208267Y-86597303D01*
G37*
X127208267Y-86597303D02*
X127271292Y-86669507D01*
X127382499Y-86763465D01*
X127476775Y-86814773D01*
X127495737Y-86818000D01*
X127611643Y-86835994D01*
X127652045Y-86848835D01*
X127691118Y-86851368D01*
X127715204Y-86810780D01*
X127727735Y-86709715D01*
X127732141Y-86530819D01*
X127732400Y-86442435D01*
X127734705Y-86229525D01*
X127744280Y-86098852D01*
X127765112Y-86031105D01*
X127801190Y-86006975D01*
X127822696Y-86005200D01*
X127931939Y-86033397D01*
X128025896Y-86084280D01*
X128110577Y-86195254D01*
X128144124Y-86347341D01*
X128125699Y-86500361D01*
X128054465Y-86614137D01*
X128037200Y-86626589D01*
X127964733Y-86696286D01*
X127933777Y-86770516D01*
X127956022Y-86814335D01*
X127973700Y-86816384D01*
X128063964Y-86774223D01*
X128166284Y-86676048D01*
X128232102Y-86580039D01*
X128285436Y-86388069D01*
X128243175Y-86183000D01*
X128130241Y-86011725D01*
X127955801Y-85911999D01*
X127709893Y-85878256D01*
X127697499Y-85878200D01*
X127552290Y-85883992D01*
X127552290Y-86005200D01*
X127594687Y-86024386D01*
X127618971Y-86094825D01*
X127629409Y-86235834D01*
X127630800Y-86360800D01*
X127626563Y-86552831D01*
X127611012Y-86662825D01*
X127579880Y-86710101D01*
X127552290Y-86716400D01*
X127448933Y-86675629D01*
X127338183Y-86576955D01*
X127252730Y-86455831D01*
X127224400Y-86360800D01*
X127261993Y-86248708D01*
X127352978Y-86128598D01*
X127464664Y-86035924D01*
X127552290Y-86005200D01*
X127552290Y-85883992D01*
X127526938Y-85885004D01*
X127416128Y-85916183D01*
X127323557Y-85987888D01*
X127271032Y-86044101D01*
X127148712Y-86234585D01*
X127127790Y-86418907D01*
X127208267Y-86597303D01*
G36*
X126743706Y-85560789D02*
G01*
X126815207Y-85578923D01*
X126954649Y-85590661D01*
X127173320Y-85596965D01*
X127474166Y-85598800D01*
X127773332Y-85597428D01*
X127985011Y-85592380D01*
X128123290Y-85582254D01*
X128202257Y-85565650D01*
X128236000Y-85541166D01*
X128240400Y-85522600D01*
X128212278Y-85455007D01*
X128188295Y-85446400D01*
X128172474Y-85407977D01*
X128206690Y-85310451D01*
X128213695Y-85296522D01*
X128280530Y-85114335D01*
X128267681Y-84950996D01*
X128214166Y-84829488D01*
X128097516Y-84706594D01*
X127918436Y-84618240D01*
X127714811Y-84582853D01*
X127707000Y-84582800D01*
X127693387Y-84585149D01*
X127693387Y-84735200D01*
X127918281Y-84762913D01*
X128062417Y-84848871D01*
X128131088Y-84997298D01*
X128138800Y-85090800D01*
X128117940Y-85250969D01*
X128045550Y-85352483D01*
X128025896Y-85367319D01*
X127852011Y-85436943D01*
X127648122Y-85445016D01*
X127456766Y-85394404D01*
X127349090Y-85321709D01*
X127263199Y-85206422D01*
X127224567Y-85096481D01*
X127224400Y-85090800D01*
X127270889Y-84943241D01*
X127393880Y-84823217D01*
X127568655Y-84749467D01*
X127693387Y-84735200D01*
X127693387Y-84585149D01*
X127485504Y-84621021D01*
X127306188Y-84723342D01*
X127181603Y-84871247D01*
X127124298Y-85046220D01*
X127146822Y-85229746D01*
X127199996Y-85330807D01*
X127239886Y-85395318D01*
X127230504Y-85429870D01*
X127153818Y-85446607D01*
X127013489Y-85456410D01*
X126850660Y-85477311D01*
X126748683Y-85513519D01*
X126728859Y-85535300D01*
X126743706Y-85560789D01*
G37*
X126743706Y-85560789D02*
X126815207Y-85578923D01*
X126954649Y-85590661D01*
X127173320Y-85596965D01*
X127474166Y-85598800D01*
X127773332Y-85597428D01*
X127985011Y-85592380D01*
X128123290Y-85582254D01*
X128202257Y-85565650D01*
X128236000Y-85541166D01*
X128240400Y-85522600D01*
X128212278Y-85455007D01*
X128188295Y-85446400D01*
X128172474Y-85407977D01*
X128206690Y-85310451D01*
X128213695Y-85296522D01*
X128280530Y-85114335D01*
X128267681Y-84950996D01*
X128214166Y-84829488D01*
X128097516Y-84706594D01*
X127918436Y-84618240D01*
X127714811Y-84582853D01*
X127707000Y-84582800D01*
X127693387Y-84585149D01*
X127693387Y-84735200D01*
X127918281Y-84762913D01*
X128062417Y-84848871D01*
X128131088Y-84997298D01*
X128138800Y-85090800D01*
X128117940Y-85250969D01*
X128045550Y-85352483D01*
X128025896Y-85367319D01*
X127852011Y-85436943D01*
X127648122Y-85445016D01*
X127456766Y-85394404D01*
X127349090Y-85321709D01*
X127263199Y-85206422D01*
X127224567Y-85096481D01*
X127224400Y-85090800D01*
X127270889Y-84943241D01*
X127393880Y-84823217D01*
X127568655Y-84749467D01*
X127693387Y-84735200D01*
X127693387Y-84585149D01*
X127485504Y-84621021D01*
X127306188Y-84723342D01*
X127181603Y-84871247D01*
X127124298Y-85046220D01*
X127146822Y-85229746D01*
X127199996Y-85330807D01*
X127239886Y-85395318D01*
X127230504Y-85429870D01*
X127153818Y-85446607D01*
X127013489Y-85456410D01*
X126850660Y-85477311D01*
X126748683Y-85513519D01*
X126728859Y-85535300D01*
X126743706Y-85560789D01*
G36*
X127189952Y-84287397D02*
G01*
X127249945Y-84310033D01*
X127369978Y-84322852D01*
X127566454Y-84328196D01*
X127707000Y-84328800D01*
X127950579Y-84326463D01*
X128109035Y-84317893D01*
X128198767Y-84300745D01*
X128236178Y-84272677D01*
X128240400Y-84252600D01*
X128214567Y-84184973D01*
X128192612Y-84176400D01*
X128179783Y-84138230D01*
X128213220Y-84045466D01*
X128217699Y-84036700D01*
X128279647Y-83873025D01*
X128270462Y-83722185D01*
X128239986Y-83633462D01*
X128145807Y-83532087D01*
X127961545Y-83460758D01*
X127694835Y-83421707D01*
X127491100Y-83414683D01*
X127310014Y-83419953D01*
X127211007Y-83439214D01*
X127174998Y-83477027D01*
X127173600Y-83490600D01*
X127192305Y-83529086D01*
X127260314Y-83552463D01*
X127395462Y-83563954D01*
X127595240Y-83566800D01*
X127838087Y-83573107D01*
X127996822Y-83598016D01*
X128088473Y-83650510D01*
X128130072Y-83739569D01*
X128138800Y-83853479D01*
X128113123Y-83997825D01*
X128028207Y-84095284D01*
X127872222Y-84152272D01*
X127633338Y-84175202D01*
X127543296Y-84176400D01*
X127345757Y-84180597D01*
X127231052Y-84195733D01*
X127180664Y-84225625D01*
X127173600Y-84252600D01*
X127189952Y-84287397D01*
G37*
X127189952Y-84287397D02*
X127249945Y-84310033D01*
X127369978Y-84322852D01*
X127566454Y-84328196D01*
X127707000Y-84328800D01*
X127950579Y-84326463D01*
X128109035Y-84317893D01*
X128198767Y-84300745D01*
X128236178Y-84272677D01*
X128240400Y-84252600D01*
X128214567Y-84184973D01*
X128192612Y-84176400D01*
X128179783Y-84138230D01*
X128213220Y-84045466D01*
X128217699Y-84036700D01*
X128279647Y-83873025D01*
X128270462Y-83722185D01*
X128239986Y-83633462D01*
X128145807Y-83532087D01*
X127961545Y-83460758D01*
X127694835Y-83421707D01*
X127491100Y-83414683D01*
X127310014Y-83419953D01*
X127211007Y-83439214D01*
X127174998Y-83477027D01*
X127173600Y-83490600D01*
X127192305Y-83529086D01*
X127260314Y-83552463D01*
X127395462Y-83563954D01*
X127595240Y-83566800D01*
X127838087Y-83573107D01*
X127996822Y-83598016D01*
X128088473Y-83650510D01*
X128130072Y-83739569D01*
X128138800Y-83853479D01*
X128113123Y-83997825D01*
X128028207Y-84095284D01*
X127872222Y-84152272D01*
X127633338Y-84175202D01*
X127543296Y-84176400D01*
X127345757Y-84180597D01*
X127231052Y-84195733D01*
X127180664Y-84225625D01*
X127173600Y-84252600D01*
X127189952Y-84287397D01*
G36*
X126912414Y-82994877D02*
G01*
X127000555Y-83008000D01*
X127118495Y-83041974D01*
X127158880Y-83109600D01*
X127199089Y-83191953D01*
X127230324Y-83211200D01*
X127266801Y-83168600D01*
X127275200Y-83109600D01*
X127283660Y-83059041D01*
X127322648Y-83028710D01*
X127412571Y-83013520D01*
X127573836Y-83008386D01*
X127682857Y-83008000D01*
X127885768Y-83009661D01*
X128010554Y-83019337D01*
X128080685Y-83044066D01*
X128119634Y-83090886D01*
X128142974Y-83145978D01*
X128186235Y-83234450D01*
X128223641Y-83234589D01*
X128242538Y-83209478D01*
X128287720Y-83083370D01*
X128240108Y-82977671D01*
X128230240Y-82967360D01*
X128143809Y-82934593D01*
X127969973Y-82913726D01*
X127722407Y-82906400D01*
X127722240Y-82906400D01*
X127502037Y-82903322D01*
X127365807Y-82892101D01*
X127296051Y-82869754D01*
X127275272Y-82833300D01*
X127275200Y-82830200D01*
X127250656Y-82762555D01*
X127229835Y-82754000D01*
X127174301Y-82794427D01*
X127155229Y-82830200D01*
X127087571Y-82888190D01*
X126997394Y-82906400D01*
X126901165Y-82923592D01*
X126868800Y-82957200D01*
X126912414Y-82994877D01*
G37*
X126912414Y-82994877D02*
X127000555Y-83008000D01*
X127118495Y-83041974D01*
X127158880Y-83109600D01*
X127199089Y-83191953D01*
X127230324Y-83211200D01*
X127266801Y-83168600D01*
X127275200Y-83109600D01*
X127283660Y-83059041D01*
X127322648Y-83028710D01*
X127412571Y-83013520D01*
X127573836Y-83008386D01*
X127682857Y-83008000D01*
X127885768Y-83009661D01*
X128010554Y-83019337D01*
X128080685Y-83044066D01*
X128119634Y-83090886D01*
X128142974Y-83145978D01*
X128186235Y-83234450D01*
X128223641Y-83234589D01*
X128242538Y-83209478D01*
X128287720Y-83083370D01*
X128240108Y-82977671D01*
X128230240Y-82967360D01*
X128143809Y-82934593D01*
X127969973Y-82913726D01*
X127722407Y-82906400D01*
X127722240Y-82906400D01*
X127502037Y-82903322D01*
X127365807Y-82892101D01*
X127296051Y-82869754D01*
X127275272Y-82833300D01*
X127275200Y-82830200D01*
X127250656Y-82762555D01*
X127229835Y-82754000D01*
X127174301Y-82794427D01*
X127155229Y-82830200D01*
X127087571Y-82888190D01*
X126997394Y-82906400D01*
X126901165Y-82923592D01*
X126868800Y-82957200D01*
X126912414Y-82994877D01*
G36*
X126705924Y-82219577D02*
G01*
X126743186Y-82328843D01*
X126823758Y-82419622D01*
X126836463Y-82430719D01*
X126969894Y-82522435D01*
X127069757Y-82546788D01*
X127119878Y-82501299D01*
X127122800Y-82474600D01*
X127086187Y-82407161D01*
X127054473Y-82398400D01*
X126944311Y-82354200D01*
X126865588Y-82241891D01*
X126825009Y-82091904D01*
X126829278Y-81934675D01*
X126885101Y-81800636D01*
X126915410Y-81767191D01*
X127052793Y-81689139D01*
X127179356Y-81709859D01*
X127291978Y-81826816D01*
X127387539Y-82037472D01*
X127429938Y-82185179D01*
X127519437Y-82406087D01*
X127651531Y-82547429D01*
X127812741Y-82603338D01*
X127989587Y-82567945D01*
X128117091Y-82484310D01*
X128217879Y-82339969D01*
X128273994Y-82142717D01*
X128279562Y-81933545D01*
X128228709Y-81753443D01*
X128223236Y-81743591D01*
X128135527Y-81635488D01*
X128023008Y-81550403D01*
X127910365Y-81499247D01*
X127822281Y-81492933D01*
X127783440Y-81542374D01*
X127783200Y-81549062D01*
X127825867Y-81610565D01*
X127928902Y-81669101D01*
X127932722Y-81670563D01*
X128062250Y-81769484D01*
X128137719Y-81931754D01*
X128148823Y-82129025D01*
X128131390Y-82217028D01*
X128059798Y-82369049D01*
X127942865Y-82439039D01*
X127854573Y-82448422D01*
X127733450Y-82412500D01*
X127631846Y-82296721D01*
X127542963Y-82091980D01*
X127510903Y-81988241D01*
X127423161Y-81753968D01*
X127314519Y-81609242D01*
X127174250Y-81542518D01*
X127089555Y-81534800D01*
X126910163Y-81579340D01*
X126780611Y-81705990D01*
X126708859Y-81904286D01*
X126696861Y-82050692D01*
X126705924Y-82219577D01*
G37*
X126705924Y-82219577D02*
X126743186Y-82328843D01*
X126823758Y-82419622D01*
X126836463Y-82430719D01*
X126969894Y-82522435D01*
X127069757Y-82546788D01*
X127119878Y-82501299D01*
X127122800Y-82474600D01*
X127086187Y-82407161D01*
X127054473Y-82398400D01*
X126944311Y-82354200D01*
X126865588Y-82241891D01*
X126825009Y-82091904D01*
X126829278Y-81934675D01*
X126885101Y-81800636D01*
X126915410Y-81767191D01*
X127052793Y-81689139D01*
X127179356Y-81709859D01*
X127291978Y-81826816D01*
X127387539Y-82037472D01*
X127429938Y-82185179D01*
X127519437Y-82406087D01*
X127651531Y-82547429D01*
X127812741Y-82603338D01*
X127989587Y-82567945D01*
X128117091Y-82484310D01*
X128217879Y-82339969D01*
X128273994Y-82142717D01*
X128279562Y-81933545D01*
X128228709Y-81753443D01*
X128223236Y-81743591D01*
X128135527Y-81635488D01*
X128023008Y-81550403D01*
X127910365Y-81499247D01*
X127822281Y-81492933D01*
X127783440Y-81542374D01*
X127783200Y-81549062D01*
X127825867Y-81610565D01*
X127928902Y-81669101D01*
X127932722Y-81670563D01*
X128062250Y-81769484D01*
X128137719Y-81931754D01*
X128148823Y-82129025D01*
X128131390Y-82217028D01*
X128059798Y-82369049D01*
X127942865Y-82439039D01*
X127854573Y-82448422D01*
X127733450Y-82412500D01*
X127631846Y-82296721D01*
X127542963Y-82091980D01*
X127510903Y-81988241D01*
X127423161Y-81753968D01*
X127314519Y-81609242D01*
X127174250Y-81542518D01*
X127089555Y-81534800D01*
X126910163Y-81579340D01*
X126780611Y-81705990D01*
X126708859Y-81904286D01*
X126696861Y-82050692D01*
X126705924Y-82219577D01*
G36*
X126914064Y-79487197D02*
G01*
X127017666Y-79502800D01*
X127133855Y-79523623D01*
X127185051Y-79599628D01*
X127189017Y-79617100D01*
X127211501Y-79731400D01*
X127249275Y-79617100D01*
X127275234Y-79561122D01*
X127322357Y-79527157D01*
X127412728Y-79509761D01*
X127568429Y-79503489D01*
X127712924Y-79502800D01*
X127920862Y-79504594D01*
X128047303Y-79513306D01*
X128112333Y-79533927D01*
X128136037Y-79571447D01*
X128138800Y-79608633D01*
X128163938Y-79683976D01*
X128217739Y-79685964D01*
X128267778Y-79622427D01*
X128280446Y-79574427D01*
X128263031Y-79461089D01*
X128232186Y-79413306D01*
X128141389Y-79378059D01*
X127958538Y-79356757D01*
X127722240Y-79350400D01*
X127502037Y-79347322D01*
X127365807Y-79336101D01*
X127296051Y-79313754D01*
X127275272Y-79277300D01*
X127275200Y-79274200D01*
X127247769Y-79206596D01*
X127224400Y-79198000D01*
X127179331Y-79239145D01*
X127173600Y-79274200D01*
X127128163Y-79334695D01*
X127021200Y-79350400D01*
X126900208Y-79373118D01*
X126868800Y-79426600D01*
X126914064Y-79487197D01*
G37*
X126914064Y-79487197D02*
X127017666Y-79502800D01*
X127133855Y-79523623D01*
X127185051Y-79599628D01*
X127189017Y-79617100D01*
X127211501Y-79731400D01*
X127249275Y-79617100D01*
X127275234Y-79561122D01*
X127322357Y-79527157D01*
X127412728Y-79509761D01*
X127568429Y-79503489D01*
X127712924Y-79502800D01*
X127920862Y-79504594D01*
X128047303Y-79513306D01*
X128112333Y-79533927D01*
X128136037Y-79571447D01*
X128138800Y-79608633D01*
X128163938Y-79683976D01*
X128217739Y-79685964D01*
X128267778Y-79622427D01*
X128280446Y-79574427D01*
X128263031Y-79461089D01*
X128232186Y-79413306D01*
X128141389Y-79378059D01*
X127958538Y-79356757D01*
X127722240Y-79350400D01*
X127502037Y-79347322D01*
X127365807Y-79336101D01*
X127296051Y-79313754D01*
X127275272Y-79277300D01*
X127275200Y-79274200D01*
X127247769Y-79206596D01*
X127224400Y-79198000D01*
X127179331Y-79239145D01*
X127173600Y-79274200D01*
X127128163Y-79334695D01*
X127021200Y-79350400D01*
X126900208Y-79373118D01*
X126868800Y-79426600D01*
X126914064Y-79487197D01*
G36*
X127128459Y-78251341D02*
G01*
X127194825Y-78402086D01*
X127224400Y-78436000D01*
X127326986Y-78510686D01*
X127420543Y-78536851D01*
X127474494Y-78508381D01*
X127478400Y-78486800D01*
X127440598Y-78437467D01*
X127428771Y-78436000D01*
X127368148Y-78397651D01*
X127296171Y-78309370D01*
X127243274Y-78165923D01*
X127254749Y-78025440D01*
X127325009Y-77924618D01*
X127357400Y-77907326D01*
X127470185Y-77910391D01*
X127564129Y-78012476D01*
X127635161Y-78200617D01*
X127722809Y-78425032D01*
X127840430Y-78554333D01*
X127961000Y-78588400D01*
X128097129Y-78543351D01*
X128200672Y-78426265D01*
X128261324Y-78264227D01*
X128268784Y-78084327D01*
X128215682Y-77918788D01*
X128127842Y-77813179D01*
X128019527Y-77744857D01*
X127924356Y-77731783D01*
X127895656Y-77747809D01*
X127909286Y-77796674D01*
X127984241Y-77875834D01*
X128004863Y-77892918D01*
X128099126Y-77987192D01*
X128132594Y-78093764D01*
X128129877Y-78208170D01*
X128110079Y-78341168D01*
X128065215Y-78403675D01*
X127976587Y-78426395D01*
X127894539Y-78426376D01*
X127840723Y-78387518D01*
X127795498Y-78287190D01*
X127761485Y-78178562D01*
X127691505Y-77973418D01*
X127621079Y-77850231D01*
X127534706Y-77790479D01*
X127424260Y-77775600D01*
X127283096Y-77819356D01*
X127181082Y-77931930D01*
X127126708Y-78085273D01*
X127128459Y-78251341D01*
G37*
X127128459Y-78251341D02*
X127194825Y-78402086D01*
X127224400Y-78436000D01*
X127326986Y-78510686D01*
X127420543Y-78536851D01*
X127474494Y-78508381D01*
X127478400Y-78486800D01*
X127440598Y-78437467D01*
X127428771Y-78436000D01*
X127368148Y-78397651D01*
X127296171Y-78309370D01*
X127243274Y-78165923D01*
X127254749Y-78025440D01*
X127325009Y-77924618D01*
X127357400Y-77907326D01*
X127470185Y-77910391D01*
X127564129Y-78012476D01*
X127635161Y-78200617D01*
X127722809Y-78425032D01*
X127840430Y-78554333D01*
X127961000Y-78588400D01*
X128097129Y-78543351D01*
X128200672Y-78426265D01*
X128261324Y-78264227D01*
X128268784Y-78084327D01*
X128215682Y-77918788D01*
X128127842Y-77813179D01*
X128019527Y-77744857D01*
X127924356Y-77731783D01*
X127895656Y-77747809D01*
X127909286Y-77796674D01*
X127984241Y-77875834D01*
X128004863Y-77892918D01*
X128099126Y-77987192D01*
X128132594Y-78093764D01*
X128129877Y-78208170D01*
X128110079Y-78341168D01*
X128065215Y-78403675D01*
X127976587Y-78426395D01*
X127894539Y-78426376D01*
X127840723Y-78387518D01*
X127795498Y-78287190D01*
X127761485Y-78178562D01*
X127691505Y-77973418D01*
X127621079Y-77850231D01*
X127534706Y-77790479D01*
X127424260Y-77775600D01*
X127283096Y-77819356D01*
X127181082Y-77931930D01*
X127126708Y-78085273D01*
X127128459Y-78251341D01*
G36*
X127170484Y-76534439D02*
G01*
X127291460Y-76687629D01*
X127484369Y-76781452D01*
X127541900Y-76793361D01*
X127732400Y-76823693D01*
X127732400Y-76410646D01*
X127733903Y-76206987D01*
X127742362Y-76084391D01*
X127763698Y-76022324D01*
X127803833Y-76000255D01*
X127851526Y-75997600D01*
X127992373Y-76040590D01*
X128090103Y-76150444D01*
X128136158Y-76298481D01*
X128121981Y-76456023D01*
X128039014Y-76594390D01*
X128031699Y-76601421D01*
X127949750Y-76703610D01*
X127945019Y-76765225D01*
X128004374Y-76768026D01*
X128104613Y-76702696D01*
X128223132Y-76542311D01*
X128273241Y-76347590D01*
X128247357Y-76156892D01*
X128222832Y-76104791D01*
X128087292Y-75958622D01*
X127901251Y-75872441D01*
X127691396Y-75845776D01*
X127532887Y-75870572D01*
X127532887Y-75997600D01*
X127585994Y-76008901D01*
X127615608Y-76057650D01*
X127628331Y-76166117D01*
X127630800Y-76327800D01*
X127628485Y-76505356D01*
X127615797Y-76604259D01*
X127584113Y-76647442D01*
X127524815Y-76657836D01*
X127506680Y-76658000D01*
X127381014Y-76613659D01*
X127276134Y-76504934D01*
X127225308Y-76368271D01*
X127224400Y-76348747D01*
X127260747Y-76233619D01*
X127348616Y-76113036D01*
X127456247Y-76023149D01*
X127532887Y-75997600D01*
X127532887Y-75870572D01*
X127484414Y-75878156D01*
X127306993Y-75969109D01*
X127185819Y-76118161D01*
X127183490Y-76123180D01*
X127131231Y-76340187D01*
X127170484Y-76534439D01*
G37*
X127170484Y-76534439D02*
X127291460Y-76687629D01*
X127484369Y-76781452D01*
X127541900Y-76793361D01*
X127732400Y-76823693D01*
X127732400Y-76410646D01*
X127733903Y-76206987D01*
X127742362Y-76084391D01*
X127763698Y-76022324D01*
X127803833Y-76000255D01*
X127851526Y-75997600D01*
X127992373Y-76040590D01*
X128090103Y-76150444D01*
X128136158Y-76298481D01*
X128121981Y-76456023D01*
X128039014Y-76594390D01*
X128031699Y-76601421D01*
X127949750Y-76703610D01*
X127945019Y-76765225D01*
X128004374Y-76768026D01*
X128104613Y-76702696D01*
X128223132Y-76542311D01*
X128273241Y-76347590D01*
X128247357Y-76156892D01*
X128222832Y-76104791D01*
X128087292Y-75958622D01*
X127901251Y-75872441D01*
X127691396Y-75845776D01*
X127532887Y-75870572D01*
X127532887Y-75997600D01*
X127585994Y-76008901D01*
X127615608Y-76057650D01*
X127628331Y-76166117D01*
X127630800Y-76327800D01*
X127628485Y-76505356D01*
X127615797Y-76604259D01*
X127584113Y-76647442D01*
X127524815Y-76657836D01*
X127506680Y-76658000D01*
X127381014Y-76613659D01*
X127276134Y-76504934D01*
X127225308Y-76368271D01*
X127224400Y-76348747D01*
X127260747Y-76233619D01*
X127348616Y-76113036D01*
X127456247Y-76023149D01*
X127532887Y-75997600D01*
X127532887Y-75870572D01*
X127484414Y-75878156D01*
X127306993Y-75969109D01*
X127185819Y-76118161D01*
X127183490Y-76123180D01*
X127131231Y-76340187D01*
X127170484Y-76534439D01*
G36*
X126727998Y-72809358D02*
G01*
X126773377Y-72831028D01*
X126868414Y-72842542D01*
X127028986Y-72845492D01*
X127270971Y-72841467D01*
X127350388Y-72839443D01*
X127615692Y-72831318D01*
X127799748Y-72820901D01*
X127922893Y-72804202D01*
X128005465Y-72777231D01*
X128067801Y-72735999D01*
X128117954Y-72688879D01*
X128226698Y-72515591D01*
X128275897Y-72295504D01*
X128259898Y-72067947D01*
X128223054Y-71957768D01*
X128131647Y-71828859D01*
X128016684Y-71741868D01*
X127909787Y-71714025D01*
X127743132Y-71693931D01*
X127538885Y-71681564D01*
X127319216Y-71676905D01*
X127106291Y-71679930D01*
X126922277Y-71690620D01*
X126789343Y-71708953D01*
X126729656Y-71734908D01*
X126728934Y-71743100D01*
X126780390Y-71775108D01*
X126915579Y-71800607D01*
X127141018Y-71820506D01*
X127365850Y-71832000D01*
X127608882Y-71846112D01*
X127816103Y-71865796D01*
X127965640Y-71888452D01*
X128035619Y-71911479D01*
X128035768Y-71911626D01*
X128108595Y-72040801D01*
X128145132Y-72219421D01*
X128136291Y-72399041D01*
X128131211Y-72420404D01*
X128084803Y-72528877D01*
X128002628Y-72605752D01*
X127869669Y-72655842D01*
X127670911Y-72683962D01*
X127391336Y-72694925D01*
X127272809Y-72695600D01*
X127025107Y-72697557D01*
X126862307Y-72705034D01*
X126767755Y-72720433D01*
X126724802Y-72746159D01*
X126716400Y-72775943D01*
X126727998Y-72809358D01*
G37*
X126727998Y-72809358D02*
X126773377Y-72831028D01*
X126868414Y-72842542D01*
X127028986Y-72845492D01*
X127270971Y-72841467D01*
X127350388Y-72839443D01*
X127615692Y-72831318D01*
X127799748Y-72820901D01*
X127922893Y-72804202D01*
X128005465Y-72777231D01*
X128067801Y-72735999D01*
X128117954Y-72688879D01*
X128226698Y-72515591D01*
X128275897Y-72295504D01*
X128259898Y-72067947D01*
X128223054Y-71957768D01*
X128131647Y-71828859D01*
X128016684Y-71741868D01*
X127909787Y-71714025D01*
X127743132Y-71693931D01*
X127538885Y-71681564D01*
X127319216Y-71676905D01*
X127106291Y-71679930D01*
X126922277Y-71690620D01*
X126789343Y-71708953D01*
X126729656Y-71734908D01*
X126728934Y-71743100D01*
X126780390Y-71775108D01*
X126915579Y-71800607D01*
X127141018Y-71820506D01*
X127365850Y-71832000D01*
X127608882Y-71846112D01*
X127816103Y-71865796D01*
X127965640Y-71888452D01*
X128035619Y-71911479D01*
X128035768Y-71911626D01*
X128108595Y-72040801D01*
X128145132Y-72219421D01*
X128136291Y-72399041D01*
X128131211Y-72420404D01*
X128084803Y-72528877D01*
X128002628Y-72605752D01*
X127869669Y-72655842D01*
X127670911Y-72683962D01*
X127391336Y-72694925D01*
X127272809Y-72695600D01*
X127025107Y-72697557D01*
X126862307Y-72705034D01*
X126767755Y-72720433D01*
X126724802Y-72746159D01*
X126716400Y-72775943D01*
X126727998Y-72809358D01*
G36*
X114713508Y-65972257D02*
G01*
X114881745Y-66031742D01*
X115123473Y-66098679D01*
X115429674Y-66170689D01*
X115791330Y-66245390D01*
X116199422Y-66320403D01*
X116429400Y-66359137D01*
X116548444Y-66378003D01*
X116664676Y-66394586D01*
X116785352Y-66409063D01*
X116917727Y-66421615D01*
X117069060Y-66432420D01*
X117246604Y-66441657D01*
X117457618Y-66449505D01*
X117709358Y-66456143D01*
X118009079Y-66461749D01*
X118364038Y-66466503D01*
X118781492Y-66470583D01*
X119268697Y-66474169D01*
X119832908Y-66477439D01*
X120481384Y-66480573D01*
X121221379Y-66483749D01*
X121535590Y-66485034D01*
X125981381Y-66503072D01*
X126936888Y-67389536D01*
X127233440Y-67663509D01*
X127466373Y-67875219D01*
X127645633Y-68032479D01*
X127781168Y-68143103D01*
X127882922Y-68214904D01*
X127960843Y-68255697D01*
X128024876Y-68273295D01*
X128065277Y-68276000D01*
X128238158Y-68276000D01*
X128265800Y-66374936D01*
X128443600Y-66255172D01*
X128566285Y-66147857D01*
X128619336Y-66047378D01*
X128595692Y-65972415D01*
X128558212Y-65952004D01*
X128496780Y-65977794D01*
X128445169Y-66062070D01*
X128370070Y-66167393D01*
X128265462Y-66193200D01*
X128156771Y-66219858D01*
X128106370Y-66269400D01*
X128050337Y-66318650D01*
X127920176Y-66342159D01*
X127803164Y-66345600D01*
X127643620Y-66341012D01*
X127561223Y-66321249D01*
X127531709Y-66277314D01*
X127529200Y-66244000D01*
X127523004Y-66200346D01*
X127492957Y-66171372D01*
X127421871Y-66154087D01*
X127292557Y-66145503D01*
X127087825Y-66142629D01*
X126945000Y-66142400D01*
X126693992Y-66143477D01*
X126527389Y-66148702D01*
X126428002Y-66161065D01*
X126378642Y-66183555D01*
X126362120Y-66219160D01*
X126360800Y-66244000D01*
X126340911Y-66314024D01*
X126263266Y-66342278D01*
X126183000Y-66345600D01*
X126068516Y-66339255D01*
X126018111Y-66300540D01*
X126005527Y-66199933D01*
X126005200Y-66145692D01*
X126005200Y-65945784D01*
X125524147Y-65948402D01*
X125296728Y-65951893D01*
X125151101Y-65961851D01*
X125067491Y-65981996D01*
X125026127Y-66016048D01*
X125013432Y-66044479D01*
X124956338Y-66137343D01*
X124853468Y-66246810D01*
X124830187Y-66267168D01*
X124757163Y-66323330D01*
X124682508Y-66360346D01*
X124583772Y-66382184D01*
X124438501Y-66392808D01*
X124224245Y-66396186D01*
X124098692Y-66396400D01*
X123784186Y-66390495D01*
X123553957Y-66369586D01*
X123391201Y-66328881D01*
X123279108Y-66263588D01*
X123200873Y-66168915D01*
X123181990Y-66135032D01*
X123118464Y-65966968D01*
X123128895Y-65817305D01*
X123181990Y-65692567D01*
X123253508Y-65588409D01*
X123353975Y-65515031D01*
X123500198Y-65467641D01*
X123708984Y-65441446D01*
X123997140Y-65431655D01*
X124098692Y-65431200D01*
X124351512Y-65432604D01*
X124525195Y-65439460D01*
X124642192Y-65455736D01*
X124724955Y-65485398D01*
X124795935Y-65532412D01*
X124830187Y-65560431D01*
X124937962Y-65667925D01*
X125007276Y-65767705D01*
X125013432Y-65783120D01*
X125039024Y-65827227D01*
X125095082Y-65855210D01*
X125201376Y-65870790D01*
X125377680Y-65877686D01*
X125524147Y-65879197D01*
X126005200Y-65881815D01*
X126005200Y-65681907D01*
X126010842Y-65553188D01*
X126045276Y-65496516D01*
X126134756Y-65482368D01*
X126183000Y-65482000D01*
X126305543Y-65493365D01*
X126354988Y-65537733D01*
X126360800Y-65583600D01*
X126366995Y-65627253D01*
X126397042Y-65656227D01*
X126468128Y-65673512D01*
X126597442Y-65682096D01*
X126802174Y-65684970D01*
X126945000Y-65685200D01*
X127196007Y-65684122D01*
X127362610Y-65678897D01*
X127461997Y-65666534D01*
X127511357Y-65644044D01*
X127527879Y-65608439D01*
X127529200Y-65583600D01*
X127541570Y-65524432D01*
X127594860Y-65493875D01*
X127713332Y-65482930D01*
X127803164Y-65482000D01*
X127984201Y-65492328D01*
X128081651Y-65526021D01*
X128106370Y-65558200D01*
X128173970Y-65615979D01*
X128265462Y-65634400D01*
X128383218Y-65669800D01*
X128445169Y-65765529D01*
X128501110Y-65854028D01*
X128558212Y-65875619D01*
X128628731Y-65816981D01*
X128613675Y-65727788D01*
X128518189Y-65623229D01*
X128458154Y-65580199D01*
X128265800Y-65455776D01*
X128238158Y-63551600D01*
X128067831Y-63551600D01*
X128007842Y-63558348D01*
X127939612Y-63583771D01*
X127853249Y-63635633D01*
X127738859Y-63721699D01*
X127586551Y-63849735D01*
X127386433Y-64027505D01*
X127128611Y-64262775D01*
X126938652Y-64437959D01*
X125979800Y-65324318D01*
X121534800Y-65342502D01*
X120758525Y-65345749D01*
X120076548Y-65348855D01*
X119481569Y-65352007D01*
X118966285Y-65355389D01*
X118523397Y-65359187D01*
X118145602Y-65363587D01*
X117825599Y-65368773D01*
X117556088Y-65374932D01*
X117329766Y-65382249D01*
X117139334Y-65390909D01*
X116977490Y-65401097D01*
X116836931Y-65413000D01*
X116710359Y-65426802D01*
X116590470Y-65442689D01*
X116469965Y-65460846D01*
X116393248Y-65473082D01*
X116077777Y-65528128D01*
X115750896Y-65592364D01*
X115431912Y-65661266D01*
X115140132Y-65730314D01*
X114894864Y-65794986D01*
X114715414Y-65850761D01*
X114633583Y-65885165D01*
X114627781Y-65922605D01*
X114713508Y-65972257D01*
G37*
X114713508Y-65972257D02*
X114881745Y-66031742D01*
X115123473Y-66098679D01*
X115429674Y-66170689D01*
X115791330Y-66245390D01*
X116199422Y-66320403D01*
X116429400Y-66359137D01*
X116548444Y-66378003D01*
X116664676Y-66394586D01*
X116785352Y-66409063D01*
X116917727Y-66421615D01*
X117069060Y-66432420D01*
X117246604Y-66441657D01*
X117457618Y-66449505D01*
X117709358Y-66456143D01*
X118009079Y-66461749D01*
X118364038Y-66466503D01*
X118781492Y-66470583D01*
X119268697Y-66474169D01*
X119832908Y-66477439D01*
X120481384Y-66480573D01*
X121221379Y-66483749D01*
X121535590Y-66485034D01*
X125981381Y-66503072D01*
X126936888Y-67389536D01*
X127233440Y-67663509D01*
X127466373Y-67875219D01*
X127645633Y-68032479D01*
X127781168Y-68143103D01*
X127882922Y-68214904D01*
X127960843Y-68255697D01*
X128024876Y-68273295D01*
X128065277Y-68276000D01*
X128238158Y-68276000D01*
X128265800Y-66374936D01*
X128443600Y-66255172D01*
X128566285Y-66147857D01*
X128619336Y-66047378D01*
X128595692Y-65972415D01*
X128558212Y-65952004D01*
X128496780Y-65977794D01*
X128445169Y-66062070D01*
X128370070Y-66167393D01*
X128265462Y-66193200D01*
X128156771Y-66219858D01*
X128106370Y-66269400D01*
X128050337Y-66318650D01*
X127920176Y-66342159D01*
X127803164Y-66345600D01*
X127643620Y-66341012D01*
X127561223Y-66321249D01*
X127531709Y-66277314D01*
X127529200Y-66244000D01*
X127523004Y-66200346D01*
X127492957Y-66171372D01*
X127421871Y-66154087D01*
X127292557Y-66145503D01*
X127087825Y-66142629D01*
X126945000Y-66142400D01*
X126693992Y-66143477D01*
X126527389Y-66148702D01*
X126428002Y-66161065D01*
X126378642Y-66183555D01*
X126362120Y-66219160D01*
X126360800Y-66244000D01*
X126340911Y-66314024D01*
X126263266Y-66342278D01*
X126183000Y-66345600D01*
X126068516Y-66339255D01*
X126018111Y-66300540D01*
X126005527Y-66199933D01*
X126005200Y-66145692D01*
X126005200Y-65945784D01*
X125524147Y-65948402D01*
X125296728Y-65951893D01*
X125151101Y-65961851D01*
X125067491Y-65981996D01*
X125026127Y-66016048D01*
X125013432Y-66044479D01*
X124956338Y-66137343D01*
X124853468Y-66246810D01*
X124830187Y-66267168D01*
X124757163Y-66323330D01*
X124682508Y-66360346D01*
X124583772Y-66382184D01*
X124438501Y-66392808D01*
X124224245Y-66396186D01*
X124098692Y-66396400D01*
X123784186Y-66390495D01*
X123553957Y-66369586D01*
X123391201Y-66328881D01*
X123279108Y-66263588D01*
X123200873Y-66168915D01*
X123181990Y-66135032D01*
X123118464Y-65966968D01*
X123128895Y-65817305D01*
X123181990Y-65692567D01*
X123253508Y-65588409D01*
X123353975Y-65515031D01*
X123500198Y-65467641D01*
X123708984Y-65441446D01*
X123997140Y-65431655D01*
X124098692Y-65431200D01*
X124351512Y-65432604D01*
X124525195Y-65439460D01*
X124642192Y-65455736D01*
X124724955Y-65485398D01*
X124795935Y-65532412D01*
X124830187Y-65560431D01*
X124937962Y-65667925D01*
X125007276Y-65767705D01*
X125013432Y-65783120D01*
X125039024Y-65827227D01*
X125095082Y-65855210D01*
X125201376Y-65870790D01*
X125377680Y-65877686D01*
X125524147Y-65879197D01*
X126005200Y-65881815D01*
X126005200Y-65681907D01*
X126010842Y-65553188D01*
X126045276Y-65496516D01*
X126134756Y-65482368D01*
X126183000Y-65482000D01*
X126305543Y-65493365D01*
X126354988Y-65537733D01*
X126360800Y-65583600D01*
X126366995Y-65627253D01*
X126397042Y-65656227D01*
X126468128Y-65673512D01*
X126597442Y-65682096D01*
X126802174Y-65684970D01*
X126945000Y-65685200D01*
X127196007Y-65684122D01*
X127362610Y-65678897D01*
X127461997Y-65666534D01*
X127511357Y-65644044D01*
X127527879Y-65608439D01*
X127529200Y-65583600D01*
X127541570Y-65524432D01*
X127594860Y-65493875D01*
X127713332Y-65482930D01*
X127803164Y-65482000D01*
X127984201Y-65492328D01*
X128081651Y-65526021D01*
X128106370Y-65558200D01*
X128173970Y-65615979D01*
X128265462Y-65634400D01*
X128383218Y-65669800D01*
X128445169Y-65765529D01*
X128501110Y-65854028D01*
X128558212Y-65875619D01*
X128628731Y-65816981D01*
X128613675Y-65727788D01*
X128518189Y-65623229D01*
X128458154Y-65580199D01*
X128265800Y-65455776D01*
X128238158Y-63551600D01*
X128067831Y-63551600D01*
X128007842Y-63558348D01*
X127939612Y-63583771D01*
X127853249Y-63635633D01*
X127738859Y-63721699D01*
X127586551Y-63849735D01*
X127386433Y-64027505D01*
X127128611Y-64262775D01*
X126938652Y-64437959D01*
X125979800Y-65324318D01*
X121534800Y-65342502D01*
X120758525Y-65345749D01*
X120076548Y-65348855D01*
X119481569Y-65352007D01*
X118966285Y-65355389D01*
X118523397Y-65359187D01*
X118145602Y-65363587D01*
X117825599Y-65368773D01*
X117556088Y-65374932D01*
X117329766Y-65382249D01*
X117139334Y-65390909D01*
X116977490Y-65401097D01*
X116836931Y-65413000D01*
X116710359Y-65426802D01*
X116590470Y-65442689D01*
X116469965Y-65460846D01*
X116393248Y-65473082D01*
X116077777Y-65528128D01*
X115750896Y-65592364D01*
X115431912Y-65661266D01*
X115140132Y-65730314D01*
X114894864Y-65794986D01*
X114715414Y-65850761D01*
X114633583Y-65885165D01*
X114627781Y-65922605D01*
X114713508Y-65972257D01*
G36*
X127138071Y-97724808D02*
G01*
X127186283Y-97847306D01*
X127229976Y-97945019D01*
X127227125Y-97992995D01*
X127222037Y-97994000D01*
X127179691Y-98035456D01*
X127173600Y-98074343D01*
X127185153Y-98107638D01*
X127230358Y-98129285D01*
X127325026Y-98140853D01*
X127484974Y-98143913D01*
X127726013Y-98140035D01*
X127813118Y-98137843D01*
X128078349Y-98130060D01*
X128261788Y-98120426D01*
X128383217Y-98104804D01*
X128462416Y-98079056D01*
X128519169Y-98039044D01*
X128573257Y-97980631D01*
X128575118Y-97978467D01*
X128675840Y-97789978D01*
X128695007Y-97576687D01*
X128631703Y-97373935D01*
X128592312Y-97315050D01*
X128494937Y-97214101D01*
X128423128Y-97182190D01*
X128392939Y-97226001D01*
X128392800Y-97232000D01*
X128425589Y-97302081D01*
X128494400Y-97384400D01*
X128571056Y-97502566D01*
X128596000Y-97606149D01*
X128558222Y-97752058D01*
X128464058Y-97886575D01*
X128342261Y-97975992D01*
X128265125Y-97994000D01*
X128185314Y-97987097D01*
X128174223Y-97947272D01*
X128217699Y-97854300D01*
X128283822Y-97660257D01*
X128257551Y-97488313D01*
X128149852Y-97329407D01*
X127966207Y-97195321D01*
X127740954Y-97139716D01*
X127550904Y-97161068D01*
X127550904Y-97288952D01*
X127699446Y-97291305D01*
X127734504Y-97294481D01*
X127942975Y-97330736D01*
X128068409Y-97400030D01*
X128127657Y-97516836D01*
X128138800Y-97641739D01*
X128116747Y-97801923D01*
X128040812Y-97903867D01*
X128025896Y-97914919D01*
X127852011Y-97984543D01*
X127648122Y-97992616D01*
X127456766Y-97942004D01*
X127349090Y-97869309D01*
X127245003Y-97718691D01*
X127241540Y-97570760D01*
X127338797Y-97418292D01*
X127355189Y-97401391D01*
X127450634Y-97321565D01*
X127550904Y-97288952D01*
X127550904Y-97161068D01*
X127501608Y-97166607D01*
X127376800Y-97216528D01*
X127219527Y-97348452D01*
X127137076Y-97527397D01*
X127138071Y-97724808D01*
G37*
X127138071Y-97724808D02*
X127186283Y-97847306D01*
X127229976Y-97945019D01*
X127227125Y-97992995D01*
X127222037Y-97994000D01*
X127179691Y-98035456D01*
X127173600Y-98074343D01*
X127185153Y-98107638D01*
X127230358Y-98129285D01*
X127325026Y-98140853D01*
X127484974Y-98143913D01*
X127726013Y-98140035D01*
X127813118Y-98137843D01*
X128078349Y-98130060D01*
X128261788Y-98120426D01*
X128383217Y-98104804D01*
X128462416Y-98079056D01*
X128519169Y-98039044D01*
X128573257Y-97980631D01*
X128575118Y-97978467D01*
X128675840Y-97789978D01*
X128695007Y-97576687D01*
X128631703Y-97373935D01*
X128592312Y-97315050D01*
X128494937Y-97214101D01*
X128423128Y-97182190D01*
X128392939Y-97226001D01*
X128392800Y-97232000D01*
X128425589Y-97302081D01*
X128494400Y-97384400D01*
X128571056Y-97502566D01*
X128596000Y-97606149D01*
X128558222Y-97752058D01*
X128464058Y-97886575D01*
X128342261Y-97975992D01*
X128265125Y-97994000D01*
X128185314Y-97987097D01*
X128174223Y-97947272D01*
X128217699Y-97854300D01*
X128283822Y-97660257D01*
X128257551Y-97488313D01*
X128149852Y-97329407D01*
X127966207Y-97195321D01*
X127740954Y-97139716D01*
X127550904Y-97161068D01*
X127550904Y-97288952D01*
X127699446Y-97291305D01*
X127734504Y-97294481D01*
X127942975Y-97330736D01*
X128068409Y-97400030D01*
X128127657Y-97516836D01*
X128138800Y-97641739D01*
X128116747Y-97801923D01*
X128040812Y-97903867D01*
X128025896Y-97914919D01*
X127852011Y-97984543D01*
X127648122Y-97992616D01*
X127456766Y-97942004D01*
X127349090Y-97869309D01*
X127245003Y-97718691D01*
X127241540Y-97570760D01*
X127338797Y-97418292D01*
X127355189Y-97401391D01*
X127450634Y-97321565D01*
X127550904Y-97288952D01*
X127550904Y-97161068D01*
X127501608Y-97166607D01*
X127376800Y-97216528D01*
X127219527Y-97348452D01*
X127137076Y-97527397D01*
X127138071Y-97724808D01*
G36*
X127196803Y-80721663D02*
G01*
X127271877Y-80715846D01*
X127407018Y-80678049D01*
X127610425Y-80605625D01*
X127890292Y-80495923D01*
X128228664Y-80357173D01*
X128470751Y-80240679D01*
X128626961Y-80129764D01*
X128692631Y-80028868D01*
X128663733Y-79943066D01*
X128590596Y-79910622D01*
X128548458Y-79967708D01*
X128545200Y-80004636D01*
X128499504Y-80096365D01*
X128402202Y-80159305D01*
X128327821Y-80181493D01*
X128242970Y-80181897D01*
X128126591Y-80155922D01*
X127957628Y-80098973D01*
X127731973Y-80013068D01*
X127519455Y-79930758D01*
X127344998Y-79864157D01*
X127228319Y-79820727D01*
X127189171Y-79807600D01*
X127174965Y-79848656D01*
X127173600Y-79876995D01*
X127219391Y-79927743D01*
X127344585Y-79996694D01*
X127530907Y-80074084D01*
X127567300Y-80087360D01*
X127754690Y-80156922D01*
X127904735Y-80217194D01*
X127991797Y-80257732D01*
X128001580Y-80264285D01*
X127975727Y-80296343D01*
X127872765Y-80352601D01*
X127711428Y-80423548D01*
X127607880Y-80464148D01*
X127400224Y-80549918D01*
X127251577Y-80626440D01*
X127178394Y-80684846D01*
X127173600Y-80698151D01*
X127196803Y-80721663D01*
G37*
X127196803Y-80721663D02*
X127271877Y-80715846D01*
X127407018Y-80678049D01*
X127610425Y-80605625D01*
X127890292Y-80495923D01*
X128228664Y-80357173D01*
X128470751Y-80240679D01*
X128626961Y-80129764D01*
X128692631Y-80028868D01*
X128663733Y-79943066D01*
X128590596Y-79910622D01*
X128548458Y-79967708D01*
X128545200Y-80004636D01*
X128499504Y-80096365D01*
X128402202Y-80159305D01*
X128327821Y-80181493D01*
X128242970Y-80181897D01*
X128126591Y-80155922D01*
X127957628Y-80098973D01*
X127731973Y-80013068D01*
X127519455Y-79930758D01*
X127344998Y-79864157D01*
X127228319Y-79820727D01*
X127189171Y-79807600D01*
X127174965Y-79848656D01*
X127173600Y-79876995D01*
X127219391Y-79927743D01*
X127344585Y-79996694D01*
X127530907Y-80074084D01*
X127567300Y-80087360D01*
X127754690Y-80156922D01*
X127904735Y-80217194D01*
X127991797Y-80257732D01*
X128001580Y-80264285D01*
X127975727Y-80296343D01*
X127872765Y-80352601D01*
X127711428Y-80423548D01*
X127607880Y-80464148D01*
X127400224Y-80549918D01*
X127251577Y-80626440D01*
X127178394Y-80684846D01*
X127173600Y-80698151D01*
X127196803Y-80721663D01*
G36*
X128848568Y-66061268D02*
G01*
X128991129Y-66076897D01*
X129218568Y-66087149D01*
X129522568Y-66091488D01*
X129586600Y-66091600D01*
X130374000Y-66091600D01*
X130374000Y-66240576D01*
X130343621Y-66372204D01*
X130323200Y-66387947D01*
X130323200Y-66574200D01*
X130370011Y-66578227D01*
X130374000Y-66596601D01*
X130337123Y-66648332D01*
X130323200Y-66650400D01*
X130273720Y-66633067D01*
X130272400Y-66627998D01*
X130307997Y-66584626D01*
X130323200Y-66574200D01*
X130323200Y-66387947D01*
X130284110Y-66418083D01*
X130263152Y-66434595D01*
X130263152Y-66761755D01*
X130323200Y-66777400D01*
X130371327Y-66856685D01*
X130342195Y-66960170D01*
X130313040Y-66995840D01*
X130278236Y-67064968D01*
X130313040Y-67117760D01*
X130345737Y-67204330D01*
X130366552Y-67379334D01*
X130373997Y-67630139D01*
X130374000Y-67635185D01*
X130371016Y-67861083D01*
X130358827Y-68010727D01*
X130332574Y-68109370D01*
X130287396Y-68182265D01*
X130263544Y-68209225D01*
X130107997Y-68310470D01*
X129933122Y-68327965D01*
X129767931Y-68267322D01*
X129641436Y-68134154D01*
X129616673Y-68084082D01*
X129586973Y-67896284D01*
X129651519Y-67727777D01*
X129802960Y-67596759D01*
X129816384Y-67589587D01*
X129922191Y-67521165D01*
X129953639Y-67445194D01*
X129942911Y-67364838D01*
X129948951Y-67229415D01*
X130011005Y-67114669D01*
X130107140Y-67057985D01*
X130123628Y-67056800D01*
X130159403Y-67013397D01*
X130170800Y-66932798D01*
X130196934Y-66812485D01*
X130263152Y-66761755D01*
X130263152Y-66434595D01*
X130203342Y-66481720D01*
X130113632Y-66604621D01*
X130038767Y-66749868D01*
X130007437Y-66847442D01*
X129963825Y-66931381D01*
X129879132Y-67035186D01*
X129878700Y-67035633D01*
X129795700Y-67165797D01*
X129764400Y-67296271D01*
X129723166Y-67441355D01*
X129659049Y-67504553D01*
X129569149Y-67594986D01*
X129487448Y-67729990D01*
X129478747Y-67749729D01*
X129434888Y-67963757D01*
X129475925Y-68157249D01*
X129585377Y-68316433D01*
X129746766Y-68427538D01*
X129943612Y-68476792D01*
X130159435Y-68450423D01*
X130265032Y-68406809D01*
X130325662Y-68373129D01*
X130376109Y-68334352D01*
X130417309Y-68281435D01*
X130450198Y-68205336D01*
X130475711Y-68097009D01*
X130494784Y-67947413D01*
X130508354Y-67747504D01*
X130517355Y-67488238D01*
X130522724Y-67160571D01*
X130525397Y-66755461D01*
X130526308Y-66263864D01*
X130526400Y-65880929D01*
X130526400Y-63693840D01*
X130353680Y-63521120D01*
X130217877Y-63406200D01*
X130088506Y-63356258D01*
X130045987Y-63353193D01*
X130045987Y-63499530D01*
X130204031Y-63569898D01*
X130268712Y-63634650D01*
X130322001Y-63719069D01*
X130354030Y-63823525D01*
X130369721Y-63974851D01*
X130373996Y-64199879D01*
X130374000Y-64208690D01*
X130367098Y-64441413D01*
X130347886Y-64612764D01*
X130318605Y-64703726D01*
X130315192Y-64707687D01*
X130283549Y-64778547D01*
X130319390Y-64842409D01*
X130356814Y-64935585D01*
X130345175Y-65031425D01*
X130320201Y-65062085D01*
X130320201Y-65177200D01*
X130371932Y-65214076D01*
X130374000Y-65228000D01*
X130356667Y-65277479D01*
X130351598Y-65278800D01*
X130308226Y-65243202D01*
X130297800Y-65228000D01*
X130301827Y-65181188D01*
X130320201Y-65177200D01*
X130320201Y-65062085D01*
X130295819Y-65092019D01*
X130244399Y-65092972D01*
X130190831Y-65026464D01*
X130170800Y-64917764D01*
X130156666Y-64813116D01*
X130123628Y-64770800D01*
X130024393Y-64726436D01*
X129955479Y-64618446D01*
X129939092Y-64484475D01*
X129942645Y-64463973D01*
X129949615Y-64354993D01*
X129892223Y-64286662D01*
X129831463Y-64253895D01*
X129674073Y-64131958D01*
X129593844Y-63967269D01*
X129601559Y-63784901D01*
X129614376Y-63749063D01*
X129723622Y-63593927D01*
X129876671Y-63509145D01*
X130045987Y-63499530D01*
X130045987Y-63353193D01*
X129979530Y-63348400D01*
X129758398Y-63391901D01*
X129584948Y-63508993D01*
X129472993Y-63679555D01*
X129436346Y-63883466D01*
X129478747Y-64077870D01*
X129556162Y-64214954D01*
X129647245Y-64314903D01*
X129659049Y-64323046D01*
X129747279Y-64433916D01*
X129764400Y-64531328D01*
X129799992Y-64671588D01*
X129878700Y-64791966D01*
X129963504Y-64895749D01*
X130007382Y-64979891D01*
X130007437Y-64980157D01*
X130056922Y-65118654D01*
X130138359Y-65261353D01*
X130227961Y-65371334D01*
X130284110Y-65409516D01*
X130357714Y-65483224D01*
X130374000Y-65587023D01*
X130374000Y-65736000D01*
X129586600Y-65736000D01*
X129269334Y-65739185D01*
X129027091Y-65748382D01*
X128868184Y-65763056D01*
X128800931Y-65782668D01*
X128799200Y-65786800D01*
X128848568Y-65807268D01*
X128991129Y-65822897D01*
X129218568Y-65833149D01*
X129522568Y-65837488D01*
X129586600Y-65837600D01*
X129890397Y-65838919D01*
X130106536Y-65843776D01*
X130248935Y-65853516D01*
X130331511Y-65869487D01*
X130368182Y-65893036D01*
X130374000Y-65913800D01*
X130360364Y-65943199D01*
X130310180Y-65964116D01*
X130209529Y-65977896D01*
X130044494Y-65985888D01*
X129801156Y-65989436D01*
X129586600Y-65990000D01*
X129269334Y-65993185D01*
X129027091Y-66002382D01*
X128868184Y-66017056D01*
X128800931Y-66036668D01*
X128799200Y-66040800D01*
X128848568Y-66061268D01*
G37*
X128848568Y-66061268D02*
X128991129Y-66076897D01*
X129218568Y-66087149D01*
X129522568Y-66091488D01*
X129586600Y-66091600D01*
X130374000Y-66091600D01*
X130374000Y-66240576D01*
X130343621Y-66372204D01*
X130323200Y-66387947D01*
X130323200Y-66574200D01*
X130370011Y-66578227D01*
X130374000Y-66596601D01*
X130337123Y-66648332D01*
X130323200Y-66650400D01*
X130273720Y-66633067D01*
X130272400Y-66627998D01*
X130307997Y-66584626D01*
X130323200Y-66574200D01*
X130323200Y-66387947D01*
X130284110Y-66418083D01*
X130263152Y-66434595D01*
X130263152Y-66761755D01*
X130323200Y-66777400D01*
X130371327Y-66856685D01*
X130342195Y-66960170D01*
X130313040Y-66995840D01*
X130278236Y-67064968D01*
X130313040Y-67117760D01*
X130345737Y-67204330D01*
X130366552Y-67379334D01*
X130373997Y-67630139D01*
X130374000Y-67635185D01*
X130371016Y-67861083D01*
X130358827Y-68010727D01*
X130332574Y-68109370D01*
X130287396Y-68182265D01*
X130263544Y-68209225D01*
X130107997Y-68310470D01*
X129933122Y-68327965D01*
X129767931Y-68267322D01*
X129641436Y-68134154D01*
X129616673Y-68084082D01*
X129586973Y-67896284D01*
X129651519Y-67727777D01*
X129802960Y-67596759D01*
X129816384Y-67589587D01*
X129922191Y-67521165D01*
X129953639Y-67445194D01*
X129942911Y-67364838D01*
X129948951Y-67229415D01*
X130011005Y-67114669D01*
X130107140Y-67057985D01*
X130123628Y-67056800D01*
X130159403Y-67013397D01*
X130170800Y-66932798D01*
X130196934Y-66812485D01*
X130263152Y-66761755D01*
X130263152Y-66434595D01*
X130203342Y-66481720D01*
X130113632Y-66604621D01*
X130038767Y-66749868D01*
X130007437Y-66847442D01*
X129963825Y-66931381D01*
X129879132Y-67035186D01*
X129878700Y-67035633D01*
X129795700Y-67165797D01*
X129764400Y-67296271D01*
X129723166Y-67441355D01*
X129659049Y-67504553D01*
X129569149Y-67594986D01*
X129487448Y-67729990D01*
X129478747Y-67749729D01*
X129434888Y-67963757D01*
X129475925Y-68157249D01*
X129585377Y-68316433D01*
X129746766Y-68427538D01*
X129943612Y-68476792D01*
X130159435Y-68450423D01*
X130265032Y-68406809D01*
X130325662Y-68373129D01*
X130376109Y-68334352D01*
X130417309Y-68281435D01*
X130450198Y-68205336D01*
X130475711Y-68097009D01*
X130494784Y-67947413D01*
X130508354Y-67747504D01*
X130517355Y-67488238D01*
X130522724Y-67160571D01*
X130525397Y-66755461D01*
X130526308Y-66263864D01*
X130526400Y-65880929D01*
X130526400Y-63693840D01*
X130353680Y-63521120D01*
X130217877Y-63406200D01*
X130088506Y-63356258D01*
X130045987Y-63353193D01*
X130045987Y-63499530D01*
X130204031Y-63569898D01*
X130268712Y-63634650D01*
X130322001Y-63719069D01*
X130354030Y-63823525D01*
X130369721Y-63974851D01*
X130373996Y-64199879D01*
X130374000Y-64208690D01*
X130367098Y-64441413D01*
X130347886Y-64612764D01*
X130318605Y-64703726D01*
X130315192Y-64707687D01*
X130283549Y-64778547D01*
X130319390Y-64842409D01*
X130356814Y-64935585D01*
X130345175Y-65031425D01*
X130320201Y-65062085D01*
X130320201Y-65177200D01*
X130371932Y-65214076D01*
X130374000Y-65228000D01*
X130356667Y-65277479D01*
X130351598Y-65278800D01*
X130308226Y-65243202D01*
X130297800Y-65228000D01*
X130301827Y-65181188D01*
X130320201Y-65177200D01*
X130320201Y-65062085D01*
X130295819Y-65092019D01*
X130244399Y-65092972D01*
X130190831Y-65026464D01*
X130170800Y-64917764D01*
X130156666Y-64813116D01*
X130123628Y-64770800D01*
X130024393Y-64726436D01*
X129955479Y-64618446D01*
X129939092Y-64484475D01*
X129942645Y-64463973D01*
X129949615Y-64354993D01*
X129892223Y-64286662D01*
X129831463Y-64253895D01*
X129674073Y-64131958D01*
X129593844Y-63967269D01*
X129601559Y-63784901D01*
X129614376Y-63749063D01*
X129723622Y-63593927D01*
X129876671Y-63509145D01*
X130045987Y-63499530D01*
X130045987Y-63353193D01*
X129979530Y-63348400D01*
X129758398Y-63391901D01*
X129584948Y-63508993D01*
X129472993Y-63679555D01*
X129436346Y-63883466D01*
X129478747Y-64077870D01*
X129556162Y-64214954D01*
X129647245Y-64314903D01*
X129659049Y-64323046D01*
X129747279Y-64433916D01*
X129764400Y-64531328D01*
X129799992Y-64671588D01*
X129878700Y-64791966D01*
X129963504Y-64895749D01*
X130007382Y-64979891D01*
X130007437Y-64980157D01*
X130056922Y-65118654D01*
X130138359Y-65261353D01*
X130227961Y-65371334D01*
X130284110Y-65409516D01*
X130357714Y-65483224D01*
X130374000Y-65587023D01*
X130374000Y-65736000D01*
X129586600Y-65736000D01*
X129269334Y-65739185D01*
X129027091Y-65748382D01*
X128868184Y-65763056D01*
X128800931Y-65782668D01*
X128799200Y-65786800D01*
X128848568Y-65807268D01*
X128991129Y-65822897D01*
X129218568Y-65833149D01*
X129522568Y-65837488D01*
X129586600Y-65837600D01*
X129890397Y-65838919D01*
X130106536Y-65843776D01*
X130248935Y-65853516D01*
X130331511Y-65869487D01*
X130368182Y-65893036D01*
X130374000Y-65913800D01*
X130360364Y-65943199D01*
X130310180Y-65964116D01*
X130209529Y-65977896D01*
X130044494Y-65985888D01*
X129801156Y-65989436D01*
X129586600Y-65990000D01*
X129269334Y-65993185D01*
X129027091Y-66002382D01*
X128868184Y-66017056D01*
X128800931Y-66036668D01*
X128799200Y-66040800D01*
X128848568Y-66061268D01*
M02*
