G04 #@! TF.GenerationSoftware,KiCad,Pcbnew,(5.1.6)-1*
G04 #@! TF.CreationDate,2020-12-05T12:47:16+01:00*
G04 #@! TF.ProjectId,Test Stand PCB,54657374-2053-4746-916e-64205043422e,rev?*
G04 #@! TF.SameCoordinates,Original*
G04 #@! TF.FileFunction,Legend,Top*
G04 #@! TF.FilePolarity,Positive*
%FSLAX46Y46*%
G04 Gerber Fmt 4.6, Leading zero omitted, Abs format (unit mm)*
G04 Created by KiCad (PCBNEW (5.1.6)-1) date 2020-12-05 12:47:16*
%MOMM*%
%LPD*%
G01*
G04 APERTURE LIST*
%ADD10C,0.120000*%
%ADD11C,0.100000*%
%ADD12C,0.254000*%
%ADD13C,0.150000*%
G04 APERTURE END LIST*
D10*
X145470000Y-88870000D02*
X142530000Y-88870000D01*
X145470000Y-89110000D02*
X142530000Y-89110000D01*
X145470000Y-88990000D02*
X142530000Y-88990000D01*
X142530000Y-93530000D02*
X142660000Y-93530000D01*
X142530000Y-88090000D02*
X142530000Y-93530000D01*
X142660000Y-88090000D02*
X142530000Y-88090000D01*
X145470000Y-93530000D02*
X145340000Y-93530000D01*
X145470000Y-88090000D02*
X145470000Y-93530000D01*
X145340000Y-88090000D02*
X145470000Y-88090000D01*
X142380000Y-97110000D02*
X149200000Y-97110000D01*
X142380000Y-99650000D02*
X149200000Y-99650000D01*
X142380000Y-97110000D02*
X142380000Y-99650000D01*
X149200000Y-97110000D02*
X149200000Y-99650000D01*
X142380000Y-97849000D02*
X142491000Y-97849000D01*
X144509000Y-97849000D02*
X144782000Y-97849000D01*
X146799000Y-97849000D02*
X147072000Y-97849000D01*
X149089000Y-97849000D02*
X149200000Y-97849000D01*
X140920000Y-90380000D02*
X140920000Y-86540000D01*
X139080000Y-90380000D02*
X139080000Y-86540000D01*
X139080000Y-94120000D02*
X139080000Y-97960000D01*
X140920000Y-94120000D02*
X140920000Y-97960000D01*
X149040000Y-101190000D02*
X138880000Y-101190000D01*
X149040000Y-108810000D02*
X149040000Y-101190000D01*
X138880000Y-108810000D02*
X149040000Y-108810000D01*
X138880000Y-101190000D02*
X138880000Y-108810000D01*
X138880000Y-102460000D02*
X149040000Y-102460000D01*
X123675000Y-68920000D02*
X136375000Y-68920000D01*
X123675000Y-79080000D02*
X123675000Y-68920000D01*
X136375000Y-79080000D02*
X123675000Y-79080000D01*
X136375000Y-61300000D02*
X136375000Y-86700000D01*
X104625000Y-61300000D02*
X136375000Y-61300000D01*
X104625000Y-86700000D02*
X104625000Y-61300000D01*
X136375000Y-86700000D02*
X104625000Y-86700000D01*
X59190000Y-41245000D02*
X66810000Y-41245000D01*
X66810000Y-46325000D02*
X66810000Y-38705000D01*
X59190000Y-46325000D02*
X66810000Y-46325000D01*
X59190000Y-38705000D02*
X59190000Y-46325000D01*
X50935000Y-60295000D02*
X75065000Y-60295000D01*
X50935000Y-38705000D02*
X50935000Y-60295000D01*
X75065000Y-38705000D02*
X50935000Y-38705000D01*
X75065000Y-38705000D02*
X75065000Y-60295000D01*
X66810000Y-106755000D02*
X59190000Y-106755000D01*
X59190000Y-101675000D02*
X59190000Y-109295000D01*
X66810000Y-101675000D02*
X59190000Y-101675000D01*
X66810000Y-109295000D02*
X66810000Y-101675000D01*
X75065000Y-87705000D02*
X50935000Y-87705000D01*
X75065000Y-109295000D02*
X75065000Y-87705000D01*
X50935000Y-109295000D02*
X75065000Y-109295000D01*
X50935000Y-109295000D02*
X50935000Y-87705000D01*
D11*
X146600000Y-76900000D02*
X146600000Y-77200000D01*
X146600000Y-77200000D02*
X146300000Y-77200000D01*
X139800000Y-76900000D02*
X139800000Y-77200000D01*
X139800000Y-77200000D02*
X140100000Y-77200000D01*
X139800000Y-67500000D02*
X139800000Y-67200000D01*
X139800000Y-67200000D02*
X140100000Y-67200000D01*
X146600000Y-67500000D02*
X146600000Y-67200000D01*
X146600000Y-67200000D02*
X146300000Y-67200000D01*
D10*
X94810000Y-106755000D02*
X87190000Y-106755000D01*
X87190000Y-101675000D02*
X87190000Y-109295000D01*
X94810000Y-101675000D02*
X87190000Y-101675000D01*
X94810000Y-109295000D02*
X94810000Y-101675000D01*
X103065000Y-87705000D02*
X78935000Y-87705000D01*
X103065000Y-109295000D02*
X103065000Y-87705000D01*
X78935000Y-109295000D02*
X103065000Y-109295000D01*
X78935000Y-109295000D02*
X78935000Y-87705000D01*
X86190000Y-41245000D02*
X93810000Y-41245000D01*
X93810000Y-46325000D02*
X93810000Y-38705000D01*
X86190000Y-46325000D02*
X93810000Y-46325000D01*
X86190000Y-38705000D02*
X86190000Y-46325000D01*
X77935000Y-60295000D02*
X102065000Y-60295000D01*
X77935000Y-38705000D02*
X77935000Y-60295000D01*
X102065000Y-38705000D02*
X77935000Y-38705000D01*
X102065000Y-38705000D02*
X102065000Y-60295000D01*
X55680000Y-79080000D02*
X50600000Y-79080000D01*
X55680000Y-68920000D02*
X55680000Y-79080000D01*
X50600000Y-68920000D02*
X55680000Y-68920000D01*
X50600000Y-62570000D02*
X50600000Y-85430000D01*
X101400000Y-62570000D02*
X101400000Y-85430000D01*
D12*
X54410000Y-65110000D02*
G75*
G03*
X54410000Y-65110000I-1270000J0D01*
G01*
X54410000Y-82890000D02*
G75*
G03*
X54410000Y-82890000I-1270000J0D01*
G01*
D10*
X50600000Y-62570000D02*
X101400000Y-62570000D01*
X50600000Y-85430000D02*
X101400000Y-85430000D01*
X141620000Y-81920000D02*
X145460000Y-81920000D01*
X141620000Y-80080000D02*
X145460000Y-80080000D01*
X148080000Y-79620000D02*
X148080000Y-83460000D01*
X149920000Y-79620000D02*
X149920000Y-83460000D01*
X147920000Y-59380000D02*
X147920000Y-55540000D01*
X146080000Y-59380000D02*
X146080000Y-55540000D01*
X147920000Y-47380000D02*
X147920000Y-43540000D01*
X146080000Y-47380000D02*
X146080000Y-43540000D01*
X151190000Y-98460000D02*
X151190000Y-108620000D01*
X158810000Y-98460000D02*
X151190000Y-98460000D01*
X158810000Y-108620000D02*
X158810000Y-98460000D01*
X151190000Y-108620000D02*
X158810000Y-108620000D01*
X152460000Y-108620000D02*
X152460000Y-98460000D01*
X151190000Y-64460000D02*
X151190000Y-84780000D01*
X158810000Y-64460000D02*
X158810000Y-84780000D01*
X152460000Y-84780000D02*
X152460000Y-64460000D01*
X151190000Y-84780000D02*
X158810000Y-84780000D01*
X158810000Y-64460000D02*
X151190000Y-64460000D01*
X151190000Y-86460000D02*
X151190000Y-96620000D01*
X158810000Y-86460000D02*
X151190000Y-86460000D01*
X158810000Y-96620000D02*
X158810000Y-86460000D01*
X151190000Y-96620000D02*
X158810000Y-96620000D01*
X152460000Y-96620000D02*
X152460000Y-86460000D01*
X151190000Y-52460000D02*
X151190000Y-62620000D01*
X158810000Y-52460000D02*
X151190000Y-52460000D01*
X158810000Y-62620000D02*
X158810000Y-52460000D01*
X151190000Y-62620000D02*
X158810000Y-62620000D01*
X152460000Y-62620000D02*
X152460000Y-52460000D01*
X151190000Y-40460000D02*
X151190000Y-50620000D01*
X158810000Y-40460000D02*
X151190000Y-40460000D01*
X158810000Y-50620000D02*
X158810000Y-40460000D01*
X151190000Y-50620000D02*
X158810000Y-50620000D01*
X152460000Y-50620000D02*
X152460000Y-40460000D01*
X108530000Y-91364000D02*
X108530000Y-108636000D01*
X136470000Y-91364000D02*
X136470000Y-108636000D01*
X108530000Y-108636000D02*
X136470000Y-108636000D01*
X108530000Y-91364000D02*
X136470000Y-91364000D01*
X108530000Y-40364000D02*
X108530000Y-57636000D01*
X136470000Y-40364000D02*
X136470000Y-57636000D01*
X108530000Y-40364000D02*
X136470000Y-40364000D01*
X108530000Y-57636000D02*
X136470000Y-57636000D01*
D13*
X146922380Y-91548095D02*
X145922380Y-91548095D01*
X145922380Y-91310000D01*
X145970000Y-91167142D01*
X146065238Y-91071904D01*
X146160476Y-91024285D01*
X146350952Y-90976666D01*
X146493809Y-90976666D01*
X146684285Y-91024285D01*
X146779523Y-91071904D01*
X146874761Y-91167142D01*
X146922380Y-91310000D01*
X146922380Y-91548095D01*
X146922380Y-90024285D02*
X146922380Y-90595714D01*
X146922380Y-90310000D02*
X145922380Y-90310000D01*
X146065238Y-90405238D01*
X146160476Y-90500476D01*
X146208095Y-90595714D01*
X146552380Y-87261904D02*
X145552380Y-87261904D01*
X146552380Y-86690476D02*
X145980952Y-87119047D01*
X145552380Y-86690476D02*
X146123809Y-87261904D01*
X145694761Y-96657619D02*
X145599523Y-96610000D01*
X145504285Y-96514761D01*
X145361428Y-96371904D01*
X145266190Y-96324285D01*
X145170952Y-96324285D01*
X145218571Y-96562380D02*
X145123333Y-96514761D01*
X145028095Y-96419523D01*
X144980476Y-96229047D01*
X144980476Y-95895714D01*
X145028095Y-95705238D01*
X145123333Y-95610000D01*
X145218571Y-95562380D01*
X145409047Y-95562380D01*
X145504285Y-95610000D01*
X145599523Y-95705238D01*
X145647142Y-95895714D01*
X145647142Y-96229047D01*
X145599523Y-96419523D01*
X145504285Y-96514761D01*
X145409047Y-96562380D01*
X145218571Y-96562380D01*
X146599523Y-96562380D02*
X146028095Y-96562380D01*
X146313809Y-96562380D02*
X146313809Y-95562380D01*
X146218571Y-95705238D01*
X146123333Y-95800476D01*
X146028095Y-95848095D01*
X138532380Y-88626666D02*
X138056190Y-88960000D01*
X138532380Y-89198095D02*
X137532380Y-89198095D01*
X137532380Y-88817142D01*
X137580000Y-88721904D01*
X137627619Y-88674285D01*
X137722857Y-88626666D01*
X137865714Y-88626666D01*
X137960952Y-88674285D01*
X138008571Y-88721904D01*
X138056190Y-88817142D01*
X138056190Y-89198095D01*
X137532380Y-87769523D02*
X137532380Y-87960000D01*
X137580000Y-88055238D01*
X137627619Y-88102857D01*
X137770476Y-88198095D01*
X137960952Y-88245714D01*
X138341904Y-88245714D01*
X138437142Y-88198095D01*
X138484761Y-88150476D01*
X138532380Y-88055238D01*
X138532380Y-87864761D01*
X138484761Y-87769523D01*
X138437142Y-87721904D01*
X138341904Y-87674285D01*
X138103809Y-87674285D01*
X138008571Y-87721904D01*
X137960952Y-87769523D01*
X137913333Y-87864761D01*
X137913333Y-88055238D01*
X137960952Y-88150476D01*
X138008571Y-88198095D01*
X138103809Y-88245714D01*
X142372380Y-96206666D02*
X141896190Y-96540000D01*
X142372380Y-96778095D02*
X141372380Y-96778095D01*
X141372380Y-96397142D01*
X141420000Y-96301904D01*
X141467619Y-96254285D01*
X141562857Y-96206666D01*
X141705714Y-96206666D01*
X141800952Y-96254285D01*
X141848571Y-96301904D01*
X141896190Y-96397142D01*
X141896190Y-96778095D01*
X141372380Y-95301904D02*
X141372380Y-95778095D01*
X141848571Y-95825714D01*
X141800952Y-95778095D01*
X141753333Y-95682857D01*
X141753333Y-95444761D01*
X141800952Y-95349523D01*
X141848571Y-95301904D01*
X141943809Y-95254285D01*
X142181904Y-95254285D01*
X142277142Y-95301904D01*
X142324761Y-95349523D01*
X142372380Y-95444761D01*
X142372380Y-95682857D01*
X142324761Y-95778095D01*
X142277142Y-95825714D01*
X142840952Y-109428571D02*
X143174285Y-109428571D01*
X143317142Y-109952380D02*
X142840952Y-109952380D01*
X142840952Y-108952380D01*
X143317142Y-108952380D01*
X143698095Y-109666666D02*
X144174285Y-109666666D01*
X143602857Y-109952380D02*
X143936190Y-108952380D01*
X144269523Y-109952380D01*
X145126666Y-109952380D02*
X144555238Y-109952380D01*
X144840952Y-109952380D02*
X144840952Y-108952380D01*
X144745714Y-109095238D01*
X144650476Y-109190476D01*
X144555238Y-109238095D01*
X112166666Y-83238095D02*
X112166666Y-82761904D01*
X112452380Y-83333333D02*
X111452380Y-83000000D01*
X112452380Y-82666666D01*
X112452380Y-81904761D02*
X111452380Y-81904761D01*
X112404761Y-81904761D02*
X112452380Y-82000000D01*
X112452380Y-82190476D01*
X112404761Y-82285714D01*
X112357142Y-82333333D01*
X112261904Y-82380952D01*
X111976190Y-82380952D01*
X111880952Y-82333333D01*
X111833333Y-82285714D01*
X111785714Y-82190476D01*
X111785714Y-82000000D01*
X111833333Y-81904761D01*
X112452380Y-81000000D02*
X111928571Y-81000000D01*
X111833333Y-81047619D01*
X111785714Y-81142857D01*
X111785714Y-81333333D01*
X111833333Y-81428571D01*
X112404761Y-81000000D02*
X112452380Y-81095238D01*
X112452380Y-81333333D01*
X112404761Y-81428571D01*
X112309523Y-81476190D01*
X112214285Y-81476190D01*
X112119047Y-81428571D01*
X112071428Y-81333333D01*
X112071428Y-81095238D01*
X112023809Y-81000000D01*
X111785714Y-80666666D02*
X111785714Y-80285714D01*
X112452380Y-80523809D02*
X111595238Y-80523809D01*
X111500000Y-80476190D01*
X111452380Y-80380952D01*
X111452380Y-80285714D01*
X112452380Y-79952380D02*
X111785714Y-79952380D01*
X111976190Y-79952380D02*
X111880952Y-79904761D01*
X111833333Y-79857142D01*
X111785714Y-79761904D01*
X111785714Y-79666666D01*
X111785714Y-78904761D02*
X112452380Y-78904761D01*
X111785714Y-79333333D02*
X112309523Y-79333333D01*
X112404761Y-79285714D01*
X112452380Y-79190476D01*
X112452380Y-79047619D01*
X112404761Y-78952380D01*
X112357142Y-78904761D01*
X112452380Y-78428571D02*
X111785714Y-78428571D01*
X111452380Y-78428571D02*
X111500000Y-78476190D01*
X111547619Y-78428571D01*
X111500000Y-78380952D01*
X111452380Y-78428571D01*
X111547619Y-78428571D01*
X111785714Y-78095238D02*
X111785714Y-77714285D01*
X111452380Y-77952380D02*
X112309523Y-77952380D01*
X112404761Y-77904761D01*
X112452380Y-77809523D01*
X112452380Y-77714285D01*
X112547619Y-77619047D02*
X112547619Y-76857142D01*
X112452380Y-76619047D02*
X111452380Y-76619047D01*
X112166666Y-76285714D01*
X111452380Y-75952380D01*
X112452380Y-75952380D01*
X112452380Y-75476190D02*
X111785714Y-75476190D01*
X111452380Y-75476190D02*
X111500000Y-75523809D01*
X111547619Y-75476190D01*
X111500000Y-75428571D01*
X111452380Y-75476190D01*
X111547619Y-75476190D01*
X112404761Y-74571428D02*
X112452380Y-74666666D01*
X112452380Y-74857142D01*
X112404761Y-74952380D01*
X112357142Y-75000000D01*
X112261904Y-75047619D01*
X111976190Y-75047619D01*
X111880952Y-75000000D01*
X111833333Y-74952380D01*
X111785714Y-74857142D01*
X111785714Y-74666666D01*
X111833333Y-74571428D01*
X112452380Y-74142857D02*
X111785714Y-74142857D01*
X111976190Y-74142857D02*
X111880952Y-74095238D01*
X111833333Y-74047619D01*
X111785714Y-73952380D01*
X111785714Y-73857142D01*
X112452380Y-73380952D02*
X112404761Y-73476190D01*
X112357142Y-73523809D01*
X112261904Y-73571428D01*
X111976190Y-73571428D01*
X111880952Y-73523809D01*
X111833333Y-73476190D01*
X111785714Y-73380952D01*
X111785714Y-73238095D01*
X111833333Y-73142857D01*
X111880952Y-73095238D01*
X111976190Y-73047619D01*
X112261904Y-73047619D01*
X112357142Y-73095238D01*
X112404761Y-73142857D01*
X112452380Y-73238095D01*
X112452380Y-73380952D01*
X112404761Y-72666666D02*
X112452380Y-72523809D01*
X112452380Y-72285714D01*
X112404761Y-72190476D01*
X112357142Y-72142857D01*
X112261904Y-72095238D01*
X112166666Y-72095238D01*
X112071428Y-72142857D01*
X112023809Y-72190476D01*
X111976190Y-72285714D01*
X111928571Y-72476190D01*
X111880952Y-72571428D01*
X111833333Y-72619047D01*
X111738095Y-72666666D01*
X111642857Y-72666666D01*
X111547619Y-72619047D01*
X111500000Y-72571428D01*
X111452380Y-72476190D01*
X111452380Y-72238095D01*
X111500000Y-72095238D01*
X112452380Y-71666666D02*
X111452380Y-71666666D01*
X111452380Y-71428571D01*
X111500000Y-71285714D01*
X111595238Y-71190476D01*
X111690476Y-71142857D01*
X111880952Y-71095238D01*
X112023809Y-71095238D01*
X112214285Y-71142857D01*
X112309523Y-71190476D01*
X112404761Y-71285714D01*
X112452380Y-71428571D01*
X112452380Y-71666666D01*
X112547619Y-70904761D02*
X112547619Y-70142857D01*
X111928571Y-69571428D02*
X111976190Y-69428571D01*
X112023809Y-69380952D01*
X112119047Y-69333333D01*
X112261904Y-69333333D01*
X112357142Y-69380952D01*
X112404761Y-69428571D01*
X112452380Y-69523809D01*
X112452380Y-69904761D01*
X111452380Y-69904761D01*
X111452380Y-69571428D01*
X111500000Y-69476190D01*
X111547619Y-69428571D01*
X111642857Y-69380952D01*
X111738095Y-69380952D01*
X111833333Y-69428571D01*
X111880952Y-69476190D01*
X111928571Y-69571428D01*
X111928571Y-69904761D01*
X112452380Y-68904761D02*
X111785714Y-68904761D01*
X111976190Y-68904761D02*
X111880952Y-68857142D01*
X111833333Y-68809523D01*
X111785714Y-68714285D01*
X111785714Y-68619047D01*
X112404761Y-67904761D02*
X112452380Y-68000000D01*
X112452380Y-68190476D01*
X112404761Y-68285714D01*
X112309523Y-68333333D01*
X111928571Y-68333333D01*
X111833333Y-68285714D01*
X111785714Y-68190476D01*
X111785714Y-68000000D01*
X111833333Y-67904761D01*
X111928571Y-67857142D01*
X112023809Y-67857142D01*
X112119047Y-68333333D01*
X112452380Y-67000000D02*
X111928571Y-67000000D01*
X111833333Y-67047619D01*
X111785714Y-67142857D01*
X111785714Y-67333333D01*
X111833333Y-67428571D01*
X112404761Y-67000000D02*
X112452380Y-67095238D01*
X112452380Y-67333333D01*
X112404761Y-67428571D01*
X112309523Y-67476190D01*
X112214285Y-67476190D01*
X112119047Y-67428571D01*
X112071428Y-67333333D01*
X112071428Y-67095238D01*
X112023809Y-67000000D01*
X112452380Y-66523809D02*
X111452380Y-66523809D01*
X112071428Y-66428571D02*
X112452380Y-66142857D01*
X111785714Y-66142857D02*
X112166666Y-66523809D01*
X112452380Y-65571428D02*
X112404761Y-65666666D01*
X112357142Y-65714285D01*
X112261904Y-65761904D01*
X111976190Y-65761904D01*
X111880952Y-65714285D01*
X111833333Y-65666666D01*
X111785714Y-65571428D01*
X111785714Y-65428571D01*
X111833333Y-65333333D01*
X111880952Y-65285714D01*
X111976190Y-65238095D01*
X112261904Y-65238095D01*
X112357142Y-65285714D01*
X112404761Y-65333333D01*
X112452380Y-65428571D01*
X112452380Y-65571428D01*
X111785714Y-64380952D02*
X112452380Y-64380952D01*
X111785714Y-64809523D02*
X112309523Y-64809523D01*
X112404761Y-64761904D01*
X112452380Y-64666666D01*
X112452380Y-64523809D01*
X112404761Y-64428571D01*
X112357142Y-64380952D01*
X111785714Y-64047619D02*
X111785714Y-63666666D01*
X111452380Y-63904761D02*
X112309523Y-63904761D01*
X112404761Y-63857142D01*
X112452380Y-63761904D01*
X112452380Y-63666666D01*
X108625523Y-83247142D02*
X108577904Y-83294761D01*
X108435047Y-83342380D01*
X108339809Y-83342380D01*
X108196952Y-83294761D01*
X108101714Y-83199523D01*
X108054095Y-83104285D01*
X108006476Y-82913809D01*
X108006476Y-82770952D01*
X108054095Y-82580476D01*
X108101714Y-82485238D01*
X108196952Y-82390000D01*
X108339809Y-82342380D01*
X108435047Y-82342380D01*
X108577904Y-82390000D01*
X108625523Y-82437619D01*
X109054095Y-83342380D02*
X109054095Y-82342380D01*
X109292190Y-82342380D01*
X109435047Y-82390000D01*
X109530285Y-82485238D01*
X109577904Y-82580476D01*
X109625523Y-82770952D01*
X109625523Y-82913809D01*
X109577904Y-83104285D01*
X109530285Y-83199523D01*
X109435047Y-83294761D01*
X109292190Y-83342380D01*
X109054095Y-83342380D01*
X56047619Y-48650666D02*
X56523809Y-48650666D01*
X55952380Y-48936380D02*
X56285714Y-47936380D01*
X56619047Y-48936380D01*
X57380952Y-48936380D02*
X57380952Y-47936380D01*
X57380952Y-48888761D02*
X57285714Y-48936380D01*
X57095238Y-48936380D01*
X57000000Y-48888761D01*
X56952380Y-48841142D01*
X56904761Y-48745904D01*
X56904761Y-48460190D01*
X56952380Y-48364952D01*
X57000000Y-48317333D01*
X57095238Y-48269714D01*
X57285714Y-48269714D01*
X57380952Y-48317333D01*
X58285714Y-48936380D02*
X58285714Y-48412571D01*
X58238095Y-48317333D01*
X58142857Y-48269714D01*
X57952380Y-48269714D01*
X57857142Y-48317333D01*
X58285714Y-48888761D02*
X58190476Y-48936380D01*
X57952380Y-48936380D01*
X57857142Y-48888761D01*
X57809523Y-48793523D01*
X57809523Y-48698285D01*
X57857142Y-48603047D01*
X57952380Y-48555428D01*
X58190476Y-48555428D01*
X58285714Y-48507809D01*
X58619047Y-48269714D02*
X59000000Y-48269714D01*
X58761904Y-48936380D02*
X58761904Y-48079238D01*
X58809523Y-47984000D01*
X58904761Y-47936380D01*
X59000000Y-47936380D01*
X59333333Y-48936380D02*
X59333333Y-48269714D01*
X59333333Y-48460190D02*
X59380952Y-48364952D01*
X59428571Y-48317333D01*
X59523809Y-48269714D01*
X59619047Y-48269714D01*
X60380952Y-48269714D02*
X60380952Y-48936380D01*
X59952380Y-48269714D02*
X59952380Y-48793523D01*
X60000000Y-48888761D01*
X60095238Y-48936380D01*
X60238095Y-48936380D01*
X60333333Y-48888761D01*
X60380952Y-48841142D01*
X60857142Y-48936380D02*
X60857142Y-48269714D01*
X60857142Y-47936380D02*
X60809523Y-47984000D01*
X60857142Y-48031619D01*
X60904761Y-47984000D01*
X60857142Y-47936380D01*
X60857142Y-48031619D01*
X61190476Y-48269714D02*
X61571428Y-48269714D01*
X61333333Y-47936380D02*
X61333333Y-48793523D01*
X61380952Y-48888761D01*
X61476190Y-48936380D01*
X61571428Y-48936380D01*
X61666666Y-49031619D02*
X62428571Y-49031619D01*
X62666666Y-48936380D02*
X62666666Y-47936380D01*
X63000000Y-48650666D01*
X63333333Y-47936380D01*
X63333333Y-48936380D01*
X63761904Y-48650666D02*
X64238095Y-48650666D01*
X63666666Y-48936380D02*
X64000000Y-47936380D01*
X64333333Y-48936380D01*
X64571428Y-47936380D02*
X65238095Y-48936380D01*
X65238095Y-47936380D02*
X64571428Y-48936380D01*
X65523809Y-47936380D02*
X66142857Y-47936380D01*
X65809523Y-48317333D01*
X65952380Y-48317333D01*
X66047619Y-48364952D01*
X66095238Y-48412571D01*
X66142857Y-48507809D01*
X66142857Y-48745904D01*
X66095238Y-48841142D01*
X66047619Y-48888761D01*
X65952380Y-48936380D01*
X65666666Y-48936380D01*
X65571428Y-48888761D01*
X65523809Y-48841142D01*
X67095238Y-48936380D02*
X66523809Y-48936380D01*
X66809523Y-48936380D02*
X66809523Y-47936380D01*
X66714285Y-48079238D01*
X66619047Y-48174476D01*
X66523809Y-48222095D01*
X67666666Y-48364952D02*
X67571428Y-48317333D01*
X67523809Y-48269714D01*
X67476190Y-48174476D01*
X67476190Y-48126857D01*
X67523809Y-48031619D01*
X67571428Y-47984000D01*
X67666666Y-47936380D01*
X67857142Y-47936380D01*
X67952380Y-47984000D01*
X68000000Y-48031619D01*
X68047619Y-48126857D01*
X68047619Y-48174476D01*
X68000000Y-48269714D01*
X67952380Y-48317333D01*
X67857142Y-48364952D01*
X67666666Y-48364952D01*
X67571428Y-48412571D01*
X67523809Y-48460190D01*
X67476190Y-48555428D01*
X67476190Y-48745904D01*
X67523809Y-48841142D01*
X67571428Y-48888761D01*
X67666666Y-48936380D01*
X67857142Y-48936380D01*
X67952380Y-48888761D01*
X68000000Y-48841142D01*
X68047619Y-48745904D01*
X68047619Y-48555428D01*
X68000000Y-48460190D01*
X67952380Y-48412571D01*
X67857142Y-48364952D01*
X68952380Y-47936380D02*
X68476190Y-47936380D01*
X68428571Y-48412571D01*
X68476190Y-48364952D01*
X68571428Y-48317333D01*
X68809523Y-48317333D01*
X68904761Y-48364952D01*
X68952380Y-48412571D01*
X69000000Y-48507809D01*
X69000000Y-48745904D01*
X68952380Y-48841142D01*
X68904761Y-48888761D01*
X68809523Y-48936380D01*
X68571428Y-48936380D01*
X68476190Y-48888761D01*
X68428571Y-48841142D01*
X69857142Y-47936380D02*
X69666666Y-47936380D01*
X69571428Y-47984000D01*
X69523809Y-48031619D01*
X69428571Y-48174476D01*
X69380952Y-48364952D01*
X69380952Y-48745904D01*
X69428571Y-48841142D01*
X69476190Y-48888761D01*
X69571428Y-48936380D01*
X69761904Y-48936380D01*
X69857142Y-48888761D01*
X69904761Y-48841142D01*
X69952380Y-48745904D01*
X69952380Y-48507809D01*
X69904761Y-48412571D01*
X69857142Y-48364952D01*
X69761904Y-48317333D01*
X69571428Y-48317333D01*
X69476190Y-48364952D01*
X69428571Y-48412571D01*
X69380952Y-48507809D01*
X56904047Y-40046428D02*
X57665952Y-40046428D01*
X57285000Y-40427380D02*
X57285000Y-39665476D01*
X52419380Y-56437238D02*
X53419380Y-56103904D01*
X52419380Y-55770571D01*
X53419380Y-55437238D02*
X52419380Y-55437238D01*
X53419380Y-54961047D02*
X52419380Y-54961047D01*
X53419380Y-54389619D01*
X52419380Y-54389619D01*
X56047619Y-99682666D02*
X56523809Y-99682666D01*
X55952380Y-99968380D02*
X56285714Y-98968380D01*
X56619047Y-99968380D01*
X57380952Y-99968380D02*
X57380952Y-98968380D01*
X57380952Y-99920761D02*
X57285714Y-99968380D01*
X57095238Y-99968380D01*
X57000000Y-99920761D01*
X56952380Y-99873142D01*
X56904761Y-99777904D01*
X56904761Y-99492190D01*
X56952380Y-99396952D01*
X57000000Y-99349333D01*
X57095238Y-99301714D01*
X57285714Y-99301714D01*
X57380952Y-99349333D01*
X58285714Y-99968380D02*
X58285714Y-99444571D01*
X58238095Y-99349333D01*
X58142857Y-99301714D01*
X57952380Y-99301714D01*
X57857142Y-99349333D01*
X58285714Y-99920761D02*
X58190476Y-99968380D01*
X57952380Y-99968380D01*
X57857142Y-99920761D01*
X57809523Y-99825523D01*
X57809523Y-99730285D01*
X57857142Y-99635047D01*
X57952380Y-99587428D01*
X58190476Y-99587428D01*
X58285714Y-99539809D01*
X58619047Y-99301714D02*
X59000000Y-99301714D01*
X58761904Y-99968380D02*
X58761904Y-99111238D01*
X58809523Y-99016000D01*
X58904761Y-98968380D01*
X59000000Y-98968380D01*
X59333333Y-99968380D02*
X59333333Y-99301714D01*
X59333333Y-99492190D02*
X59380952Y-99396952D01*
X59428571Y-99349333D01*
X59523809Y-99301714D01*
X59619047Y-99301714D01*
X60380952Y-99301714D02*
X60380952Y-99968380D01*
X59952380Y-99301714D02*
X59952380Y-99825523D01*
X60000000Y-99920761D01*
X60095238Y-99968380D01*
X60238095Y-99968380D01*
X60333333Y-99920761D01*
X60380952Y-99873142D01*
X60857142Y-99968380D02*
X60857142Y-99301714D01*
X60857142Y-98968380D02*
X60809523Y-99016000D01*
X60857142Y-99063619D01*
X60904761Y-99016000D01*
X60857142Y-98968380D01*
X60857142Y-99063619D01*
X61190476Y-99301714D02*
X61571428Y-99301714D01*
X61333333Y-98968380D02*
X61333333Y-99825523D01*
X61380952Y-99920761D01*
X61476190Y-99968380D01*
X61571428Y-99968380D01*
X61666666Y-100063619D02*
X62428571Y-100063619D01*
X62666666Y-99968380D02*
X62666666Y-98968380D01*
X63000000Y-99682666D01*
X63333333Y-98968380D01*
X63333333Y-99968380D01*
X63761904Y-99682666D02*
X64238095Y-99682666D01*
X63666666Y-99968380D02*
X64000000Y-98968380D01*
X64333333Y-99968380D01*
X64571428Y-98968380D02*
X65238095Y-99968380D01*
X65238095Y-98968380D02*
X64571428Y-99968380D01*
X65523809Y-98968380D02*
X66142857Y-98968380D01*
X65809523Y-99349333D01*
X65952380Y-99349333D01*
X66047619Y-99396952D01*
X66095238Y-99444571D01*
X66142857Y-99539809D01*
X66142857Y-99777904D01*
X66095238Y-99873142D01*
X66047619Y-99920761D01*
X65952380Y-99968380D01*
X65666666Y-99968380D01*
X65571428Y-99920761D01*
X65523809Y-99873142D01*
X67095238Y-99968380D02*
X66523809Y-99968380D01*
X66809523Y-99968380D02*
X66809523Y-98968380D01*
X66714285Y-99111238D01*
X66619047Y-99206476D01*
X66523809Y-99254095D01*
X67666666Y-99396952D02*
X67571428Y-99349333D01*
X67523809Y-99301714D01*
X67476190Y-99206476D01*
X67476190Y-99158857D01*
X67523809Y-99063619D01*
X67571428Y-99016000D01*
X67666666Y-98968380D01*
X67857142Y-98968380D01*
X67952380Y-99016000D01*
X68000000Y-99063619D01*
X68047619Y-99158857D01*
X68047619Y-99206476D01*
X68000000Y-99301714D01*
X67952380Y-99349333D01*
X67857142Y-99396952D01*
X67666666Y-99396952D01*
X67571428Y-99444571D01*
X67523809Y-99492190D01*
X67476190Y-99587428D01*
X67476190Y-99777904D01*
X67523809Y-99873142D01*
X67571428Y-99920761D01*
X67666666Y-99968380D01*
X67857142Y-99968380D01*
X67952380Y-99920761D01*
X68000000Y-99873142D01*
X68047619Y-99777904D01*
X68047619Y-99587428D01*
X68000000Y-99492190D01*
X67952380Y-99444571D01*
X67857142Y-99396952D01*
X68952380Y-98968380D02*
X68476190Y-98968380D01*
X68428571Y-99444571D01*
X68476190Y-99396952D01*
X68571428Y-99349333D01*
X68809523Y-99349333D01*
X68904761Y-99396952D01*
X68952380Y-99444571D01*
X69000000Y-99539809D01*
X69000000Y-99777904D01*
X68952380Y-99873142D01*
X68904761Y-99920761D01*
X68809523Y-99968380D01*
X68571428Y-99968380D01*
X68476190Y-99920761D01*
X68428571Y-99873142D01*
X69857142Y-98968380D02*
X69666666Y-98968380D01*
X69571428Y-99016000D01*
X69523809Y-99063619D01*
X69428571Y-99206476D01*
X69380952Y-99396952D01*
X69380952Y-99777904D01*
X69428571Y-99873142D01*
X69476190Y-99920761D01*
X69571428Y-99968380D01*
X69761904Y-99968380D01*
X69857142Y-99920761D01*
X69904761Y-99873142D01*
X69952380Y-99777904D01*
X69952380Y-99539809D01*
X69904761Y-99444571D01*
X69857142Y-99396952D01*
X69761904Y-99349333D01*
X69571428Y-99349333D01*
X69476190Y-99396952D01*
X69428571Y-99444571D01*
X69380952Y-99539809D01*
X68334047Y-108096428D02*
X69095952Y-108096428D01*
X68715000Y-108477380D02*
X68715000Y-107715476D01*
X72485380Y-93753238D02*
X73485380Y-93419904D01*
X72485380Y-93086571D01*
X73485380Y-92753238D02*
X72485380Y-92753238D01*
X73485380Y-92277047D02*
X72485380Y-92277047D01*
X73485380Y-91705619D01*
X72485380Y-91705619D01*
X139798095Y-66122380D02*
X139798095Y-65122380D01*
X140274285Y-66122380D02*
X140274285Y-65122380D01*
X140845714Y-66122380D01*
X140845714Y-65122380D01*
X141274285Y-65836666D02*
X141750476Y-65836666D01*
X141179047Y-66122380D02*
X141512380Y-65122380D01*
X141845714Y-66122380D01*
X141940952Y-66217619D02*
X142702857Y-66217619D01*
X143464761Y-66122380D02*
X142893333Y-66122380D01*
X143179047Y-66122380D02*
X143179047Y-65122380D01*
X143083809Y-65265238D01*
X142988571Y-65360476D01*
X142893333Y-65408095D01*
X143845714Y-65217619D02*
X143893333Y-65170000D01*
X143988571Y-65122380D01*
X144226666Y-65122380D01*
X144321904Y-65170000D01*
X144369523Y-65217619D01*
X144417142Y-65312857D01*
X144417142Y-65408095D01*
X144369523Y-65550952D01*
X143798095Y-66122380D01*
X144417142Y-66122380D01*
X144798095Y-65217619D02*
X144845714Y-65170000D01*
X144940952Y-65122380D01*
X145179047Y-65122380D01*
X145274285Y-65170000D01*
X145321904Y-65217619D01*
X145369523Y-65312857D01*
X145369523Y-65408095D01*
X145321904Y-65550952D01*
X144750476Y-66122380D01*
X145369523Y-66122380D01*
X145798095Y-66122380D02*
X145798095Y-65122380D01*
X146179047Y-65122380D01*
X146274285Y-65170000D01*
X146321904Y-65217619D01*
X146369523Y-65312857D01*
X146369523Y-65455714D01*
X146321904Y-65550952D01*
X146274285Y-65598571D01*
X146179047Y-65646190D01*
X145798095Y-65646190D01*
X84047619Y-99682666D02*
X84523809Y-99682666D01*
X83952380Y-99968380D02*
X84285714Y-98968380D01*
X84619047Y-99968380D01*
X85380952Y-99968380D02*
X85380952Y-98968380D01*
X85380952Y-99920761D02*
X85285714Y-99968380D01*
X85095238Y-99968380D01*
X85000000Y-99920761D01*
X84952380Y-99873142D01*
X84904761Y-99777904D01*
X84904761Y-99492190D01*
X84952380Y-99396952D01*
X85000000Y-99349333D01*
X85095238Y-99301714D01*
X85285714Y-99301714D01*
X85380952Y-99349333D01*
X86285714Y-99968380D02*
X86285714Y-99444571D01*
X86238095Y-99349333D01*
X86142857Y-99301714D01*
X85952380Y-99301714D01*
X85857142Y-99349333D01*
X86285714Y-99920761D02*
X86190476Y-99968380D01*
X85952380Y-99968380D01*
X85857142Y-99920761D01*
X85809523Y-99825523D01*
X85809523Y-99730285D01*
X85857142Y-99635047D01*
X85952380Y-99587428D01*
X86190476Y-99587428D01*
X86285714Y-99539809D01*
X86619047Y-99301714D02*
X87000000Y-99301714D01*
X86761904Y-99968380D02*
X86761904Y-99111238D01*
X86809523Y-99016000D01*
X86904761Y-98968380D01*
X87000000Y-98968380D01*
X87333333Y-99968380D02*
X87333333Y-99301714D01*
X87333333Y-99492190D02*
X87380952Y-99396952D01*
X87428571Y-99349333D01*
X87523809Y-99301714D01*
X87619047Y-99301714D01*
X88380952Y-99301714D02*
X88380952Y-99968380D01*
X87952380Y-99301714D02*
X87952380Y-99825523D01*
X88000000Y-99920761D01*
X88095238Y-99968380D01*
X88238095Y-99968380D01*
X88333333Y-99920761D01*
X88380952Y-99873142D01*
X88857142Y-99968380D02*
X88857142Y-99301714D01*
X88857142Y-98968380D02*
X88809523Y-99016000D01*
X88857142Y-99063619D01*
X88904761Y-99016000D01*
X88857142Y-98968380D01*
X88857142Y-99063619D01*
X89190476Y-99301714D02*
X89571428Y-99301714D01*
X89333333Y-98968380D02*
X89333333Y-99825523D01*
X89380952Y-99920761D01*
X89476190Y-99968380D01*
X89571428Y-99968380D01*
X89666666Y-100063619D02*
X90428571Y-100063619D01*
X90666666Y-99968380D02*
X90666666Y-98968380D01*
X91000000Y-99682666D01*
X91333333Y-98968380D01*
X91333333Y-99968380D01*
X91761904Y-99682666D02*
X92238095Y-99682666D01*
X91666666Y-99968380D02*
X91999999Y-98968380D01*
X92333333Y-99968380D01*
X92571428Y-98968380D02*
X93238095Y-99968380D01*
X93238095Y-98968380D02*
X92571428Y-99968380D01*
X93523809Y-98968380D02*
X94142857Y-98968380D01*
X93809523Y-99349333D01*
X93952380Y-99349333D01*
X94047619Y-99396952D01*
X94095238Y-99444571D01*
X94142857Y-99539809D01*
X94142857Y-99777904D01*
X94095238Y-99873142D01*
X94047619Y-99920761D01*
X93952380Y-99968380D01*
X93666666Y-99968380D01*
X93571428Y-99920761D01*
X93523809Y-99873142D01*
X95095238Y-99968380D02*
X94523809Y-99968380D01*
X94809523Y-99968380D02*
X94809523Y-98968380D01*
X94714285Y-99111238D01*
X94619047Y-99206476D01*
X94523809Y-99254095D01*
X95666666Y-99396952D02*
X95571428Y-99349333D01*
X95523809Y-99301714D01*
X95476190Y-99206476D01*
X95476190Y-99158857D01*
X95523809Y-99063619D01*
X95571428Y-99016000D01*
X95666666Y-98968380D01*
X95857142Y-98968380D01*
X95952380Y-99016000D01*
X95999999Y-99063619D01*
X96047619Y-99158857D01*
X96047619Y-99206476D01*
X95999999Y-99301714D01*
X95952380Y-99349333D01*
X95857142Y-99396952D01*
X95666666Y-99396952D01*
X95571428Y-99444571D01*
X95523809Y-99492190D01*
X95476190Y-99587428D01*
X95476190Y-99777904D01*
X95523809Y-99873142D01*
X95571428Y-99920761D01*
X95666666Y-99968380D01*
X95857142Y-99968380D01*
X95952380Y-99920761D01*
X95999999Y-99873142D01*
X96047619Y-99777904D01*
X96047619Y-99587428D01*
X95999999Y-99492190D01*
X95952380Y-99444571D01*
X95857142Y-99396952D01*
X96952380Y-98968380D02*
X96476190Y-98968380D01*
X96428571Y-99444571D01*
X96476190Y-99396952D01*
X96571428Y-99349333D01*
X96809523Y-99349333D01*
X96904761Y-99396952D01*
X96952380Y-99444571D01*
X96999999Y-99539809D01*
X96999999Y-99777904D01*
X96952380Y-99873142D01*
X96904761Y-99920761D01*
X96809523Y-99968380D01*
X96571428Y-99968380D01*
X96476190Y-99920761D01*
X96428571Y-99873142D01*
X97857142Y-98968380D02*
X97666666Y-98968380D01*
X97571428Y-99016000D01*
X97523809Y-99063619D01*
X97428571Y-99206476D01*
X97380952Y-99396952D01*
X97380952Y-99777904D01*
X97428571Y-99873142D01*
X97476190Y-99920761D01*
X97571428Y-99968380D01*
X97761904Y-99968380D01*
X97857142Y-99920761D01*
X97904761Y-99873142D01*
X97952380Y-99777904D01*
X97952380Y-99539809D01*
X97904761Y-99444571D01*
X97857142Y-99396952D01*
X97761904Y-99349333D01*
X97571428Y-99349333D01*
X97476190Y-99396952D01*
X97428571Y-99444571D01*
X97380952Y-99539809D01*
X96334047Y-108096428D02*
X97095952Y-108096428D01*
X96715000Y-108477380D02*
X96715000Y-107715476D01*
X100485380Y-93753238D02*
X101485380Y-93419904D01*
X100485380Y-93086571D01*
X101485380Y-92753238D02*
X100485380Y-92753238D01*
X101485380Y-92277047D02*
X100485380Y-92277047D01*
X101485380Y-91705619D01*
X100485380Y-91705619D01*
X83047619Y-48650666D02*
X83523809Y-48650666D01*
X82952380Y-48936380D02*
X83285714Y-47936380D01*
X83619047Y-48936380D01*
X84380952Y-48936380D02*
X84380952Y-47936380D01*
X84380952Y-48888761D02*
X84285714Y-48936380D01*
X84095238Y-48936380D01*
X84000000Y-48888761D01*
X83952380Y-48841142D01*
X83904761Y-48745904D01*
X83904761Y-48460190D01*
X83952380Y-48364952D01*
X84000000Y-48317333D01*
X84095238Y-48269714D01*
X84285714Y-48269714D01*
X84380952Y-48317333D01*
X85285714Y-48936380D02*
X85285714Y-48412571D01*
X85238095Y-48317333D01*
X85142857Y-48269714D01*
X84952380Y-48269714D01*
X84857142Y-48317333D01*
X85285714Y-48888761D02*
X85190476Y-48936380D01*
X84952380Y-48936380D01*
X84857142Y-48888761D01*
X84809523Y-48793523D01*
X84809523Y-48698285D01*
X84857142Y-48603047D01*
X84952380Y-48555428D01*
X85190476Y-48555428D01*
X85285714Y-48507809D01*
X85619047Y-48269714D02*
X86000000Y-48269714D01*
X85761904Y-48936380D02*
X85761904Y-48079238D01*
X85809523Y-47984000D01*
X85904761Y-47936380D01*
X86000000Y-47936380D01*
X86333333Y-48936380D02*
X86333333Y-48269714D01*
X86333333Y-48460190D02*
X86380952Y-48364952D01*
X86428571Y-48317333D01*
X86523809Y-48269714D01*
X86619047Y-48269714D01*
X87380952Y-48269714D02*
X87380952Y-48936380D01*
X86952380Y-48269714D02*
X86952380Y-48793523D01*
X87000000Y-48888761D01*
X87095238Y-48936380D01*
X87238095Y-48936380D01*
X87333333Y-48888761D01*
X87380952Y-48841142D01*
X87857142Y-48936380D02*
X87857142Y-48269714D01*
X87857142Y-47936380D02*
X87809523Y-47984000D01*
X87857142Y-48031619D01*
X87904761Y-47984000D01*
X87857142Y-47936380D01*
X87857142Y-48031619D01*
X88190476Y-48269714D02*
X88571428Y-48269714D01*
X88333333Y-47936380D02*
X88333333Y-48793523D01*
X88380952Y-48888761D01*
X88476190Y-48936380D01*
X88571428Y-48936380D01*
X88666666Y-49031619D02*
X89428571Y-49031619D01*
X89666666Y-48936380D02*
X89666666Y-47936380D01*
X90000000Y-48650666D01*
X90333333Y-47936380D01*
X90333333Y-48936380D01*
X90761904Y-48650666D02*
X91238095Y-48650666D01*
X90666666Y-48936380D02*
X90999999Y-47936380D01*
X91333333Y-48936380D01*
X91571428Y-47936380D02*
X92238095Y-48936380D01*
X92238095Y-47936380D02*
X91571428Y-48936380D01*
X92523809Y-47936380D02*
X93142857Y-47936380D01*
X92809523Y-48317333D01*
X92952380Y-48317333D01*
X93047619Y-48364952D01*
X93095238Y-48412571D01*
X93142857Y-48507809D01*
X93142857Y-48745904D01*
X93095238Y-48841142D01*
X93047619Y-48888761D01*
X92952380Y-48936380D01*
X92666666Y-48936380D01*
X92571428Y-48888761D01*
X92523809Y-48841142D01*
X94095238Y-48936380D02*
X93523809Y-48936380D01*
X93809523Y-48936380D02*
X93809523Y-47936380D01*
X93714285Y-48079238D01*
X93619047Y-48174476D01*
X93523809Y-48222095D01*
X94666666Y-48364952D02*
X94571428Y-48317333D01*
X94523809Y-48269714D01*
X94476190Y-48174476D01*
X94476190Y-48126857D01*
X94523809Y-48031619D01*
X94571428Y-47984000D01*
X94666666Y-47936380D01*
X94857142Y-47936380D01*
X94952380Y-47984000D01*
X94999999Y-48031619D01*
X95047619Y-48126857D01*
X95047619Y-48174476D01*
X94999999Y-48269714D01*
X94952380Y-48317333D01*
X94857142Y-48364952D01*
X94666666Y-48364952D01*
X94571428Y-48412571D01*
X94523809Y-48460190D01*
X94476190Y-48555428D01*
X94476190Y-48745904D01*
X94523809Y-48841142D01*
X94571428Y-48888761D01*
X94666666Y-48936380D01*
X94857142Y-48936380D01*
X94952380Y-48888761D01*
X94999999Y-48841142D01*
X95047619Y-48745904D01*
X95047619Y-48555428D01*
X94999999Y-48460190D01*
X94952380Y-48412571D01*
X94857142Y-48364952D01*
X95952380Y-47936380D02*
X95476190Y-47936380D01*
X95428571Y-48412571D01*
X95476190Y-48364952D01*
X95571428Y-48317333D01*
X95809523Y-48317333D01*
X95904761Y-48364952D01*
X95952380Y-48412571D01*
X95999999Y-48507809D01*
X95999999Y-48745904D01*
X95952380Y-48841142D01*
X95904761Y-48888761D01*
X95809523Y-48936380D01*
X95571428Y-48936380D01*
X95476190Y-48888761D01*
X95428571Y-48841142D01*
X96857142Y-47936380D02*
X96666666Y-47936380D01*
X96571428Y-47984000D01*
X96523809Y-48031619D01*
X96428571Y-48174476D01*
X96380952Y-48364952D01*
X96380952Y-48745904D01*
X96428571Y-48841142D01*
X96476190Y-48888761D01*
X96571428Y-48936380D01*
X96761904Y-48936380D01*
X96857142Y-48888761D01*
X96904761Y-48841142D01*
X96952380Y-48745904D01*
X96952380Y-48507809D01*
X96904761Y-48412571D01*
X96857142Y-48364952D01*
X96761904Y-48317333D01*
X96571428Y-48317333D01*
X96476190Y-48364952D01*
X96428571Y-48412571D01*
X96380952Y-48507809D01*
X83904047Y-40046428D02*
X84665952Y-40046428D01*
X84285000Y-40427380D02*
X84285000Y-39665476D01*
X79419380Y-56437238D02*
X80419380Y-56103904D01*
X79419380Y-55770571D01*
X80419380Y-55437238D02*
X79419380Y-55437238D01*
X80419380Y-54961047D02*
X79419380Y-54961047D01*
X80419380Y-54389619D01*
X79419380Y-54389619D01*
X66357142Y-72261666D02*
X66833333Y-72261666D01*
X66261904Y-72547380D02*
X66595238Y-71547380D01*
X66928571Y-72547380D01*
X67690476Y-72547380D02*
X67690476Y-71547380D01*
X67690476Y-72499761D02*
X67595238Y-72547380D01*
X67404761Y-72547380D01*
X67309523Y-72499761D01*
X67261904Y-72452142D01*
X67214285Y-72356904D01*
X67214285Y-72071190D01*
X67261904Y-71975952D01*
X67309523Y-71928333D01*
X67404761Y-71880714D01*
X67595238Y-71880714D01*
X67690476Y-71928333D01*
X68595238Y-72547380D02*
X68595238Y-72023571D01*
X68547619Y-71928333D01*
X68452380Y-71880714D01*
X68261904Y-71880714D01*
X68166666Y-71928333D01*
X68595238Y-72499761D02*
X68500000Y-72547380D01*
X68261904Y-72547380D01*
X68166666Y-72499761D01*
X68119047Y-72404523D01*
X68119047Y-72309285D01*
X68166666Y-72214047D01*
X68261904Y-72166428D01*
X68500000Y-72166428D01*
X68595238Y-72118809D01*
X68928571Y-71880714D02*
X69309523Y-71880714D01*
X69071428Y-72547380D02*
X69071428Y-71690238D01*
X69119047Y-71595000D01*
X69214285Y-71547380D01*
X69309523Y-71547380D01*
X69642857Y-72547380D02*
X69642857Y-71880714D01*
X69642857Y-72071190D02*
X69690476Y-71975952D01*
X69738095Y-71928333D01*
X69833333Y-71880714D01*
X69928571Y-71880714D01*
X70690476Y-71880714D02*
X70690476Y-72547380D01*
X70261904Y-71880714D02*
X70261904Y-72404523D01*
X70309523Y-72499761D01*
X70404761Y-72547380D01*
X70547619Y-72547380D01*
X70642857Y-72499761D01*
X70690476Y-72452142D01*
X71166666Y-72547380D02*
X71166666Y-71880714D01*
X71166666Y-71547380D02*
X71119047Y-71595000D01*
X71166666Y-71642619D01*
X71214285Y-71595000D01*
X71166666Y-71547380D01*
X71166666Y-71642619D01*
X71500000Y-71880714D02*
X71880952Y-71880714D01*
X71642857Y-71547380D02*
X71642857Y-72404523D01*
X71690476Y-72499761D01*
X71785714Y-72547380D01*
X71880952Y-72547380D01*
X72214285Y-72547380D02*
X72214285Y-71547380D01*
X72214285Y-72023571D02*
X72785714Y-72023571D01*
X72785714Y-72547380D02*
X72785714Y-71547380D01*
X73690476Y-71880714D02*
X73690476Y-72547380D01*
X73261904Y-71880714D02*
X73261904Y-72404523D01*
X73309523Y-72499761D01*
X73404761Y-72547380D01*
X73547619Y-72547380D01*
X73642857Y-72499761D01*
X73690476Y-72452142D01*
X74071428Y-71880714D02*
X74595238Y-71880714D01*
X74071428Y-72547380D01*
X74595238Y-72547380D01*
X74880952Y-71880714D02*
X75404761Y-71880714D01*
X74880952Y-72547380D01*
X75404761Y-72547380D01*
X76214285Y-72547380D02*
X76214285Y-72023571D01*
X76166666Y-71928333D01*
X76071428Y-71880714D01*
X75880952Y-71880714D01*
X75785714Y-71928333D01*
X76214285Y-72499761D02*
X76119047Y-72547380D01*
X75880952Y-72547380D01*
X75785714Y-72499761D01*
X75738095Y-72404523D01*
X75738095Y-72309285D01*
X75785714Y-72214047D01*
X75880952Y-72166428D01*
X76119047Y-72166428D01*
X76214285Y-72118809D01*
X76690476Y-72547380D02*
X76690476Y-71547380D01*
X77119047Y-72547380D02*
X77119047Y-72023571D01*
X77071428Y-71928333D01*
X76976190Y-71880714D01*
X76833333Y-71880714D01*
X76738095Y-71928333D01*
X76690476Y-71975952D01*
X77500000Y-71547380D02*
X78119047Y-71547380D01*
X77785714Y-71928333D01*
X77928571Y-71928333D01*
X78023809Y-71975952D01*
X78071428Y-72023571D01*
X78119047Y-72118809D01*
X78119047Y-72356904D01*
X78071428Y-72452142D01*
X78023809Y-72499761D01*
X77928571Y-72547380D01*
X77642857Y-72547380D01*
X77547619Y-72499761D01*
X77500000Y-72452142D01*
X78500000Y-71642619D02*
X78547619Y-71595000D01*
X78642857Y-71547380D01*
X78880952Y-71547380D01*
X78976190Y-71595000D01*
X79023809Y-71642619D01*
X79071428Y-71737857D01*
X79071428Y-71833095D01*
X79023809Y-71975952D01*
X78452380Y-72547380D01*
X79071428Y-72547380D01*
X79833333Y-72023571D02*
X79976190Y-72071190D01*
X80023809Y-72118809D01*
X80071428Y-72214047D01*
X80071428Y-72356904D01*
X80023809Y-72452142D01*
X79976190Y-72499761D01*
X79880952Y-72547380D01*
X79500000Y-72547380D01*
X79500000Y-71547380D01*
X79833333Y-71547380D01*
X79928571Y-71595000D01*
X79976190Y-71642619D01*
X80023809Y-71737857D01*
X80023809Y-71833095D01*
X79976190Y-71928333D01*
X79928571Y-71975952D01*
X79833333Y-72023571D01*
X79500000Y-72023571D01*
X80500000Y-72547380D02*
X80500000Y-71880714D01*
X80500000Y-72071190D02*
X80547619Y-71975952D01*
X80595238Y-71928333D01*
X80690476Y-71880714D01*
X80785714Y-71880714D01*
X81500000Y-72499761D02*
X81404761Y-72547380D01*
X81214285Y-72547380D01*
X81119047Y-72499761D01*
X81071428Y-72404523D01*
X81071428Y-72023571D01*
X81119047Y-71928333D01*
X81214285Y-71880714D01*
X81404761Y-71880714D01*
X81500000Y-71928333D01*
X81547619Y-72023571D01*
X81547619Y-72118809D01*
X81071428Y-72214047D01*
X82404761Y-72547380D02*
X82404761Y-72023571D01*
X82357142Y-71928333D01*
X82261904Y-71880714D01*
X82071428Y-71880714D01*
X81976190Y-71928333D01*
X82404761Y-72499761D02*
X82309523Y-72547380D01*
X82071428Y-72547380D01*
X81976190Y-72499761D01*
X81928571Y-72404523D01*
X81928571Y-72309285D01*
X81976190Y-72214047D01*
X82071428Y-72166428D01*
X82309523Y-72166428D01*
X82404761Y-72118809D01*
X82880952Y-72547380D02*
X82880952Y-71547380D01*
X82976190Y-72166428D02*
X83261904Y-72547380D01*
X83261904Y-71880714D02*
X82880952Y-72261666D01*
X83833333Y-72547380D02*
X83738095Y-72499761D01*
X83690476Y-72452142D01*
X83642857Y-72356904D01*
X83642857Y-72071190D01*
X83690476Y-71975952D01*
X83738095Y-71928333D01*
X83833333Y-71880714D01*
X83976190Y-71880714D01*
X84071428Y-71928333D01*
X84119047Y-71975952D01*
X84166666Y-72071190D01*
X84166666Y-72356904D01*
X84119047Y-72452142D01*
X84071428Y-72499761D01*
X83976190Y-72547380D01*
X83833333Y-72547380D01*
X85023809Y-71880714D02*
X85023809Y-72547380D01*
X84595238Y-71880714D02*
X84595238Y-72404523D01*
X84642857Y-72499761D01*
X84738095Y-72547380D01*
X84880952Y-72547380D01*
X84976190Y-72499761D01*
X85023809Y-72452142D01*
X85357142Y-71880714D02*
X85738095Y-71880714D01*
X85499999Y-71547380D02*
X85499999Y-72404523D01*
X85547619Y-72499761D01*
X85642857Y-72547380D01*
X85738095Y-72547380D01*
X143373333Y-79532380D02*
X143040000Y-79056190D01*
X142801904Y-79532380D02*
X142801904Y-78532380D01*
X143182857Y-78532380D01*
X143278095Y-78580000D01*
X143325714Y-78627619D01*
X143373333Y-78722857D01*
X143373333Y-78865714D01*
X143325714Y-78960952D01*
X143278095Y-79008571D01*
X143182857Y-79056190D01*
X142801904Y-79056190D01*
X144230476Y-78865714D02*
X144230476Y-79532380D01*
X143992380Y-78484761D02*
X143754285Y-79199047D01*
X144373333Y-79199047D01*
X151372380Y-81706666D02*
X150896190Y-82040000D01*
X151372380Y-82278095D02*
X150372380Y-82278095D01*
X150372380Y-81897142D01*
X150420000Y-81801904D01*
X150467619Y-81754285D01*
X150562857Y-81706666D01*
X150705714Y-81706666D01*
X150800952Y-81754285D01*
X150848571Y-81801904D01*
X150896190Y-81897142D01*
X150896190Y-82278095D01*
X150372380Y-81373333D02*
X150372380Y-80754285D01*
X150753333Y-81087619D01*
X150753333Y-80944761D01*
X150800952Y-80849523D01*
X150848571Y-80801904D01*
X150943809Y-80754285D01*
X151181904Y-80754285D01*
X151277142Y-80801904D01*
X151324761Y-80849523D01*
X151372380Y-80944761D01*
X151372380Y-81230476D01*
X151324761Y-81325714D01*
X151277142Y-81373333D01*
X145532380Y-57626666D02*
X145056190Y-57960000D01*
X145532380Y-58198095D02*
X144532380Y-58198095D01*
X144532380Y-57817142D01*
X144580000Y-57721904D01*
X144627619Y-57674285D01*
X144722857Y-57626666D01*
X144865714Y-57626666D01*
X144960952Y-57674285D01*
X145008571Y-57721904D01*
X145056190Y-57817142D01*
X145056190Y-58198095D01*
X144627619Y-57245714D02*
X144580000Y-57198095D01*
X144532380Y-57102857D01*
X144532380Y-56864761D01*
X144580000Y-56769523D01*
X144627619Y-56721904D01*
X144722857Y-56674285D01*
X144818095Y-56674285D01*
X144960952Y-56721904D01*
X145532380Y-57293333D01*
X145532380Y-56674285D01*
X145532380Y-45626666D02*
X145056190Y-45960000D01*
X145532380Y-46198095D02*
X144532380Y-46198095D01*
X144532380Y-45817142D01*
X144580000Y-45721904D01*
X144627619Y-45674285D01*
X144722857Y-45626666D01*
X144865714Y-45626666D01*
X144960952Y-45674285D01*
X145008571Y-45721904D01*
X145056190Y-45817142D01*
X145056190Y-46198095D01*
X145532380Y-44674285D02*
X145532380Y-45245714D01*
X145532380Y-44960000D02*
X144532380Y-44960000D01*
X144675238Y-45055238D01*
X144770476Y-45150476D01*
X144818095Y-45245714D01*
X160151428Y-108166666D02*
X160151428Y-107404761D01*
X160532380Y-107785714D02*
X159770476Y-107785714D01*
X160532380Y-104119047D02*
X160532380Y-104690476D01*
X160532380Y-104404761D02*
X159532380Y-104404761D01*
X159675238Y-104500000D01*
X159770476Y-104595238D01*
X159818095Y-104690476D01*
X159627619Y-103738095D02*
X159580000Y-103690476D01*
X159532380Y-103595238D01*
X159532380Y-103357142D01*
X159580000Y-103261904D01*
X159627619Y-103214285D01*
X159722857Y-103166666D01*
X159818095Y-103166666D01*
X159960952Y-103214285D01*
X160532380Y-103785714D01*
X160532380Y-103166666D01*
X159532380Y-102880952D02*
X160532380Y-102547619D01*
X159532380Y-102214285D01*
X160151428Y-99595238D02*
X160151428Y-98833333D01*
X160452380Y-77885714D02*
X160452380Y-78361904D01*
X159452380Y-78361904D01*
X159452380Y-77361904D02*
X159452380Y-77171428D01*
X159500000Y-77076190D01*
X159595238Y-76980952D01*
X159785714Y-76933333D01*
X160119047Y-76933333D01*
X160309523Y-76980952D01*
X160404761Y-77076190D01*
X160452380Y-77171428D01*
X160452380Y-77361904D01*
X160404761Y-77457142D01*
X160309523Y-77552380D01*
X160119047Y-77600000D01*
X159785714Y-77600000D01*
X159595238Y-77552380D01*
X159500000Y-77457142D01*
X159452380Y-77361904D01*
X160166666Y-76552380D02*
X160166666Y-76076190D01*
X160452380Y-76647619D02*
X159452380Y-76314285D01*
X160452380Y-75980952D01*
X160452380Y-75647619D02*
X159452380Y-75647619D01*
X159452380Y-75409523D01*
X159500000Y-75266666D01*
X159595238Y-75171428D01*
X159690476Y-75123809D01*
X159880952Y-75076190D01*
X160023809Y-75076190D01*
X160214285Y-75123809D01*
X160309523Y-75171428D01*
X160404761Y-75266666D01*
X160452380Y-75409523D01*
X160452380Y-75647619D01*
X160357142Y-73314285D02*
X160404761Y-73361904D01*
X160452380Y-73504761D01*
X160452380Y-73600000D01*
X160404761Y-73742857D01*
X160309523Y-73838095D01*
X160214285Y-73885714D01*
X160023809Y-73933333D01*
X159880952Y-73933333D01*
X159690476Y-73885714D01*
X159595238Y-73838095D01*
X159500000Y-73742857D01*
X159452380Y-73600000D01*
X159452380Y-73504761D01*
X159500000Y-73361904D01*
X159547619Y-73314285D01*
X159928571Y-72885714D02*
X159928571Y-72552380D01*
X160452380Y-72409523D02*
X160452380Y-72885714D01*
X159452380Y-72885714D01*
X159452380Y-72409523D01*
X160452380Y-71504761D02*
X160452380Y-71980952D01*
X159452380Y-71980952D01*
X160452380Y-70695238D02*
X160452380Y-71171428D01*
X159452380Y-71171428D01*
X160532380Y-92754285D02*
X159532380Y-92754285D01*
X159532380Y-92373333D01*
X159580000Y-92278095D01*
X159627619Y-92230476D01*
X159722857Y-92182857D01*
X159865714Y-92182857D01*
X159960952Y-92230476D01*
X160008571Y-92278095D01*
X160056190Y-92373333D01*
X160056190Y-92754285D01*
X160484761Y-91801904D02*
X160532380Y-91659047D01*
X160532380Y-91420952D01*
X160484761Y-91325714D01*
X160437142Y-91278095D01*
X160341904Y-91230476D01*
X160246666Y-91230476D01*
X160151428Y-91278095D01*
X160103809Y-91325714D01*
X160056190Y-91420952D01*
X160008571Y-91611428D01*
X159960952Y-91706666D01*
X159913333Y-91754285D01*
X159818095Y-91801904D01*
X159722857Y-91801904D01*
X159627619Y-91754285D01*
X159580000Y-91706666D01*
X159532380Y-91611428D01*
X159532380Y-91373333D01*
X159580000Y-91230476D01*
X159532380Y-90897142D02*
X159532380Y-90278095D01*
X159913333Y-90611428D01*
X159913333Y-90468571D01*
X159960952Y-90373333D01*
X160008571Y-90325714D01*
X160103809Y-90278095D01*
X160341904Y-90278095D01*
X160437142Y-90325714D01*
X160484761Y-90373333D01*
X160532380Y-90468571D01*
X160532380Y-90754285D01*
X160484761Y-90849523D01*
X160437142Y-90897142D01*
X160532380Y-58754285D02*
X159532380Y-58754285D01*
X159532380Y-58373333D01*
X159580000Y-58278095D01*
X159627619Y-58230476D01*
X159722857Y-58182857D01*
X159865714Y-58182857D01*
X159960952Y-58230476D01*
X160008571Y-58278095D01*
X160056190Y-58373333D01*
X160056190Y-58754285D01*
X160484761Y-57801904D02*
X160532380Y-57659047D01*
X160532380Y-57420952D01*
X160484761Y-57325714D01*
X160437142Y-57278095D01*
X160341904Y-57230476D01*
X160246666Y-57230476D01*
X160151428Y-57278095D01*
X160103809Y-57325714D01*
X160056190Y-57420952D01*
X160008571Y-57611428D01*
X159960952Y-57706666D01*
X159913333Y-57754285D01*
X159818095Y-57801904D01*
X159722857Y-57801904D01*
X159627619Y-57754285D01*
X159580000Y-57706666D01*
X159532380Y-57611428D01*
X159532380Y-57373333D01*
X159580000Y-57230476D01*
X159627619Y-56849523D02*
X159580000Y-56801904D01*
X159532380Y-56706666D01*
X159532380Y-56468571D01*
X159580000Y-56373333D01*
X159627619Y-56325714D01*
X159722857Y-56278095D01*
X159818095Y-56278095D01*
X159960952Y-56325714D01*
X160532380Y-56897142D01*
X160532380Y-56278095D01*
X160532380Y-46754285D02*
X159532380Y-46754285D01*
X159532380Y-46373333D01*
X159580000Y-46278095D01*
X159627619Y-46230476D01*
X159722857Y-46182857D01*
X159865714Y-46182857D01*
X159960952Y-46230476D01*
X160008571Y-46278095D01*
X160056190Y-46373333D01*
X160056190Y-46754285D01*
X160484761Y-45801904D02*
X160532380Y-45659047D01*
X160532380Y-45420952D01*
X160484761Y-45325714D01*
X160437142Y-45278095D01*
X160341904Y-45230476D01*
X160246666Y-45230476D01*
X160151428Y-45278095D01*
X160103809Y-45325714D01*
X160056190Y-45420952D01*
X160008571Y-45611428D01*
X159960952Y-45706666D01*
X159913333Y-45754285D01*
X159818095Y-45801904D01*
X159722857Y-45801904D01*
X159627619Y-45754285D01*
X159580000Y-45706666D01*
X159532380Y-45611428D01*
X159532380Y-45373333D01*
X159580000Y-45230476D01*
X160532380Y-44278095D02*
X160532380Y-44849523D01*
X160532380Y-44563809D02*
X159532380Y-44563809D01*
X159675238Y-44659047D01*
X159770476Y-44754285D01*
X159818095Y-44849523D01*
X120785714Y-103976666D02*
X121261904Y-103976666D01*
X120690476Y-104262380D02*
X121023809Y-103262380D01*
X121357142Y-104262380D01*
X121690476Y-104262380D02*
X121690476Y-103262380D01*
X121928571Y-103262380D01*
X122071428Y-103310000D01*
X122166666Y-103405238D01*
X122214285Y-103500476D01*
X122261904Y-103690952D01*
X122261904Y-103833809D01*
X122214285Y-104024285D01*
X122166666Y-104119523D01*
X122071428Y-104214761D01*
X121928571Y-104262380D01*
X121690476Y-104262380D01*
X123261904Y-104167142D02*
X123214285Y-104214761D01*
X123071428Y-104262380D01*
X122976190Y-104262380D01*
X122833333Y-104214761D01*
X122738095Y-104119523D01*
X122690476Y-104024285D01*
X122642857Y-103833809D01*
X122642857Y-103690952D01*
X122690476Y-103500476D01*
X122738095Y-103405238D01*
X122833333Y-103310000D01*
X122976190Y-103262380D01*
X123071428Y-103262380D01*
X123214285Y-103310000D01*
X123261904Y-103357619D01*
X123642857Y-103357619D02*
X123690476Y-103310000D01*
X123785714Y-103262380D01*
X124023809Y-103262380D01*
X124119047Y-103310000D01*
X124166666Y-103357619D01*
X124214285Y-103452857D01*
X124214285Y-103548095D01*
X124166666Y-103690952D01*
X123595238Y-104262380D01*
X124214285Y-104262380D01*
X116095238Y-96356666D02*
X116571428Y-96356666D01*
X116000000Y-96642380D02*
X116333333Y-95642380D01*
X116666666Y-96642380D01*
X117428571Y-96642380D02*
X117428571Y-95642380D01*
X117428571Y-96594761D02*
X117333333Y-96642380D01*
X117142857Y-96642380D01*
X117047619Y-96594761D01*
X117000000Y-96547142D01*
X116952380Y-96451904D01*
X116952380Y-96166190D01*
X117000000Y-96070952D01*
X117047619Y-96023333D01*
X117142857Y-95975714D01*
X117333333Y-95975714D01*
X117428571Y-96023333D01*
X118333333Y-96642380D02*
X118333333Y-96118571D01*
X118285714Y-96023333D01*
X118190476Y-95975714D01*
X118000000Y-95975714D01*
X117904761Y-96023333D01*
X118333333Y-96594761D02*
X118238095Y-96642380D01*
X118000000Y-96642380D01*
X117904761Y-96594761D01*
X117857142Y-96499523D01*
X117857142Y-96404285D01*
X117904761Y-96309047D01*
X118000000Y-96261428D01*
X118238095Y-96261428D01*
X118333333Y-96213809D01*
X118666666Y-95975714D02*
X119047619Y-95975714D01*
X118809523Y-96642380D02*
X118809523Y-95785238D01*
X118857142Y-95690000D01*
X118952380Y-95642380D01*
X119047619Y-95642380D01*
X119380952Y-96642380D02*
X119380952Y-95975714D01*
X119380952Y-96166190D02*
X119428571Y-96070952D01*
X119476190Y-96023333D01*
X119571428Y-95975714D01*
X119666666Y-95975714D01*
X120428571Y-95975714D02*
X120428571Y-96642380D01*
X120000000Y-95975714D02*
X120000000Y-96499523D01*
X120047619Y-96594761D01*
X120142857Y-96642380D01*
X120285714Y-96642380D01*
X120380952Y-96594761D01*
X120428571Y-96547142D01*
X120904761Y-96642380D02*
X120904761Y-95975714D01*
X120904761Y-95642380D02*
X120857142Y-95690000D01*
X120904761Y-95737619D01*
X120952380Y-95690000D01*
X120904761Y-95642380D01*
X120904761Y-95737619D01*
X121238095Y-95975714D02*
X121619047Y-95975714D01*
X121380952Y-95642380D02*
X121380952Y-96499523D01*
X121428571Y-96594761D01*
X121523809Y-96642380D01*
X121619047Y-96642380D01*
X121714285Y-96737619D02*
X122476190Y-96737619D01*
X122666666Y-96356666D02*
X123142857Y-96356666D01*
X122571428Y-96642380D02*
X122904761Y-95642380D01*
X123238095Y-96642380D01*
X123571428Y-96642380D02*
X123571428Y-95642380D01*
X123809523Y-95642380D01*
X123952380Y-95690000D01*
X124047619Y-95785238D01*
X124095238Y-95880476D01*
X124142857Y-96070952D01*
X124142857Y-96213809D01*
X124095238Y-96404285D01*
X124047619Y-96499523D01*
X123952380Y-96594761D01*
X123809523Y-96642380D01*
X123571428Y-96642380D01*
X124523809Y-96594761D02*
X124666666Y-96642380D01*
X124904761Y-96642380D01*
X125000000Y-96594761D01*
X125047619Y-96547142D01*
X125095238Y-96451904D01*
X125095238Y-96356666D01*
X125047619Y-96261428D01*
X125000000Y-96213809D01*
X124904761Y-96166190D01*
X124714285Y-96118571D01*
X124619047Y-96070952D01*
X124571428Y-96023333D01*
X124523809Y-95928095D01*
X124523809Y-95832857D01*
X124571428Y-95737619D01*
X124619047Y-95690000D01*
X124714285Y-95642380D01*
X124952380Y-95642380D01*
X125095238Y-95690000D01*
X126047619Y-96642380D02*
X125476190Y-96642380D01*
X125761904Y-96642380D02*
X125761904Y-95642380D01*
X125666666Y-95785238D01*
X125571428Y-95880476D01*
X125476190Y-95928095D01*
X126666666Y-95642380D02*
X126761904Y-95642380D01*
X126857142Y-95690000D01*
X126904761Y-95737619D01*
X126952380Y-95832857D01*
X127000000Y-96023333D01*
X127000000Y-96261428D01*
X126952380Y-96451904D01*
X126904761Y-96547142D01*
X126857142Y-96594761D01*
X126761904Y-96642380D01*
X126666666Y-96642380D01*
X126571428Y-96594761D01*
X126523809Y-96547142D01*
X126476190Y-96451904D01*
X126428571Y-96261428D01*
X126428571Y-96023333D01*
X126476190Y-95832857D01*
X126523809Y-95737619D01*
X126571428Y-95690000D01*
X126666666Y-95642380D01*
X127952380Y-96642380D02*
X127380952Y-96642380D01*
X127666666Y-96642380D02*
X127666666Y-95642380D01*
X127571428Y-95785238D01*
X127476190Y-95880476D01*
X127380952Y-95928095D01*
X128857142Y-95642380D02*
X128380952Y-95642380D01*
X128333333Y-96118571D01*
X128380952Y-96070952D01*
X128476190Y-96023333D01*
X128714285Y-96023333D01*
X128809523Y-96070952D01*
X128857142Y-96118571D01*
X128904761Y-96213809D01*
X128904761Y-96451904D01*
X128857142Y-96547142D01*
X128809523Y-96594761D01*
X128714285Y-96642380D01*
X128476190Y-96642380D01*
X128380952Y-96594761D01*
X128333333Y-96547142D01*
X110522380Y-105143333D02*
X111522380Y-104810000D01*
X110522380Y-104476666D01*
X111522380Y-104143333D02*
X110522380Y-104143333D01*
X110522380Y-103905238D01*
X110570000Y-103762380D01*
X110665238Y-103667142D01*
X110760476Y-103619523D01*
X110950952Y-103571904D01*
X111093809Y-103571904D01*
X111284285Y-103619523D01*
X111379523Y-103667142D01*
X111474761Y-103762380D01*
X111522380Y-103905238D01*
X111522380Y-104143333D01*
X111522380Y-103143333D02*
X110522380Y-103143333D01*
X110522380Y-102905238D01*
X110570000Y-102762380D01*
X110665238Y-102667142D01*
X110760476Y-102619523D01*
X110950952Y-102571904D01*
X111093809Y-102571904D01*
X111284285Y-102619523D01*
X111379523Y-102667142D01*
X111474761Y-102762380D01*
X111522380Y-102905238D01*
X111522380Y-103143333D01*
X120785714Y-52976666D02*
X121261904Y-52976666D01*
X120690476Y-53262380D02*
X121023809Y-52262380D01*
X121357142Y-53262380D01*
X121690476Y-53262380D02*
X121690476Y-52262380D01*
X121928571Y-52262380D01*
X122071428Y-52310000D01*
X122166666Y-52405238D01*
X122214285Y-52500476D01*
X122261904Y-52690952D01*
X122261904Y-52833809D01*
X122214285Y-53024285D01*
X122166666Y-53119523D01*
X122071428Y-53214761D01*
X121928571Y-53262380D01*
X121690476Y-53262380D01*
X123261904Y-53167142D02*
X123214285Y-53214761D01*
X123071428Y-53262380D01*
X122976190Y-53262380D01*
X122833333Y-53214761D01*
X122738095Y-53119523D01*
X122690476Y-53024285D01*
X122642857Y-52833809D01*
X122642857Y-52690952D01*
X122690476Y-52500476D01*
X122738095Y-52405238D01*
X122833333Y-52310000D01*
X122976190Y-52262380D01*
X123071428Y-52262380D01*
X123214285Y-52310000D01*
X123261904Y-52357619D01*
X124214285Y-53262380D02*
X123642857Y-53262380D01*
X123928571Y-53262380D02*
X123928571Y-52262380D01*
X123833333Y-52405238D01*
X123738095Y-52500476D01*
X123642857Y-52548095D01*
X116095238Y-45356666D02*
X116571428Y-45356666D01*
X116000000Y-45642380D02*
X116333333Y-44642380D01*
X116666666Y-45642380D01*
X117428571Y-45642380D02*
X117428571Y-44642380D01*
X117428571Y-45594761D02*
X117333333Y-45642380D01*
X117142857Y-45642380D01*
X117047619Y-45594761D01*
X117000000Y-45547142D01*
X116952380Y-45451904D01*
X116952380Y-45166190D01*
X117000000Y-45070952D01*
X117047619Y-45023333D01*
X117142857Y-44975714D01*
X117333333Y-44975714D01*
X117428571Y-45023333D01*
X118333333Y-45642380D02*
X118333333Y-45118571D01*
X118285714Y-45023333D01*
X118190476Y-44975714D01*
X118000000Y-44975714D01*
X117904761Y-45023333D01*
X118333333Y-45594761D02*
X118238095Y-45642380D01*
X118000000Y-45642380D01*
X117904761Y-45594761D01*
X117857142Y-45499523D01*
X117857142Y-45404285D01*
X117904761Y-45309047D01*
X118000000Y-45261428D01*
X118238095Y-45261428D01*
X118333333Y-45213809D01*
X118666666Y-44975714D02*
X119047619Y-44975714D01*
X118809523Y-45642380D02*
X118809523Y-44785238D01*
X118857142Y-44690000D01*
X118952380Y-44642380D01*
X119047619Y-44642380D01*
X119380952Y-45642380D02*
X119380952Y-44975714D01*
X119380952Y-45166190D02*
X119428571Y-45070952D01*
X119476190Y-45023333D01*
X119571428Y-44975714D01*
X119666666Y-44975714D01*
X120428571Y-44975714D02*
X120428571Y-45642380D01*
X120000000Y-44975714D02*
X120000000Y-45499523D01*
X120047619Y-45594761D01*
X120142857Y-45642380D01*
X120285714Y-45642380D01*
X120380952Y-45594761D01*
X120428571Y-45547142D01*
X120904761Y-45642380D02*
X120904761Y-44975714D01*
X120904761Y-44642380D02*
X120857142Y-44690000D01*
X120904761Y-44737619D01*
X120952380Y-44690000D01*
X120904761Y-44642380D01*
X120904761Y-44737619D01*
X121238095Y-44975714D02*
X121619047Y-44975714D01*
X121380952Y-44642380D02*
X121380952Y-45499523D01*
X121428571Y-45594761D01*
X121523809Y-45642380D01*
X121619047Y-45642380D01*
X121714285Y-45737619D02*
X122476190Y-45737619D01*
X122666666Y-45356666D02*
X123142857Y-45356666D01*
X122571428Y-45642380D02*
X122904761Y-44642380D01*
X123238095Y-45642380D01*
X123571428Y-45642380D02*
X123571428Y-44642380D01*
X123809523Y-44642380D01*
X123952380Y-44690000D01*
X124047619Y-44785238D01*
X124095238Y-44880476D01*
X124142857Y-45070952D01*
X124142857Y-45213809D01*
X124095238Y-45404285D01*
X124047619Y-45499523D01*
X123952380Y-45594761D01*
X123809523Y-45642380D01*
X123571428Y-45642380D01*
X124523809Y-45594761D02*
X124666666Y-45642380D01*
X124904761Y-45642380D01*
X125000000Y-45594761D01*
X125047619Y-45547142D01*
X125095238Y-45451904D01*
X125095238Y-45356666D01*
X125047619Y-45261428D01*
X125000000Y-45213809D01*
X124904761Y-45166190D01*
X124714285Y-45118571D01*
X124619047Y-45070952D01*
X124571428Y-45023333D01*
X124523809Y-44928095D01*
X124523809Y-44832857D01*
X124571428Y-44737619D01*
X124619047Y-44690000D01*
X124714285Y-44642380D01*
X124952380Y-44642380D01*
X125095238Y-44690000D01*
X126047619Y-45642380D02*
X125476190Y-45642380D01*
X125761904Y-45642380D02*
X125761904Y-44642380D01*
X125666666Y-44785238D01*
X125571428Y-44880476D01*
X125476190Y-44928095D01*
X127000000Y-45642380D02*
X126428571Y-45642380D01*
X126714285Y-45642380D02*
X126714285Y-44642380D01*
X126619047Y-44785238D01*
X126523809Y-44880476D01*
X126428571Y-44928095D01*
X127952380Y-45642380D02*
X127380952Y-45642380D01*
X127666666Y-45642380D02*
X127666666Y-44642380D01*
X127571428Y-44785238D01*
X127476190Y-44880476D01*
X127380952Y-44928095D01*
X128857142Y-44642380D02*
X128380952Y-44642380D01*
X128333333Y-45118571D01*
X128380952Y-45070952D01*
X128476190Y-45023333D01*
X128714285Y-45023333D01*
X128809523Y-45070952D01*
X128857142Y-45118571D01*
X128904761Y-45213809D01*
X128904761Y-45451904D01*
X128857142Y-45547142D01*
X128809523Y-45594761D01*
X128714285Y-45642380D01*
X128476190Y-45642380D01*
X128380952Y-45594761D01*
X128333333Y-45547142D01*
X110522380Y-54143333D02*
X111522380Y-53810000D01*
X110522380Y-53476666D01*
X111522380Y-53143333D02*
X110522380Y-53143333D01*
X110522380Y-52905238D01*
X110570000Y-52762380D01*
X110665238Y-52667142D01*
X110760476Y-52619523D01*
X110950952Y-52571904D01*
X111093809Y-52571904D01*
X111284285Y-52619523D01*
X111379523Y-52667142D01*
X111474761Y-52762380D01*
X111522380Y-52905238D01*
X111522380Y-53143333D01*
X111522380Y-52143333D02*
X110522380Y-52143333D01*
X110522380Y-51905238D01*
X110570000Y-51762380D01*
X110665238Y-51667142D01*
X110760476Y-51619523D01*
X110950952Y-51571904D01*
X111093809Y-51571904D01*
X111284285Y-51619523D01*
X111379523Y-51667142D01*
X111474761Y-51762380D01*
X111522380Y-51905238D01*
X111522380Y-52143333D01*
M02*
