M48
; DRILL file {KiCad (5.1.6)-1} date 12/05/20 12:45:56
; FORMAT={3:3/ absolute / metric / suppress leading zeros}
; #@! TF.CreationDate,2020-12-05T12:45:56+01:00
; #@! TF.GenerationSoftware,Kicad,Pcbnew,(5.1.6)-1
FMAT,2
METRIC,TZ
T1C0.400
T2C0.700
T3C1.000
T4C1.100
T5C1.520
T6C3.200
%
G90
G05
T1
X73000Y-61000
X85500Y-94000
X88500Y-56250
X90000Y-79000
X91000Y-70000
X92000Y-94000
X94000Y-73000
X95000Y-79000
X97000Y-79000
X99000Y-65000
X100500Y-98500
X105500Y-98500
X106000Y-61000
X110000Y-65000
X115000Y-98500
X128500Y-98500
T2
X147000Y-42920
X147000Y-48000
X149000Y-79000
X149000Y-84080
X141000Y-81000
X146080Y-81000
X140000Y-85920
X140000Y-91000
X147000Y-54920
X147000Y-60000
X140000Y-93500
X140000Y-98580
T3
X106149Y-65110
X106149Y-67650
X106149Y-70190
X106149Y-72730
X106149Y-75270
X106149Y-77810
X106149Y-80350
X106149Y-82890
X79840Y-57755
X82380Y-57755
X84920Y-57755
X87460Y-57755
X90000Y-57755
X92540Y-57755
X95080Y-57755
X97620Y-57755
X100160Y-57755
X111070Y-55604
X113610Y-55604
X116150Y-55604
X118690Y-55604
X121230Y-55604
X123770Y-55604
X126310Y-55604
X128850Y-55604
X131390Y-55604
X133930Y-55604
X56950Y-84160
X59490Y-84160
X62030Y-84160
X64570Y-84160
X67110Y-63840
X67110Y-84160
X69650Y-63840
X69650Y-84160
X72190Y-63840
X72190Y-84160
X74730Y-63840
X74730Y-84160
X77270Y-63840
X77270Y-84160
X79810Y-63840
X79810Y-84160
X82350Y-63840
X82350Y-84160
X84890Y-63840
X84890Y-84160
X87430Y-63840
X87430Y-84160
X89970Y-63840
X89970Y-84160
X92510Y-63840
X92510Y-84160
X95050Y-63840
X95050Y-84160
X111070Y-106604
X113610Y-106604
X116150Y-106604
X118690Y-106604
X121230Y-106604
X123770Y-106604
X126310Y-106604
X128850Y-106604
X131390Y-106604
X133930Y-106604
X52840Y-90245
X55380Y-90245
X57920Y-90245
X60460Y-90245
X63000Y-90245
X65540Y-90245
X68080Y-90245
X70620Y-90245
X73160Y-90245
X80840Y-90245
X83380Y-90245
X85920Y-90245
X88460Y-90245
X91000Y-90245
X93540Y-90245
X96080Y-90245
X98620Y-90245
X101160Y-90245
X52840Y-57755
X55380Y-57755
X57920Y-57755
X60460Y-57755
X63000Y-57755
X65540Y-57755
X68080Y-57755
X70620Y-57755
X73160Y-57755
X139380Y-68380
X139380Y-70920
X139380Y-73460
X139380Y-76000
X147000Y-68380
X147000Y-70920
X147000Y-73460
X147000Y-76000
T4
X144000Y-87000
X144000Y-94620
X143500Y-98500
X145790Y-98500
X148080Y-98500
T5
X155000Y-43000
X155000Y-48080
X155000Y-101000
X155000Y-106080
X155000Y-89000
X155000Y-94080
X141420Y-105000
X146500Y-105000
X155000Y-67000
X155000Y-72080
X155000Y-77160
X155000Y-82240
X155000Y-55000
X155000Y-60080
T6
X46500Y-47500
X163500Y-47500
X46500Y-100000
X163500Y-100000
T0
M30
